<?xml version="1.0" standalone="no"?>
<!DOCTYPE svg PUBLIC "-//W3C//DTD SVG 20010904//EN"
 "http://www.w3.org/TR/2001/REC-SVG-20010904/DTD/svg10.dtd">
<svg version="1.0" xmlns="http://www.w3.org/2000/svg"
 width="315.000000pt" height="315.000000pt" viewBox="0 0 315.000000 315.000000"
 preserveAspectRatio="xMidYMid meet">

<g transform="translate(0.000000,315.000000) scale(0.100000,-0.100000)"
fill="#000000" stroke="none">
<path d="M420 3139 c-197 -29 -354 -172 -405 -366 -13 -49 -15 -219 -15 -1195
0 -791 3 -1153 11 -1190 38 -184 193 -339 377 -377 37 -8 399 -11 1190 -11
976 0 1146 2 1195 15 164 43 295 165 351 328 21 62 21 67 24 1177 2 745 -1
1142 -8 1195 -29 220 -198 394 -415 425 -85 12 -2224 12 -2305 -1z m2413 -97
c88 -43 166 -121 209 -209 l33 -68 0 -1191 0 -1190 -38 -76 c-62 -126 -174
-213 -307 -238 -77 -15 -2252 -14 -2322 1 -166 36 -301 171 -337 337 -15 70
-16 2245 -1 2322 29 154 139 278 295 332 47 16 130 17 1225 15 l1175 -2 68
-33z"/>
<path d="M1498 2750 l-38 -41 0 -369 0 -370 36 -39 c19 -22 48 -42 64 -46 34
-8 80 14 109 51 20 26 21 37 21 405 l0 378 -34 35 c-28 30 -40 36 -76 36 -37
0 -48 -5 -82 -40z"/>
<path d="M1361 2664 c-154 -41 -257 -101 -377 -219 -106 -104 -158 -187 -206
-325 -32 -92 -33 -100 -33 -255 0 -155 1 -163 33 -255 48 -138 100 -221 206
-325 161 -159 322 -230 547 -242 395 -21 742 225 851 604 33 112 33 324 0 436
-86 299 -327 523 -634 591 l-28 6 0 -69 0 -69 38 -6 c20 -4 78 -27 127 -51
169 -81 303 -234 361 -411 25 -78 29 -104 29 -209 0 -105 -4 -131 -29 -209
-111 -337 -462 -540 -814 -471 -92 19 -236 87 -307 146 -116 96 -207 240 -239
379 -20 83 -20 227 0 310 54 234 251 441 484 510 l55 16 3 67 c2 37 -1 67 -5
66 -4 0 -32 -7 -62 -15z"/>
<path d="M684 792 c-23 -11 -52 -35 -65 -53 -21 -30 -24 -45 -24 -126 0 -102
11 -127 75 -170 81 -56 227 -4 233 83 2 25 -2 29 -25 32 -20 2 -28 -1 -28 -12
0 -8 -11 -28 -24 -43 -20 -23 -32 -28 -70 -28 -36 0 -51 6 -73 27 -23 24 -28
38 -31 96 -5 85 13 127 65 148 47 20 97 4 119 -38 13 -25 19 -29 42 -23 37 9
37 10 16 46 -43 72 -131 98 -210 61z"/>
<path d="M2310 788 c-56 -29 -87 -74 -95 -142 -13 -99 35 -191 112 -217 47
-15 128 -6 161 18 65 48 94 139 72 224 -17 61 -46 98 -94 120 -55 25 -102 24
-156 -3z m146 -55 c49 -31 66 -151 29 -206 -21 -32 -63 -57 -97 -57 -37 0 -88
38 -105 78 -19 45 -12 126 15 162 35 47 106 57 158 23z"/>
<path d="M296 623 c-36 -98 -66 -181 -66 -185 0 -5 13 -8 29 -8 27 0 31 5 47
55 l18 55 71 0 72 0 18 -55 c18 -52 21 -55 53 -55 28 0 33 3 28 18 -4 9 -37
92 -73 185 l-67 167 -32 0 -31 0 -67 -177z m144 -24 c0 -5 -20 -9 -45 -9 -25
0 -45 4 -45 8 0 4 10 37 21 72 l22 63 23 -63 c13 -34 24 -66 24 -71z"/>
<path d="M940 775 c0 -24 3 -25 55 -25 l55 0 0 -160 0 -160 30 0 30 0 0 160 0
160 60 0 c57 0 60 1 60 25 l0 25 -145 0 -145 0 0 -25z"/>
<path d="M1270 665 c0 -204 22 -240 146 -240 70 0 75 2 106 33 l33 32 3 155 3
155 -30 0 -31 0 0 -138 c0 -155 -7 -177 -64 -187 -38 -8 -90 14 -100 40 -3 9
-6 77 -6 151 l0 134 -30 0 -30 0 0 -135z"/>
<path d="M1721 778 c-25 -69 -82 -222 -105 -280 l-25 -68 33 0 c31 0 33 3 50
55 l17 56 71 -3 71 -3 20 -52 c18 -49 22 -53 53 -53 l34 0 -17 43 c-133 334
-127 322 -161 325 -26 3 -34 -1 -41 -20z m83 -165 c7 -22 5 -23 -43 -23 l-50
0 13 38 c8 20 19 51 26 67 l12 30 18 -45 c9 -25 21 -55 24 -67z"/>
<path d="M1900 775 c0 -24 3 -25 60 -25 l60 0 0 -160 0 -160 30 0 30 0 0 160
0 160 60 0 c57 0 60 1 60 25 l0 25 -150 0 -150 0 0 -25z"/>
<path d="M2620 615 l0 -185 30 0 30 0 0 80 0 80 34 0 c44 0 77 -27 121 -100
33 -55 39 -60 72 -60 25 0 34 4 30 13 -10 26 -75 123 -92 137 -15 12 -13 15
15 26 53 23 73 106 37 155 -24 31 -56 39 -166 39 l-111 0 0 -185z m204 129
c27 -10 38 -40 25 -68 -14 -29 -34 -36 -111 -36 l-58 0 0 55 0 55 64 0 c35 0
72 -3 80 -6z"/>
</g>
</svg>
