<?xml version="1.0" standalone="no"?>
<!DOCTYPE svg PUBLIC "-//W3C//DTD SVG 20010904//EN"
 "http://www.w3.org/TR/2001/REC-SVG-20010904/DTD/svg10.dtd">
<svg version="1.0" xmlns="http://www.w3.org/2000/svg"
 width="70.000000pt" height="50.000000pt" viewBox="0 0 70.000000 50.000000"
 preserveAspectRatio="xMidYMid meet">

<g transform="translate(0.000000,50.000000) scale(0.100000,-0.100000)"
fill="#000000" stroke="none">
<path d="M80 441 c0 -36 -3 -40 -27 -43 -26 -3 -28 -7 -31 -50 -3 -47 -3 -48
27 -48 l31 0 0 -85 c0 -50 -4 -85 -10 -85 -15 0 -12 -72 4 -93 12 -15 38 -17
296 -17 258 0 284 2 296 17 16 21 20 303 5 318 -6 6 -11 35 -13 65 l-3 55
-217 3 c-191 2 -217 1 -212 -13 4 -10 0 -15 -11 -15 -11 0 -15 5 -11 15 4 12
-6 15 -59 15 l-65 0 0 -39z m360 9 c0 -6 -35 -10 -85 -10 -50 0 -85 4 -85 10
0 6 35 10 85 10 50 0 85 -4 85 -10z m200 0 c0 -6 -35 -10 -85 -10 -50 0 -85 4
-85 10 0 6 35 10 85 10 50 0 85 -4 85 -10z m-420 -40 c0 -5 -4 -10 -10 -10 -5
0 -10 5 -10 10 0 6 5 10 10 10 6 0 10 -4 10 -10z m40 0 c0 -5 -4 -10 -9 -10
-6 0 -13 5 -16 10 -3 6 1 10 9 10 9 0 16 -4 16 -10z m60 -50 c0 -22 -4 -40
-10 -40 -5 0 -10 18 -10 40 0 22 5 40 10 40 6 0 10 -18 10 -40z m178 2 c4 -26
-19 -38 -44 -24 -12 7 -24 6 -36 -1 -22 -14 -52 11 -42 36 4 13 18 16 62 14
51 -2 57 -4 60 -25z m-238 -18 c0 -34 -1 -35 -32 -32 -54 5 -53 68 2 68 28 0
30 -3 30 -36z m297 -10 c-3 -3 -12 -4 -19 -1 -8 3 -5 6 6 6 11 1 17 -2 13 -5z
m40 0 c-3 -3 -12 -4 -19 -1 -8 3 -5 6 6 6 11 1 17 -2 13 -5z m-477 -44 c0 -5
-4 -10 -10 -10 -5 0 -10 5 -10 10 0 6 5 10 10 10 6 0 10 -4 10 -10z m115 -10
c8 -13 -20 -24 -41 -16 -20 8 -9 26 16 26 10 0 22 -5 25 -10z m85 -25 c0 -19
-4 -35 -10 -35 -5 0 -10 16 -10 35 0 19 5 35 10 35 6 0 10 -16 10 -35z m340 5
c0 -23 -4 -30 -20 -30 -16 0 -20 7 -20 30 0 23 4 30 20 30 16 0 20 -7 20 -30z
m-260 11 c0 -5 12 -11 28 -13 40 -4 35 -32 -7 -36 -40 -4 -52 6 -45 36 6 21
24 31 24 13z m195 -16 c0 -23 -4 -25 -40 -25 -28 0 -36 3 -26 9 12 8 12 12 2
25 -12 14 -9 16 25 16 35 0 39 -3 39 -25z m-98 -31 c-3 -3 -12 -4 -19 -1 -8 3
-5 6 6 6 11 1 17 -2 13 -5z m-227 -29 c0 -21 -5 -25 -29 -25 -17 0 -33 5 -36
10 -13 21 4 40 35 40 25 0 30 -4 30 -25z m-85 -27 c2 -26 -1 -28 -37 -28 -40
0 -56 16 -44 46 4 11 16 14 43 12 33 -3 37 -6 38 -30z m441 10 c3 -10 3 -26 0
-35 -5 -16 -20 -18 -143 -17 -76 1 -141 2 -145 3 -13 2 -9 59 4 63 6 2 72 4
145 4 118 -1 134 -3 139 -18z m-370 -54 c-4 -9 -1 -23 5 -30 16 -19 4 -44 -21
-44 -25 0 -37 25 -20 45 9 10 9 15 1 15 -6 0 -11 7 -11 15 0 9 10 15 26 15 20
0 25 -4 20 -16z m-64 -46 c-9 -9 -12 -7 -12 12 0 19 3 21 12 12 9 -9 9 -15 0
-24z m138 17 c7 -8 10 -22 6 -30 -7 -19 -45 -19 -52 0 -6 15 11 45 26 45 4 0
13 -7 20 -15z m340 -10 c0 -8 -4 -15 -10 -15 -5 0 -10 7 -10 15 0 8 5 15 10
15 6 0 10 -7 10 -15z m-500 -45 c0 -5 -4 -10 -9 -10 -6 0 -13 5 -16 10 -3 6 1
10 9 10 9 0 16 -4 16 -10z m320 0 c0 -6 -30 -10 -70 -10 -40 0 -70 4 -70 10 0
6 30 10 70 10 40 0 70 -4 70 -10z m150 0 c0 -6 -28 -10 -65 -10 -37 0 -65 4
-65 10 0 6 28 10 65 10 37 0 65 -4 65 -10z"/>
<path d="M390 366 c0 -8 4 -17 8 -20 13 -8 35 11 28 23 -10 16 -36 14 -36 -3z"/>
<path d="M454 369 c-3 -6 -2 -15 4 -21 13 -13 32 -2 32 18 0 16 -26 19 -36 3z"/>
<path d="M556 261 c-4 -7 -5 -15 -2 -18 9 -9 19 4 14 18 -4 11 -6 11 -12 0z"/>
</g>
</svg>
