<svg id="svg" xmlns="http://www.w3.org/2000/svg" xmlns:xlink="http://www.w3.org/1999/xlink" width="400" height="400" viewBox="0, 0, 400,400"><g id="svgg"><path id="path0" d="M101.600 6.757 C 101.600 6.953,101.116 7.235,100.524 7.383 C 99.932 7.532,99.167 7.976,98.824 8.370 C 98.481 8.763,97.795 9.213,97.300 9.370 C 96.799 9.528,96.400 9.978,96.400 10.384 C 96.400 10.786,96.130 11.218,95.800 11.345 C 95.470 11.471,95.200 12.031,95.200 12.587 C 95.200 13.144,95.020 13.600,94.800 13.600 C 94.537 13.600,94.400 22.867,94.400 40.600 L 94.400 67.600 110.800 67.600 L 127.200 67.600 127.200 50.600 L 127.200 33.600 240.400 33.600 L 353.600 33.600 353.600 155.000 L 353.600 276.400 321.600 276.400 C 303.659 276.400,289.600 276.553,289.600 276.749 C 289.600 276.941,288.880 277.213,288.000 277.354 C 287.120 277.494,286.400 277.787,286.400 278.005 C 286.400 278.222,286.130 278.400,285.800 278.400 C 285.470 278.400,285.200 278.568,285.200 278.773 C 285.200 278.978,284.849 279.257,284.420 279.394 C 283.992 279.530,283.533 279.983,283.400 280.400 C 283.267 280.817,282.818 281.267,282.401 281.400 C 281.869 281.568,281.563 282.172,281.376 283.420 C 281.229 284.399,280.950 285.200,280.755 285.200 C 280.551 285.200,280.400 302.299,280.400 325.400 L 280.400 365.600 203.800 365.600 L 127.200 365.600 127.200 290.400 L 127.200 215.200 110.800 215.200 L 94.400 215.200 94.400 301.000 C 94.400 357.933,94.535 386.800,94.800 386.800 C 95.020 386.800,95.200 387.237,95.200 387.771 C 95.200 388.306,95.470 389.013,95.800 389.343 C 96.130 389.673,96.400 390.059,96.400 390.200 C 96.400 390.615,97.505 391.600,97.971 391.600 C 98.207 391.600,98.400 391.768,98.400 391.973 C 98.400 392.178,98.805 392.472,99.300 392.627 C 99.795 392.781,100.290 393.019,100.400 393.154 C 101.409 394.396,101.786 394.400,206.400 394.400 C 269.514 394.400,310.684 394.254,311.105 394.029 C 311.487 393.825,312.070 393.548,312.400 393.414 C 314.138 392.704,318.400 389.021,318.400 388.229 C 318.400 388.090,319.570 386.784,321.000 385.325 C 322.430 383.867,323.600 382.531,323.600 382.356 C 323.600 382.182,324.846 380.775,326.369 379.231 C 327.893 377.687,329.255 376.058,329.396 375.611 C 329.538 375.165,329.809 374.800,329.998 374.800 C 330.367 374.800,330.458 374.710,333.200 371.621 C 334.190 370.505,336.215 368.328,337.700 366.782 C 339.185 365.237,340.400 363.805,340.400 363.600 C 340.400 363.395,341.570 362.052,343.000 360.615 C 344.430 359.178,345.600 357.744,345.600 357.428 C 345.600 357.112,345.951 356.743,346.380 356.606 C 346.808 356.470,347.267 356.017,347.400 355.600 C 347.533 355.183,347.992 354.730,348.420 354.594 C 348.849 354.457,349.200 354.192,349.200 354.004 C 349.200 353.816,349.740 353.122,350.400 352.462 C 351.060 351.802,351.600 351.154,351.600 351.023 C 351.600 350.891,352.860 349.506,354.400 347.944 C 355.940 346.383,357.200 344.965,357.200 344.794 C 357.200 344.622,358.538 343.113,360.173 341.440 C 361.808 339.768,363.258 338.048,363.394 337.620 C 363.530 337.191,363.992 336.730,364.420 336.594 C 364.849 336.457,365.200 336.199,365.200 336.020 C 365.200 335.841,365.920 334.974,366.800 334.094 C 367.680 333.214,368.400 332.378,368.400 332.235 C 368.400 332.093,369.570 330.784,371.000 329.325 C 372.430 327.867,373.600 326.525,373.600 326.343 C 373.600 326.162,374.950 324.663,376.600 323.013 C 378.250 321.363,379.600 319.752,379.600 319.433 C 379.600 319.115,379.960 318.740,380.400 318.600 C 380.840 318.460,381.200 318.208,381.200 318.038 C 381.200 317.869,382.103 316.756,383.206 315.565 C 386.127 312.412,386.400 312.059,386.400 311.433 C 386.400 311.122,386.625 310.792,386.900 310.700 C 387.299 310.567,387.400 280.391,387.400 161.600 C 387.400 42.809,387.299 12.633,386.900 12.500 C 386.625 12.408,386.400 12.161,386.400 11.950 C 386.400 11.550,385.775 10.703,384.872 9.881 C 384.582 9.616,383.961 8.991,383.493 8.492 C 383.025 7.993,381.958 7.475,381.121 7.341 C 380.284 7.207,379.600 6.941,379.600 6.749 C 379.600 6.551,319.421 6.400,240.600 6.400 C 159.467 6.400,101.600 6.548,101.600 6.757 M37.200 82.000 C 37.200 82.222,36.133 82.400,34.800 82.400 C 33.480 82.400,32.400 82.557,32.400 82.748 C 32.400 82.939,31.551 83.192,30.513 83.309 C 29.475 83.426,28.560 83.719,28.480 83.961 C 28.399 84.202,28.078 84.400,27.767 84.400 C 27.455 84.400,27.200 84.558,27.200 84.750 C 27.200 84.942,26.636 85.213,25.946 85.351 C 25.257 85.489,24.402 85.935,24.046 86.344 C 23.691 86.752,23.004 87.211,22.520 87.363 C 22.037 87.516,21.533 87.983,21.400 88.400 C 21.267 88.817,20.808 89.270,20.380 89.406 C 19.951 89.543,19.600 89.823,19.600 90.030 C 19.600 90.236,19.150 90.797,18.600 91.275 C 18.050 91.753,17.600 92.387,17.600 92.685 C 17.600 92.982,17.330 93.329,17.000 93.455 C 16.670 93.582,16.400 94.026,16.400 94.443 C 16.400 94.859,16.234 95.200,16.032 95.200 C 15.829 95.200,15.545 95.740,15.400 96.400 C 15.255 97.060,14.971 97.600,14.768 97.600 C 14.566 97.600,14.400 98.014,14.400 98.520 C 14.400 99.026,14.175 99.665,13.900 99.940 C 13.167 100.673,13.167 182.456,13.900 182.700 C 14.175 182.792,14.400 183.302,14.400 183.833 C 14.400 184.365,14.560 184.800,14.755 184.800 C 14.951 184.800,15.229 185.430,15.374 186.200 C 15.518 186.970,15.808 187.600,16.018 187.600 C 16.228 187.600,16.400 187.870,16.400 188.200 C 16.400 188.530,16.580 188.800,16.800 188.800 C 17.020 188.800,17.200 189.096,17.200 189.457 C 17.200 189.818,17.740 190.629,18.400 191.260 C 19.060 191.891,19.600 192.598,19.600 192.832 C 19.600 193.381,20.619 194.400,21.168 194.400 C 21.402 194.400,22.109 194.940,22.740 195.600 C 23.371 196.260,24.182 196.800,24.543 196.800 C 24.904 196.800,25.200 196.980,25.200 197.200 C 25.200 197.420,25.470 197.600,25.800 197.600 C 26.130 197.600,26.400 197.772,26.400 197.982 C 26.400 198.192,27.030 198.482,27.800 198.626 C 28.570 198.771,29.200 199.049,29.200 199.245 C 29.200 199.440,29.635 199.600,30.167 199.600 C 30.698 199.600,31.208 199.825,31.300 200.100 C 31.433 200.498,54.289 200.600,143.800 200.600 C 233.311 200.600,256.167 200.498,256.300 200.100 C 256.392 199.825,256.902 199.600,257.433 199.600 C 257.965 199.600,258.400 199.444,258.400 199.252 C 258.400 199.061,259.046 198.800,259.836 198.672 C 260.626 198.543,261.571 198.096,261.936 197.676 C 262.301 197.257,263.005 196.787,263.500 196.630 C 263.995 196.474,264.400 196.178,264.400 195.973 C 264.400 195.768,264.598 195.600,264.840 195.600 C 265.081 195.600,266.161 194.655,267.239 193.500 C 270.127 190.404,270.400 190.054,270.400 189.443 C 270.400 189.136,270.670 188.782,271.000 188.655 C 271.330 188.529,271.600 188.059,271.600 187.613 C 271.600 187.166,271.780 186.800,272.000 186.800 C 272.220 186.800,272.400 186.365,272.400 185.833 C 272.400 185.302,272.598 184.801,272.839 184.720 C 273.081 184.640,273.374 183.725,273.491 182.687 C 273.608 181.649,273.861 180.800,274.052 180.800 C 274.247 180.800,274.400 163.560,274.400 141.600 C 274.400 119.963,274.246 102.400,274.056 102.400 C 273.866 102.400,273.606 101.545,273.477 100.500 C 273.239 98.575,272.422 96.409,271.932 96.403 C 271.784 96.401,271.543 95.851,271.396 95.181 C 271.249 94.510,270.784 93.747,270.364 93.485 C 269.944 93.222,269.600 92.765,269.600 92.468 C 269.600 91.921,264.807 87.018,263.377 86.102 C 262.950 85.828,261.925 85.290,261.100 84.907 C 260.275 84.525,259.600 84.091,259.600 83.943 C 259.600 83.796,258.700 83.551,257.600 83.400 C 256.500 83.249,255.600 82.962,255.600 82.762 C 255.600 82.563,254.520 82.400,253.200 82.400 C 251.867 82.400,250.800 82.222,250.800 82.000 C 250.800 81.734,214.933 81.600,144.000 81.600 C 73.067 81.600,37.200 81.734,37.200 82.000 M94.312 105.135 C 94.397 105.391,95.082 105.600,95.833 105.600 C 96.585 105.600,97.200 105.768,97.200 105.973 C 97.200 106.179,97.695 106.404,98.300 106.473 C 99.407 106.601,99.794 109.155,98.763 109.533 C 98.563 109.607,98.400 110.462,98.400 111.433 C 98.400 112.405,98.241 113.200,98.047 113.200 C 97.853 113.200,97.567 114.550,97.413 116.200 C 97.258 117.850,96.967 119.200,96.766 119.200 C 96.565 119.200,96.400 119.749,96.400 120.420 L 96.400 121.640 93.900 121.363 C 92.525 121.210,91.340 120.931,91.267 120.743 C 91.087 120.281,78.400 120.301,78.400 120.762 C 78.400 120.962,77.500 121.249,76.400 121.400 C 75.300 121.551,74.400 121.838,74.400 122.038 C 74.400 122.237,74.130 122.400,73.800 122.400 C 73.470 122.400,73.200 122.568,73.200 122.773 C 73.200 122.978,72.816 123.268,72.347 123.417 C 71.180 123.787,67.200 127.762,67.200 128.557 C 67.200 128.911,67.020 129.200,66.800 129.200 C 66.580 129.200,66.400 129.470,66.400 129.800 C 66.400 130.130,66.222 130.400,66.005 130.400 C 65.787 130.400,65.494 131.120,65.354 132.000 C 65.213 132.880,64.941 133.600,64.749 133.600 C 64.557 133.600,64.400 134.230,64.400 135.000 C 64.400 135.770,64.220 136.400,64.000 136.400 C 63.756 136.400,63.600 138.259,63.600 141.176 C 63.600 143.929,63.769 146.058,64.000 146.200 C 64.220 146.336,64.400 146.977,64.400 147.624 C 64.400 148.271,64.560 148.800,64.755 148.800 C 64.950 148.800,65.231 149.610,65.379 150.600 C 65.528 151.590,65.818 152.400,66.025 152.400 C 66.231 152.400,66.400 152.670,66.400 153.000 C 66.400 153.330,66.580 153.600,66.800 153.600 C 67.020 153.600,67.200 153.861,67.200 154.181 C 67.200 154.886,71.039 158.800,71.731 158.800 C 72.002 158.800,72.486 159.165,72.808 159.611 C 73.133 160.062,74.058 160.528,74.896 160.662 C 75.723 160.794,76.400 161.059,76.400 161.251 C 76.400 161.443,77.030 161.600,77.800 161.600 C 78.570 161.600,79.200 161.780,79.200 162.000 C 79.200 162.249,81.533 162.400,85.400 162.400 C 89.267 162.400,91.600 162.249,91.600 162.000 C 91.600 161.780,92.309 161.600,93.176 161.600 C 94.043 161.600,94.864 161.420,95.000 161.200 C 96.294 159.106,97.585 161.729,97.597 166.476 C 97.598 167.288,97.780 168.064,98.000 168.200 C 98.220 168.336,98.400 169.337,98.400 170.424 C 98.400 171.511,98.580 172.400,98.800 172.400 C 99.020 172.400,99.200 173.043,99.200 173.829 C 99.200 175.226,98.483 176.400,97.629 176.400 C 97.393 176.400,97.200 176.565,97.200 176.766 C 97.200 176.967,95.850 177.258,94.200 177.413 C 92.550 177.567,91.200 177.853,91.200 178.047 C 91.200 178.241,89.940 178.400,88.400 178.400 C 86.800 178.400,85.600 178.571,85.600 178.800 C 85.600 179.046,83.608 179.200,80.424 179.200 C 77.404 179.200,75.144 179.033,75.000 178.800 C 74.864 178.580,73.773 178.400,72.576 178.400 C 71.379 178.400,70.400 178.241,70.400 178.047 C 70.400 177.852,69.230 177.568,67.800 177.415 C 66.370 177.262,65.200 176.971,65.200 176.768 C 65.200 176.566,64.840 176.400,64.400 176.400 C 63.960 176.400,63.600 176.243,63.600 176.051 C 63.600 175.859,62.880 175.587,62.000 175.446 C 61.120 175.306,60.400 175.013,60.400 174.795 C 60.400 174.578,60.130 174.400,59.800 174.400 C 59.470 174.400,59.200 174.223,59.200 174.008 C 59.200 173.792,58.750 173.502,58.200 173.364 C 57.650 173.226,57.200 172.953,57.200 172.757 C 57.200 172.560,56.937 172.400,56.616 172.400 C 56.295 172.400,55.298 171.680,54.400 170.800 C 53.502 169.920,52.582 169.200,52.355 169.200 C 51.821 169.200,50.800 168.177,50.800 167.642 C 50.800 167.414,50.305 166.707,49.700 166.071 C 48.354 164.656,47.808 163.840,46.907 161.900 C 46.525 161.075,46.074 160.400,45.906 160.400 C 45.738 160.400,45.600 160.202,45.600 159.960 C 45.600 159.538,44.711 157.324,43.985 155.935 C 43.793 155.569,43.515 154.354,43.367 153.235 C 43.218 152.116,42.940 151.200,42.748 151.200 C 42.557 151.200,42.400 150.300,42.400 149.200 C 42.400 148.100,42.220 147.200,42.000 147.200 C 41.756 147.200,41.600 145.333,41.600 142.400 C 41.600 139.467,41.756 137.600,42.000 137.600 C 42.220 137.600,42.400 136.700,42.400 135.600 C 42.400 134.500,42.557 133.600,42.748 133.600 C 42.940 133.600,43.219 132.520,43.368 131.200 C 43.518 129.880,43.811 128.800,44.020 128.800 C 44.229 128.800,44.400 128.350,44.400 127.800 C 44.400 127.250,44.566 126.800,44.768 126.800 C 44.971 126.800,45.255 126.260,45.400 125.600 C 45.545 124.940,45.829 124.400,46.032 124.400 C 46.234 124.400,46.400 124.040,46.400 123.600 C 46.400 123.160,46.560 122.800,46.757 122.800 C 46.953 122.800,47.226 122.350,47.364 121.800 C 47.502 121.250,47.792 120.800,48.008 120.800 C 48.223 120.800,48.400 120.606,48.400 120.369 C 48.400 120.132,48.940 119.398,49.600 118.738 C 50.260 118.078,50.800 117.365,50.800 117.153 C 50.800 116.713,53.884 113.600,54.320 113.600 C 54.479 113.600,55.093 113.150,55.687 112.600 C 56.280 112.050,56.953 111.600,57.183 111.600 C 57.412 111.600,57.600 111.423,57.600 111.208 C 57.600 110.992,58.050 110.702,58.600 110.564 C 59.150 110.426,59.600 110.153,59.600 109.957 C 59.600 109.760,59.848 109.600,60.151 109.600 C 60.454 109.600,60.926 109.330,61.200 109.000 C 61.474 108.670,62.126 108.400,62.649 108.400 C 63.172 108.400,63.600 108.264,63.600 108.098 C 63.600 107.668,65.684 106.801,67.380 106.526 C 68.172 106.397,68.916 106.136,69.033 105.946 C 69.151 105.756,69.777 105.600,70.424 105.600 C 71.071 105.600,71.600 105.430,71.600 105.222 C 71.600 104.339,94.017 104.252,94.312 105.135 M151.514 105.142 C 151.598 105.394,152.282 105.600,153.033 105.600 C 153.785 105.600,154.400 105.763,154.400 105.962 C 154.400 106.162,155.300 106.449,156.400 106.600 C 157.500 106.751,158.400 107.038,158.400 107.238 C 158.400 107.437,158.683 107.600,159.029 107.600 C 159.722 107.600,159.456 112.061,158.747 112.333 C 158.556 112.407,158.400 113.082,158.400 113.833 C 158.400 114.585,158.234 115.200,158.032 115.200 C 157.829 115.200,157.538 116.370,157.385 117.800 C 157.232 119.230,156.948 120.400,156.753 120.400 C 156.559 120.400,156.400 120.727,156.400 121.127 C 156.400 121.783,156.226 121.813,154.600 121.436 C 153.610 121.206,152.800 120.879,152.800 120.709 C 152.800 120.539,152.451 120.400,152.024 120.400 C 151.597 120.400,151.142 120.230,151.014 120.023 C 150.886 119.816,149.526 119.523,147.991 119.372 C 146.456 119.220,145.200 118.940,145.200 118.748 C 145.200 118.557,143.400 118.400,141.200 118.400 C 139.000 118.400,137.200 118.560,137.200 118.755 C 137.200 118.950,136.399 119.229,135.420 119.376 C 134.152 119.566,133.569 119.867,133.393 120.421 C 133.257 120.850,132.978 121.200,132.773 121.200 C 132.568 121.200,132.400 121.470,132.400 121.800 C 132.400 122.130,132.220 122.400,132.000 122.400 C 131.774 122.400,131.600 123.533,131.600 125.000 C 131.600 126.467,131.774 127.600,132.000 127.600 C 132.220 127.600,132.400 127.779,132.400 127.997 C 132.400 128.779,134.132 130.365,135.255 130.612 C 135.885 130.750,136.400 131.029,136.400 131.232 C 136.400 131.434,136.670 131.600,137.000 131.600 C 137.330 131.600,137.600 131.760,137.600 131.955 C 137.600 132.150,138.410 132.431,139.400 132.579 C 140.390 132.728,141.200 133.018,141.200 133.225 C 141.200 133.431,141.650 133.600,142.200 133.600 C 142.750 133.600,143.200 133.757,143.200 133.949 C 143.200 134.141,143.920 134.413,144.800 134.554 C 145.680 134.694,146.400 134.987,146.400 135.205 C 146.400 135.422,146.850 135.600,147.400 135.600 C 147.950 135.600,148.400 135.772,148.400 135.982 C 148.400 136.192,149.030 136.482,149.800 136.626 C 150.570 136.771,151.200 137.049,151.200 137.245 C 151.200 137.440,151.470 137.600,151.800 137.600 C 152.130 137.600,152.400 137.768,152.400 137.973 C 152.400 138.178,152.774 138.465,153.231 138.610 C 154.322 138.956,160.400 145.068,160.400 145.819 C 160.400 146.138,160.578 146.400,160.795 146.400 C 161.013 146.400,161.306 147.120,161.446 148.000 C 161.587 148.880,161.859 149.600,162.051 149.600 C 162.243 149.600,162.400 150.050,162.400 150.600 C 162.400 151.150,162.580 151.600,162.800 151.600 C 163.042 151.600,163.200 153.333,163.200 156.000 C 163.200 158.667,163.042 160.400,162.800 160.400 C 162.580 160.400,162.400 160.850,162.400 161.400 C 162.400 161.950,162.243 162.400,162.051 162.400 C 161.859 162.400,161.587 163.120,161.446 164.000 C 161.306 164.880,161.013 165.600,160.795 165.600 C 160.578 165.600,160.400 165.941,160.400 166.357 C 160.400 166.774,160.130 167.218,159.800 167.345 C 159.470 167.471,159.200 167.928,159.200 168.360 C 159.200 168.793,158.849 169.257,158.420 169.394 C 157.992 169.530,157.533 169.983,157.400 170.400 C 157.267 170.817,156.808 171.270,156.380 171.406 C 155.951 171.543,155.600 171.822,155.600 172.027 C 155.600 172.232,155.330 172.400,155.000 172.400 C 154.670 172.400,154.400 172.568,154.400 172.773 C 154.400 172.978,153.995 173.274,153.500 173.430 C 153.005 173.587,152.301 174.057,151.936 174.476 C 151.571 174.896,150.626 175.343,149.836 175.472 C 149.046 175.600,148.400 175.861,148.400 176.052 C 148.400 176.244,148.130 176.400,147.800 176.400 C 147.470 176.400,147.200 176.567,147.200 176.771 C 147.200 176.975,146.165 177.254,144.900 177.391 C 143.635 177.527,142.287 177.810,141.905 178.020 C 141.523 178.229,140.398 178.400,139.405 178.400 C 138.412 178.400,137.600 178.580,137.600 178.800 C 137.600 179.048,135.467 179.200,132.000 179.200 C 128.533 179.200,126.400 179.048,126.400 178.800 C 126.400 178.578,125.333 178.400,124.000 178.400 C 122.680 178.400,121.600 178.246,121.600 178.057 C 121.600 177.868,120.475 177.597,119.100 177.453 C 117.725 177.310,116.540 177.014,116.467 176.796 C 116.393 176.578,115.909 176.400,115.390 176.400 C 114.872 176.400,114.336 176.220,114.200 176.000 C 114.064 175.780,113.695 175.600,113.379 175.600 C 111.557 175.600,109.600 174.205,109.600 172.906 C 109.600 172.188,109.780 171.600,110.000 171.600 C 110.220 171.600,110.400 170.970,110.400 170.200 C 110.400 169.430,110.566 168.800,110.768 168.800 C 110.971 168.800,111.262 167.630,111.415 166.200 C 111.568 164.770,111.852 163.600,112.047 163.600 C 112.241 163.600,112.400 162.970,112.400 162.200 C 112.400 161.430,112.580 160.800,112.800 160.800 C 113.020 160.800,113.200 160.508,113.200 160.151 C 113.200 159.678,113.336 159.614,113.700 159.915 C 113.975 160.142,114.875 160.455,115.700 160.609 C 116.525 160.763,117.200 161.049,117.200 161.245 C 117.200 161.440,117.650 161.600,118.200 161.600 C 118.750 161.600,119.200 161.763,119.200 161.962 C 119.200 162.162,120.100 162.449,121.200 162.600 C 122.300 162.751,123.200 163.038,123.200 163.238 C 123.200 163.437,123.920 163.600,124.800 163.600 C 125.680 163.600,126.400 163.780,126.400 164.000 C 126.400 164.248,128.533 164.400,132.000 164.400 C 135.467 164.400,137.600 164.248,137.600 164.000 C 137.600 163.780,137.960 163.600,138.400 163.600 C 138.840 163.600,139.200 163.440,139.200 163.243 C 139.200 163.047,139.638 162.777,140.173 162.642 C 140.709 162.508,141.261 162.039,141.400 161.599 C 141.540 161.160,141.822 160.800,142.027 160.800 C 142.232 160.800,142.400 159.436,142.400 157.769 C 142.400 154.457,140.812 152.020,138.231 151.372 C 137.664 151.230,137.200 150.953,137.200 150.757 C 137.200 150.560,136.840 150.400,136.400 150.400 C 135.960 150.400,135.600 150.237,135.600 150.038 C 135.600 149.838,134.700 149.551,133.600 149.400 C 132.500 149.249,131.600 148.962,131.600 148.762 C 131.600 148.563,131.150 148.400,130.600 148.400 C 130.050 148.400,129.600 148.234,129.600 148.032 C 129.600 147.829,129.062 147.545,128.405 147.401 C 127.747 147.257,127.106 146.972,126.981 146.769 C 126.855 146.566,126.403 146.400,125.976 146.400 C 125.549 146.400,125.200 146.220,125.200 146.000 C 125.200 145.780,124.862 145.600,124.449 145.600 C 124.036 145.600,123.474 145.330,123.200 145.000 C 122.926 144.670,122.454 144.400,122.151 144.400 C 121.848 144.400,121.600 144.220,121.600 144.000 C 121.600 143.780,121.331 143.600,121.003 143.600 C 120.675 143.600,119.925 143.060,119.337 142.400 C 118.749 141.740,118.109 141.200,117.916 141.200 C 117.438 141.200,115.600 139.333,115.600 138.847 C 115.600 138.633,115.150 138.104,114.600 137.671 C 114.050 137.239,113.600 136.669,113.600 136.404 C 113.600 135.804,112.338 133.499,111.800 133.115 C 111.266 132.734,111.267 121.266,111.801 120.885 C 112.259 120.559,113.032 119.022,113.402 117.700 C 113.540 117.205,113.822 116.800,114.027 116.800 C 114.232 116.800,114.400 116.530,114.400 116.200 C 114.400 115.870,114.568 115.600,114.773 115.600 C 114.978 115.600,115.266 115.222,115.413 114.761 C 115.710 113.823,118.587 110.800,119.182 110.800 C 119.392 110.800,119.992 110.372,120.516 109.848 C 121.039 109.324,121.903 108.760,122.434 108.594 C 122.965 108.428,123.490 108.172,123.600 108.025 C 123.974 107.526,126.718 106.400,127.560 106.400 C 128.022 106.400,128.400 106.220,128.400 106.000 C 128.400 105.780,128.850 105.600,129.400 105.600 C 129.950 105.600,130.400 105.430,130.400 105.223 C 130.400 104.339,151.220 104.259,151.514 105.142 M193.829 106.171 C 194.143 106.486,194.400 107.116,194.400 107.571 C 194.400 108.027,194.559 108.400,194.754 108.400 C 194.949 108.400,195.232 109.390,195.383 110.600 C 195.534 111.810,195.825 112.800,196.029 112.800 C 196.233 112.800,196.400 113.430,196.400 114.200 C 196.400 114.970,196.563 115.600,196.762 115.600 C 196.962 115.600,197.249 116.500,197.400 117.600 C 197.551 118.700,197.838 119.600,198.038 119.600 C 198.237 119.600,198.400 120.230,198.400 121.000 C 198.400 121.770,198.567 122.400,198.771 122.400 C 198.975 122.400,199.266 123.390,199.417 124.600 C 199.568 125.810,199.851 126.800,200.046 126.800 C 200.241 126.800,200.400 127.250,200.400 127.800 C 200.400 128.350,200.557 128.800,200.748 128.800 C 200.940 128.800,201.219 129.880,201.368 131.200 C 201.518 132.520,201.811 133.600,202.020 133.600 C 202.229 133.600,202.400 134.230,202.400 135.000 C 202.400 135.770,202.563 136.400,202.762 136.400 C 202.962 136.400,203.249 137.300,203.400 138.400 C 203.551 139.500,203.838 140.400,204.038 140.400 C 204.237 140.400,204.400 140.940,204.400 141.600 C 204.400 142.260,204.562 142.800,204.759 142.800 C 204.957 142.800,205.245 144.060,205.400 145.600 C 205.555 147.140,205.843 148.400,206.041 148.400 C 206.238 148.400,206.400 148.940,206.400 149.600 C 206.400 150.260,206.559 150.800,206.753 150.800 C 206.947 150.800,207.233 152.330,207.389 154.200 C 207.659 157.448,207.715 157.600,208.636 157.600 C 209.398 157.600,209.600 157.390,209.600 156.600 C 209.600 156.050,209.780 155.600,210.000 155.600 C 210.220 155.600,210.400 154.880,210.400 154.000 C 210.400 153.120,210.565 152.400,210.766 152.400 C 210.967 152.400,211.258 151.050,211.413 149.400 C 211.567 147.750,211.853 146.400,212.047 146.400 C 212.241 146.400,212.400 145.770,212.400 145.000 C 212.400 144.230,212.559 143.600,212.753 143.600 C 212.948 143.600,213.232 142.430,213.385 141.000 C 213.538 139.570,213.829 138.400,214.032 138.400 C 214.234 138.400,214.400 137.961,214.400 137.424 C 214.400 136.887,214.559 136.349,214.753 136.229 C 214.948 136.109,215.230 135.018,215.382 133.805 C 215.534 132.592,215.825 131.600,216.029 131.600 C 216.233 131.600,216.400 130.970,216.400 130.200 C 216.400 129.430,216.559 128.800,216.754 128.800 C 216.949 128.800,217.232 127.810,217.383 126.600 C 217.534 125.390,217.825 124.400,218.029 124.400 C 218.233 124.400,218.400 123.770,218.400 123.000 C 218.400 122.230,218.571 121.600,218.780 121.600 C 218.989 121.600,219.282 120.520,219.432 119.200 C 219.581 117.880,219.860 116.800,220.052 116.800 C 220.243 116.800,220.400 116.260,220.400 115.600 C 220.400 114.940,220.571 114.400,220.780 114.400 C 220.989 114.400,221.282 113.320,221.432 112.000 C 221.581 110.680,221.860 109.600,222.052 109.600 C 222.243 109.600,222.400 109.161,222.400 108.624 C 222.400 108.087,222.580 107.536,222.800 107.400 C 223.020 107.264,223.200 106.803,223.200 106.376 C 223.200 105.627,223.578 105.600,234.200 105.600 C 244.933 105.600,245.200 105.619,245.200 106.400 C 245.200 106.840,245.020 107.200,244.800 107.200 C 244.580 107.200,244.400 107.650,244.400 108.200 C 244.400 108.750,244.243 109.200,244.051 109.200 C 243.859 109.200,243.587 109.920,243.446 110.800 C 243.306 111.680,243.013 112.400,242.795 112.400 C 242.578 112.400,242.400 112.850,242.400 113.400 C 242.400 113.950,242.243 114.400,242.051 114.400 C 241.859 114.400,241.587 115.120,241.446 116.000 C 241.306 116.880,241.013 117.600,240.795 117.600 C 240.578 117.600,240.400 118.050,240.400 118.600 C 240.400 119.150,240.240 119.600,240.045 119.600 C 239.850 119.600,239.569 120.410,239.421 121.400 C 239.272 122.390,238.982 123.200,238.775 123.200 C 238.569 123.200,238.400 123.650,238.400 124.200 C 238.400 124.750,238.237 125.200,238.038 125.200 C 237.838 125.200,237.551 126.100,237.400 127.200 C 237.249 128.300,236.962 129.200,236.762 129.200 C 236.563 129.200,236.400 129.470,236.400 129.800 C 236.400 130.130,236.237 130.400,236.038 130.400 C 235.838 130.400,235.551 131.300,235.400 132.400 C 235.249 133.500,235.006 134.400,234.860 134.400 C 234.464 134.400,233.591 136.547,233.327 138.170 C 233.200 138.957,232.939 139.600,232.748 139.600 C 232.556 139.600,232.400 139.960,232.400 140.400 C 232.400 140.840,232.237 141.200,232.038 141.200 C 231.838 141.200,231.551 142.100,231.400 143.200 C 231.249 144.300,230.962 145.200,230.762 145.200 C 230.563 145.200,230.400 145.470,230.400 145.800 C 230.400 146.130,230.237 146.400,230.038 146.400 C 229.838 146.400,229.551 147.300,229.400 148.400 C 229.249 149.500,229.006 150.400,228.860 150.400 C 228.464 150.400,227.591 152.547,227.327 154.170 C 227.200 154.957,226.939 155.600,226.748 155.600 C 226.556 155.600,226.400 156.050,226.400 156.600 C 226.400 157.150,226.231 157.600,226.025 157.600 C 225.818 157.600,225.528 158.410,225.379 159.400 C 225.231 160.390,224.950 161.200,224.755 161.200 C 224.560 161.200,224.400 161.650,224.400 162.200 C 224.400 162.750,224.222 163.200,224.005 163.200 C 223.787 163.200,223.494 163.920,223.354 164.800 C 223.213 165.680,222.941 166.400,222.749 166.400 C 222.557 166.400,222.400 166.850,222.400 167.400 C 222.400 167.950,222.222 168.400,222.005 168.400 C 221.787 168.400,221.494 169.120,221.354 170.000 C 221.213 170.880,220.941 171.600,220.749 171.600 C 220.557 171.600,220.400 172.050,220.400 172.600 C 220.400 173.150,220.236 173.600,220.035 173.600 C 219.834 173.600,219.542 174.365,219.386 175.300 C 219.230 176.235,218.899 177.132,218.651 177.294 C 217.675 177.930,197.200 177.649,197.200 177.000 C 197.200 176.670,197.020 176.400,196.800 176.400 C 196.580 176.400,196.400 175.950,196.400 175.400 C 196.400 174.850,196.243 174.400,196.051 174.400 C 195.859 174.400,195.587 173.680,195.446 172.800 C 195.306 171.920,195.013 171.200,194.795 171.200 C 194.578 171.200,194.400 170.750,194.400 170.200 C 194.400 169.650,194.240 169.200,194.045 169.200 C 193.850 169.200,193.570 168.394,193.422 167.409 C 193.275 166.424,192.984 165.514,192.777 165.386 C 192.570 165.258,192.400 164.803,192.400 164.376 C 192.400 163.949,192.243 163.600,192.051 163.600 C 191.859 163.600,191.586 162.872,191.444 161.983 C 191.301 161.093,191.023 160.058,190.826 159.683 C 189.906 157.933,189.200 156.003,189.200 155.240 C 189.200 154.778,189.020 154.400,188.800 154.400 C 188.580 154.400,188.400 153.950,188.400 153.400 C 188.400 152.850,188.243 152.400,188.051 152.400 C 187.859 152.400,187.587 151.680,187.446 150.800 C 187.306 149.920,187.013 149.200,186.795 149.200 C 186.578 149.200,186.400 148.750,186.400 148.200 C 186.400 147.650,186.240 147.200,186.045 147.200 C 185.850 147.200,185.570 146.394,185.422 145.409 C 185.275 144.424,184.984 143.514,184.777 143.386 C 184.570 143.258,184.400 142.803,184.400 142.376 C 184.400 141.949,184.243 141.600,184.051 141.600 C 183.859 141.600,183.586 140.872,183.444 139.983 C 183.301 139.093,183.023 138.058,182.826 137.683 C 181.906 135.933,181.200 134.003,181.200 133.240 C 181.200 132.778,181.020 132.400,180.800 132.400 C 180.580 132.400,180.400 131.950,180.400 131.400 C 180.400 130.850,180.243 130.400,180.051 130.400 C 179.859 130.400,179.587 129.680,179.446 128.800 C 179.306 127.920,179.013 127.200,178.795 127.200 C 178.578 127.200,178.400 126.750,178.400 126.200 C 178.400 125.650,178.240 125.200,178.045 125.200 C 177.850 125.200,177.570 124.394,177.422 123.409 C 177.275 122.424,176.984 121.514,176.777 121.386 C 176.570 121.258,176.400 120.803,176.400 120.376 C 176.400 119.949,176.243 119.600,176.051 119.600 C 175.859 119.600,175.586 118.872,175.444 117.983 C 175.301 117.093,175.023 116.058,174.826 115.683 C 173.906 113.933,173.200 112.003,173.200 111.240 C 173.200 110.778,173.020 110.400,172.800 110.400 C 172.580 110.400,172.400 109.965,172.400 109.433 C 172.400 108.902,172.249 108.407,172.063 108.333 C 171.878 108.260,171.613 107.615,171.473 106.900 L 171.220 105.600 182.239 105.600 C 191.255 105.600,193.361 105.704,193.829 106.171 " stroke="none" fill="#040404" fill-rule="evenodd"></path><path id="path1" d="" stroke="none" fill="#080404" fill-rule="evenodd"></path><path id="path2" d="" stroke="none" fill="#080404" fill-rule="evenodd"></path><path id="path3" d="" stroke="none" fill="#080404" fill-rule="evenodd"></path><path id="path4" d="" stroke="none" fill="#080404" fill-rule="evenodd"></path></g></svg>