<?xml version="1.0" standalone="no"?>
<!DOCTYPE svg PUBLIC "-//W3C//DTD SVG 20010904//EN"
 "http://www.w3.org/TR/2001/REC-SVG-20010904/DTD/svg10.dtd">
<svg version="1.0" xmlns="http://www.w3.org/2000/svg"
 width="180.000000pt" height="180.000000pt" viewBox="0 0 180.000000 180.000000"
 preserveAspectRatio="xMidYMid meet">

<g transform="translate(0.000000,180.000000) scale(0.100000,-0.100000)"
fill="#000000" stroke="none">
<path d="M957 1673 c-4 -3 -7 -28 -7 -55 0 -48 1 -49 28 -46 21 2 28 9 30 31
l3 27 205 0 204 0 0 -220 0 -220 -65 0 -65 0 0 -80 0 -80 -140 0 -140 0 0 135
0 135 -30 0 -31 0 3 -157 3 -158 195 -2 195 -3 68 78 67 77 -2 270 -3 270
-256 3 c-140 1 -258 -1 -262 -5z"/>
<path d="M810 1521 c-5 -11 -10 -51 -10 -90 0 -104 -8 -101 239 -101 148 0
210 3 219 12 16 16 16 170 0 186 -9 9 -73 12 -225 12 -200 0 -213 -1 -223 -19z
m147 -35 c-2 -6 -13 -12 -25 -14 -49 -7 -49 -67 0 -74 38 -5 33 -28 -6 -28
-64 0 -96 57 -61 107 21 31 102 38 92 9z m104 14 c4 0 6 -6 3 -14 -3 -8 -13
-12 -25 -9 -27 7 -24 -12 6 -31 46 -30 26 -76 -32 -76 -23 0 -33 5 -33 15 0 9
9 15 25 15 14 0 25 4 25 8 0 5 -11 14 -25 20 -48 22 -17 93 33 76 8 -2 18 -4
23 -4z m81 -41 l14 -42 12 42 c10 31 18 41 33 41 13 0 19 -5 16 -12 -2 -7 -13
-37 -23 -65 -15 -42 -23 -53 -40 -53 -17 0 -26 12 -43 59 -26 71 -26 71 -2 71
14 0 23 -12 33 -41z"/>
<path d="M526 1444 c-30 -30 -12 -64 35 -64 24 0 39 15 39 40 0 13 -30 40 -45
40 -7 0 -21 -7 -29 -16z"/>
<path d="M646 1444 c-31 -30 -13 -67 30 -62 24 2 30 8 32 32 5 43 -32 61 -62
30z"/>
<path d="M404 1416 c-9 -23 -1 -48 19 -60 25 -16 52 4 52 40 0 25 -4 29 -33
32 -22 2 -34 -2 -38 -12z"/>
<path d="M304 1356 c-9 -23 -1 -48 19 -60 25 -16 52 4 52 40 0 25 -4 29 -33
32 -22 2 -34 -2 -38 -12z"/>
<path d="M230 1265 c-25 -30 14 -74 53 -59 41 15 26 74 -18 74 -12 0 -28 -7
-35 -15z"/>
<path d="M196 1164 c-9 -8 -16 -22 -16 -29 0 -17 27 -45 44 -45 32 0 48 54 24
78 -16 16 -33 15 -52 -4z"/>
<path d="M190 1045 c-7 -9 -10 -25 -6 -40 6 -22 11 -26 39 -23 25 2 33 8 35
26 7 44 -41 70 -68 37z"/>
<path d="M230 936 c-6 -8 -10 -25 -8 -38 2 -18 10 -24 35 -26 28 -3 33 1 39
23 11 45 -37 75 -66 41z"/>
<path d="M297 844 c-12 -13 -8 -51 8 -64 26 -22 67 3 63 38 -2 22 -9 28 -33
30 -17 2 -34 0 -38 -4z"/>
<path d="M394 776 c-3 -8 -4 -25 -2 -38 2 -18 9 -23 32 -23 36 0 56 27 40 53
-14 22 -62 28 -70 8z"/>
<path d="M504 746 c-9 -23 -1 -48 19 -60 25 -16 52 4 52 40 0 25 -4 29 -33 32
-22 2 -34 -2 -38 -12z"/>
<path d="M627 753 c-4 -3 -7 -19 -7 -34 0 -22 6 -30 26 -35 35 -9 59 15 50 50
-5 20 -13 26 -35 26 -15 0 -31 -3 -34 -7z"/>
<path d="M740 745 c-10 -12 -10 -21 -2 -40 16 -34 58 -34 74 0 14 30 -3 55
-37 55 -12 0 -28 -7 -35 -15z"/>
<path d="M862 748 c-30 -30 -1 -75 43 -64 22 6 26 11 23 39 -2 26 -8 33 -28
35 -14 2 -31 -3 -38 -10z"/>
<path d="M974 746 c-9 -23 -1 -48 19 -60 25 -16 52 4 52 40 0 25 -4 29 -33 32
-22 2 -34 -2 -38 -12z"/>
<path d="M1097 753 c-4 -3 -7 -19 -7 -34 0 -22 6 -30 25 -35 43 -11 73 34 43
64 -13 13 -50 16 -61 5z"/>
<path d="M1210 745 c-10 -12 -10 -21 -2 -40 16 -34 58 -34 74 0 14 30 -3 55
-37 55 -12 0 -28 -7 -35 -15z"/>
<path d="M1324 726 c-9 -23 -1 -48 19 -60 25 -16 52 4 52 40 0 25 -4 29 -33
32 -22 2 -34 -2 -38 -12z"/>
<path d="M1424 666 c-9 -23 -1 -48 19 -60 25 -16 52 4 52 40 0 25 -4 29 -33
32 -22 2 -34 -2 -38 -12z"/>
<path d="M1510 586 c-6 -8 -10 -25 -8 -38 2 -19 9 -23 38 -23 29 0 36 4 38 23
4 28 -14 52 -38 52 -10 0 -23 -7 -30 -14z"/>
<path d="M1550 476 c-6 -8 -10 -25 -8 -38 2 -19 9 -23 38 -23 29 0 36 4 38 23
4 28 -14 52 -38 52 -10 0 -23 -7 -30 -14z"/>
<path d="M1554 356 c-3 -8 -4 -25 -2 -38 2 -18 9 -23 32 -23 36 0 56 27 40 53
-14 22 -62 28 -70 8z"/>
<path d="M1522 248 c-29 -29 -3 -72 40 -66 19 2 23 9 23 38 0 30 -4 35 -25 38
-14 2 -31 -3 -38 -10z"/>
<path d="M1458 159 c-44 -25 -3 -93 42 -69 26 14 26 56 1 70 -23 12 -22 12
-43 -1z"/>
<path d="M1354 86 c-3 -8 -4 -25 -2 -38 2 -18 9 -23 32 -23 36 0 56 27 40 53
-14 22 -62 28 -70 8z"/>
<path d="M543 64 c-7 -3 -13 -19 -13 -35 0 -27 3 -29 35 -29 24 0 38 5 42 16
13 33 -28 63 -64 48z"/>
<path d="M657 64 c-4 -4 -7 -20 -7 -36 0 -25 3 -28 35 -28 39 0 55 21 38 49
-11 17 -54 27 -66 15z"/>
<path d="M771 56 c-23 -28 -9 -51 32 -54 38 -3 38 -3 35 30 -2 27 -8 34 -29
36 -14 2 -31 -4 -38 -12z"/>
<path d="M892 58 c-7 -7 -12 -22 -12 -35 0 -20 5 -23 40 -23 35 0 40 3 40 23
0 41 -41 62 -68 35z"/>
<path d="M1013 64 c-7 -3 -13 -19 -13 -35 0 -27 3 -29 35 -29 24 0 38 5 42 16
13 33 -28 63 -64 48z"/>
<path d="M1120 50 c-18 -33 -5 -50 35 -50 24 0 38 5 42 16 16 43 -55 74 -77
34z"/>
<path d="M1241 56 c-23 -28 -9 -51 32 -54 38 -3 38 -3 35 30 -2 27 -8 34 -29
36 -14 2 -31 -4 -38 -12z"/>
</g>
</svg>
