<?xml version="1.0" standalone="no"?>
<!DOCTYPE svg PUBLIC "-//W3C//DTD SVG 20010904//EN"
 "http://www.w3.org/TR/2001/REC-SVG-20010904/DTD/svg10.dtd">
<svg version="1.0" xmlns="http://www.w3.org/2000/svg"
 width="51.000000pt" height="40.000000pt" viewBox="0 0 51.000000 40.000000"
 preserveAspectRatio="xMidYMid meet">

<g transform="translate(0.000000,40.000000) scale(0.100000,-0.100000)"
fill="#000000" stroke="none">
<path d="M205 386 c-30 -13 -85 -69 -85 -86 0 -4 -15 -11 -33 -14 -39 -7 -73
-39 -82 -78 -6 -21 -4 -28 8 -28 8 0 18 11 21 25 7 28 58 59 85 50 14 -4 21 4
33 34 34 86 133 105 195 38 17 -19 45 -38 61 -42 35 -7 56 -28 69 -70 11 -35
27 -36 31 -1 4 30 -49 93 -87 103 -14 3 -32 15 -39 25 -18 25 -86 58 -119 58
-15 -1 -42 -7 -58 -14z"/>
<path d="M0 145 c0 -13 35 -15 255 -15 220 0 255 2 255 15 0 13 -35 15 -255
15 -220 0 -255 -2 -255 -15z"/>
<path d="M55 90 c-16 -26 14 -30 204 -30 154 0 201 3 210 13 6 8 8 17 4 20
-11 11 -411 8 -418 -3z"/>
<path d="M82 18 c3 -9 27 -13 76 -13 99 0 97 19 -1 23 -61 2 -78 0 -75 -10z"/>
<path d="M273 18 c2 -9 30 -13 92 -13 62 0 90 4 93 13 3 9 -20 12 -93 12 -73
0 -96 -3 -92 -12z"/>
</g>
</svg>
