<?xml version="1.0" standalone="no"?>
<!DOCTYPE svg PUBLIC "-//W3C//DTD SVG 20010904//EN"
 "http://www.w3.org/TR/2001/REC-SVG-20010904/DTD/svg10.dtd">
<svg version="1.0" xmlns="http://www.w3.org/2000/svg"
 width="40.000000pt" height="40.000000pt" viewBox="0 0 40.000000 40.000000"
 preserveAspectRatio="xMidYMid meet">
<metadata>
Created by potrace 1.15, written by Peter Selinger 2001-2017
</metadata>
<g transform="translate(0.000000,40.000000) scale(0.100000,-0.100000)"
fill="#000000" stroke="none">
<path d="M48 306 c-15 -11 -18 -30 -18 -113 0 -64 4 -103 12 -111 17 -17 299
-17 316 0 8 8 12 47 12 111 0 83 -3 102 -17 113 -25 19 -281 19 -305 0z m93
-111 c30 -19 56 -35 59 -35 3 0 29 16 59 35 29 19 55 35 57 35 2 0 4 -29 4
-65 l0 -65 -120 0 -120 0 0 65 c0 36 2 65 4 65 2 0 28 -16 57 -35z"/>
</g>
</svg>
