<svg id="svg" xmlns="http://www.w3.org/2000/svg" xmlns:xlink="http://www.w3.org/1999/xlink" width="400" height="320" viewBox="0, 0, 400,320"><g id="svgg"><path id="path0" d="M124.480 0.320 C 124.480 0.496,124.192 0.640,123.840 0.640 C 123.413 0.640,123.200 0.853,123.200 1.280 C 123.200 1.707,122.987 1.920,122.560 1.920 C 122.133 1.920,121.920 2.133,121.920 2.560 C 121.920 2.987,121.707 3.200,121.280 3.200 C 120.867 3.200,120.640 3.413,120.640 3.803 C 120.640 4.136,120.354 4.480,120.000 4.573 C 119.370 4.737,119.360 5.009,119.360 22.050 L 119.360 39.360 106.077 39.360 C 93.190 39.360,92.777 39.379,92.246 40.000 C 91.934 40.364,91.302 40.640,90.779 40.640 C 90.129 40.640,89.811 40.827,89.693 41.280 C 89.600 41.634,89.256 41.920,88.923 41.920 C 88.533 41.920,88.320 42.147,88.320 42.560 C 88.320 43.081,88.107 43.200,87.170 43.200 C 86.289 43.200,85.981 43.350,85.853 43.840 C 85.760 44.194,85.416 44.480,85.083 44.480 C 84.706 44.480,84.480 44.706,84.480 45.083 C 84.480 45.416,84.194 45.760,83.840 45.853 C 83.350 45.981,83.200 46.289,83.200 47.170 C 83.200 48.107,83.081 48.320,82.560 48.320 C 82.147 48.320,81.920 48.533,81.920 48.923 C 81.920 49.256,81.634 49.600,81.280 49.693 C 80.827 49.811,80.640 50.129,80.640 50.779 C 80.640 51.302,80.364 51.934,80.000 52.246 C 79.379 52.777,79.360 53.190,79.360 66.077 L 79.360 79.360 62.050 79.360 C 45.009 79.360,44.737 79.370,44.573 80.000 C 44.480 80.354,44.136 80.640,43.803 80.640 C 43.413 80.640,43.200 80.867,43.200 81.280 C 43.200 81.707,42.987 81.920,42.560 81.920 C 42.133 81.920,41.920 82.133,41.920 82.560 C 41.920 82.987,41.707 83.200,41.280 83.200 C 40.867 83.200,40.640 83.413,40.640 83.803 C 40.640 84.136,40.354 84.480,40.000 84.573 C 38.877 84.866,39.066 95.680,40.194 95.680 C 40.439 95.680,40.640 95.968,40.640 96.320 C 40.640 96.747,40.853 96.960,41.280 96.960 C 41.644 96.960,41.920 97.173,41.920 97.455 C 41.920 98.095,43.345 99.520,43.985 99.520 C 44.257 99.520,44.480 99.736,44.480 100.000 C 44.480 100.344,44.831 100.480,45.723 100.480 C 46.700 100.480,47.001 100.618,47.134 101.126 C 47.301 101.764,47.488 101.771,63.332 101.686 L 79.360 101.600 79.360 113.680 L 79.360 125.760 62.243 125.760 C 45.472 125.760,45.117 125.773,44.726 126.400 C 44.506 126.752,44.073 127.040,43.763 127.040 C 43.413 127.040,43.200 127.282,43.200 127.680 C 43.200 128.107,42.987 128.320,42.560 128.320 C 42.133 128.320,41.920 128.533,41.920 128.960 C 41.920 129.387,41.707 129.600,41.280 129.600 C 40.928 129.600,40.640 129.784,40.640 130.009 C 40.640 130.234,40.343 130.672,39.979 130.984 C 38.934 131.878,39.154 142.024,40.240 143.035 C 40.636 143.403,40.960 143.843,40.960 144.012 C 40.960 144.182,41.159 144.320,41.403 144.320 C 41.646 144.320,41.921 144.608,42.013 144.960 C 42.141 145.450,42.449 145.600,43.330 145.600 C 44.267 145.600,44.480 145.719,44.480 146.240 C 44.480 146.667,44.693 146.880,45.120 146.880 C 45.472 146.880,45.760 147.081,45.760 147.326 C 45.760 148.121,46.561 148.160,63.066 148.160 L 79.360 148.160 79.360 159.992 L 79.360 171.823 62.854 171.912 C 47.563 171.993,46.318 172.041,45.939 172.560 C 45.714 172.868,45.293 173.120,45.005 173.120 C 44.693 173.120,44.480 173.380,44.480 173.760 C 44.480 174.281,44.267 174.400,43.330 174.400 C 42.449 174.400,42.141 174.550,42.013 175.040 C 41.921 175.392,41.731 175.680,41.590 175.680 C 41.450 175.680,40.891 176.284,40.348 177.023 L 39.360 178.366 39.360 183.423 C 39.360 187.893,39.428 188.548,39.944 189.064 C 40.266 189.386,40.621 189.890,40.734 190.184 C 40.847 190.479,41.144 190.720,41.393 190.720 C 41.642 190.720,41.921 191.008,42.013 191.360 C 42.105 191.712,42.410 192.000,42.690 192.000 C 42.971 192.000,43.200 192.220,43.200 192.488 C 43.200 192.756,43.546 193.107,43.969 193.268 C 44.392 193.429,44.832 193.713,44.948 193.900 C 45.092 194.133,50.541 194.240,62.259 194.240 L 79.360 194.240 79.360 206.320 L 79.360 218.400 63.332 218.314 C 47.488 218.229,47.301 218.236,47.134 218.874 C 47.001 219.382,46.700 219.520,45.723 219.520 C 44.693 219.520,44.480 219.630,44.480 220.160 C 44.480 220.625,44.267 220.800,43.698 220.800 C 42.857 220.800,41.920 221.850,41.920 222.791 C 41.920 223.147,41.680 223.360,41.280 223.360 C 40.928 223.360,40.640 223.541,40.640 223.763 C 40.640 223.985,40.352 224.346,40.000 224.566 C 39.010 225.184,39.010 235.169,40.000 235.427 C 40.354 235.520,40.640 235.864,40.640 236.197 C 40.640 236.587,40.867 236.800,41.280 236.800 C 41.707 236.800,41.920 237.013,41.920 237.440 C 41.920 237.867,42.133 238.080,42.560 238.080 C 42.987 238.080,43.200 238.293,43.200 238.720 C 43.200 239.133,43.413 239.360,43.803 239.360 C 44.136 239.360,44.480 239.646,44.573 240.000 C 44.737 240.630,45.009 240.640,62.050 240.640 L 79.360 240.640 79.360 253.920 C 79.360 266.773,79.381 267.221,80.000 267.840 C 80.352 268.192,80.640 268.835,80.640 269.269 C 80.640 269.730,80.906 270.200,81.280 270.400 C 81.632 270.588,81.920 271.025,81.920 271.371 C 81.920 271.787,82.137 272.000,82.560 272.000 C 83.078 272.000,83.200 272.213,83.200 273.120 C 83.200 274.027,83.322 274.240,83.840 274.240 C 84.267 274.240,84.480 274.453,84.480 274.880 C 84.480 275.307,84.693 275.520,85.120 275.520 C 85.547 275.520,85.760 275.733,85.760 276.160 C 85.760 276.693,85.973 276.800,87.040 276.800 C 88.107 276.800,88.320 276.907,88.320 277.440 C 88.320 277.853,88.533 278.080,88.923 278.080 C 89.256 278.080,89.600 278.366,89.693 278.720 C 89.814 279.184,90.129 279.360,90.839 279.360 C 91.490 279.360,91.932 279.574,92.160 280.000 C 92.494 280.624,92.830 280.640,105.931 280.640 L 119.360 280.640 119.360 297.950 C 119.360 314.991,119.370 315.263,120.000 315.427 C 120.354 315.520,120.640 315.864,120.640 316.197 C 120.640 316.587,120.867 316.800,121.280 316.800 C 121.707 316.800,121.920 317.013,121.920 317.440 C 121.920 317.867,122.133 318.080,122.560 318.080 C 122.987 318.080,123.200 318.293,123.200 318.720 C 123.200 319.147,123.413 319.360,123.840 319.360 C 124.192 319.360,124.480 319.504,124.480 319.680 C 124.480 319.881,126.560 320.000,130.080 320.000 C 133.600 320.000,135.680 319.881,135.680 319.680 C 135.680 319.504,135.968 319.360,136.320 319.360 C 136.747 319.360,136.960 319.147,136.960 318.720 C 136.960 318.293,137.173 318.080,137.600 318.080 C 138.027 318.080,138.240 317.867,138.240 317.440 C 138.240 317.013,138.453 316.800,138.880 316.800 C 139.307 316.800,139.520 316.587,139.520 316.160 C 139.520 315.804,139.733 315.520,140.000 315.520 C 140.344 315.520,140.480 315.169,140.480 314.277 C 140.480 313.304,140.619 312.998,141.120 312.867 C 141.917 312.659,142.153 281.172,141.360 280.852 C 141.140 280.763,146.540 280.679,153.360 280.665 L 165.760 280.640 165.760 297.950 C 165.760 314.991,165.770 315.263,166.400 315.427 C 166.754 315.520,167.040 315.864,167.040 316.197 C 167.040 316.587,167.267 316.800,167.680 316.800 C 168.107 316.800,168.320 317.013,168.320 317.440 C 168.320 317.867,168.533 318.080,168.960 318.080 C 169.387 318.080,169.600 318.293,169.600 318.720 C 169.600 319.076,169.813 319.360,170.080 319.360 C 170.344 319.360,170.560 319.504,170.560 319.680 C 170.560 319.882,172.815 320.000,176.685 320.000 L 182.811 320.000 183.678 319.092 C 184.155 318.593,184.783 318.094,185.073 317.982 C 185.425 317.847,185.600 317.404,185.600 316.650 C 185.600 315.733,185.721 315.520,186.240 315.520 C 186.596 315.520,186.880 315.307,186.880 315.040 C 186.880 314.776,187.168 314.272,187.520 313.920 C 188.143 313.297,188.160 312.853,188.160 296.960 L 188.160 280.640 200.000 280.640 L 211.840 280.640 211.840 296.934 C 211.840 313.439,211.879 314.240,212.674 314.240 C 212.919 314.240,213.120 314.528,213.120 314.880 C 213.120 315.232,213.408 315.808,213.760 316.160 C 214.112 316.512,214.400 317.088,214.400 317.440 C 214.400 317.867,214.613 318.080,215.040 318.080 C 215.412 318.080,215.680 318.293,215.680 318.590 C 215.680 318.870,215.968 319.175,216.320 319.267 C 216.672 319.359,216.960 319.562,216.960 319.717 C 216.960 319.873,219.768 320.000,223.200 320.000 C 226.632 320.000,229.440 319.873,229.440 319.717 C 229.440 319.562,229.728 319.359,230.080 319.267 C 230.432 319.175,230.720 318.887,230.720 318.627 C 230.720 318.367,231.008 318.079,231.360 317.987 C 231.712 317.895,232.000 317.590,232.000 317.310 C 232.000 317.029,232.206 316.800,232.458 316.800 C 232.711 316.800,233.018 316.483,233.141 316.095 C 233.264 315.707,233.561 315.193,233.802 314.952 C 234.162 314.593,234.240 311.480,234.240 297.577 L 234.240 280.640 246.240 280.640 L 258.240 280.640 258.240 296.740 C 258.240 312.397,258.258 312.858,258.880 313.526 C 259.232 313.904,259.520 314.507,259.520 314.867 C 259.520 315.300,259.729 315.520,260.141 315.520 C 260.627 315.520,260.783 315.780,260.861 316.720 C 260.955 317.855,261.025 317.925,262.160 318.019 C 263.100 318.097,263.360 318.253,263.360 318.739 C 263.360 319.081,263.576 319.360,263.840 319.360 C 264.104 319.360,264.320 319.504,264.320 319.680 C 264.320 319.881,266.400 320.000,269.920 320.000 C 273.440 320.000,275.520 319.881,275.520 319.680 C 275.520 319.504,275.808 319.360,276.160 319.360 C 276.587 319.360,276.800 319.147,276.800 318.720 C 276.800 318.293,277.013 318.080,277.440 318.080 C 277.867 318.080,278.080 317.867,278.080 317.440 C 278.080 317.013,278.293 316.800,278.720 316.800 C 279.133 316.800,279.360 316.587,279.360 316.197 C 279.360 315.864,279.646 315.520,280.000 315.427 C 280.630 315.263,280.640 314.991,280.640 297.950 L 280.640 280.640 294.077 280.640 C 307.168 280.640,307.525 280.623,307.914 280.000 C 308.134 279.648,308.567 279.360,308.877 279.360 C 309.227 279.360,309.440 279.118,309.440 278.720 C 309.440 278.187,309.653 278.080,310.720 278.080 C 311.787 278.080,312.000 277.973,312.000 277.440 C 312.000 276.938,312.213 276.800,312.990 276.800 C 313.695 276.800,314.026 276.624,314.140 276.190 C 314.227 275.854,314.574 275.507,314.910 275.420 C 315.245 275.332,315.520 275.047,315.520 274.787 C 315.520 274.527,315.808 274.239,316.160 274.147 C 316.626 274.025,316.800 273.711,316.800 272.990 C 316.800 272.213,316.938 272.000,317.440 272.000 C 317.973 272.000,318.080 271.787,318.080 270.720 C 318.080 269.653,318.187 269.440,318.720 269.440 C 319.141 269.440,319.360 269.227,319.360 268.816 C 319.360 268.473,319.612 268.051,319.920 267.879 C 320.437 267.589,320.487 266.537,320.570 254.103 L 320.660 240.640 338.090 240.640 C 355.307 240.640,355.520 240.632,355.520 240.000 C 355.520 239.573,355.733 239.360,356.160 239.360 C 356.587 239.360,356.800 239.147,356.800 238.720 C 356.800 238.293,357.013 238.080,357.440 238.080 C 357.867 238.080,358.080 237.867,358.080 237.440 C 358.080 237.013,358.293 236.800,358.720 236.800 C 359.133 236.800,359.360 236.587,359.360 236.197 C 359.360 235.864,359.646 235.520,360.000 235.427 C 360.991 235.168,360.991 225.170,360.000 224.640 C 359.648 224.452,359.360 224.087,359.360 223.829 C 359.360 223.571,359.072 223.360,358.720 223.360 C 358.293 223.360,358.080 223.147,358.080 222.720 C 358.080 222.293,357.867 222.080,357.440 222.080 C 357.013 222.080,356.800 221.867,356.800 221.440 C 356.800 221.013,356.587 220.800,356.160 220.800 C 355.733 220.800,355.520 220.587,355.520 220.160 C 355.520 219.627,355.307 219.520,354.240 219.520 C 353.359 219.520,352.960 219.381,352.960 219.074 C 352.960 218.280,352.160 218.240,336.294 218.240 L 320.640 218.240 320.640 206.240 L 320.640 194.240 337.200 194.245 C 354.879 194.251,356.735 194.076,356.788 192.400 C 356.794 192.180,357.029 192.000,357.310 192.000 C 357.590 192.000,357.894 191.717,357.985 191.371 C 358.075 191.024,358.422 190.655,358.755 190.549 C 359.088 190.443,359.360 190.151,359.360 189.898 C 359.360 189.646,359.648 189.152,360.000 188.800 C 360.987 187.813,360.987 178.240,360.000 178.240 C 359.573 178.240,359.360 178.027,359.360 177.600 C 359.360 177.180,359.147 176.960,358.739 176.960 C 358.253 176.960,358.097 176.700,358.019 175.760 C 357.925 174.625,357.855 174.555,356.720 174.461 C 355.780 174.383,355.520 174.227,355.520 173.741 C 355.520 173.333,355.300 173.120,354.880 173.120 C 354.528 173.120,354.240 172.921,354.240 172.677 C 354.240 171.902,353.116 171.849,336.720 171.844 L 320.640 171.840 320.640 160.000 L 320.640 148.160 336.757 148.160 C 352.389 148.160,352.898 148.141,353.687 147.520 C 354.135 147.168,354.730 146.880,355.010 146.880 C 355.307 146.880,355.520 146.612,355.520 146.240 C 355.520 145.776,355.733 145.600,356.297 145.600 C 357.291 145.600,358.080 144.811,358.080 143.817 C 358.080 143.253,358.256 143.040,358.720 143.040 C 359.147 143.040,359.360 142.827,359.360 142.400 C 359.360 141.973,359.573 141.760,360.000 141.760 C 360.612 141.760,360.640 141.547,360.640 136.826 C 360.640 131.644,360.533 130.880,359.806 130.880 C 359.561 130.880,359.360 130.592,359.360 130.240 C 359.360 129.813,359.147 129.600,358.720 129.600 C 358.293 129.600,358.080 129.387,358.080 128.960 C 358.080 128.533,357.867 128.320,357.440 128.320 C 357.013 128.320,356.800 128.107,356.800 127.680 C 356.800 127.267,356.587 127.040,356.197 127.040 C 355.864 127.040,355.520 126.754,355.427 126.400 C 355.263 125.770,354.991 125.760,337.950 125.760 L 320.640 125.760 320.650 113.200 C 320.656 104.511,320.760 100.813,320.986 101.200 C 321.527 102.130,350.900 102.054,352.087 101.120 C 352.535 100.768,353.202 100.480,353.570 100.480 C 353.952 100.480,354.240 100.274,354.240 100.000 C 354.240 99.653,354.596 99.520,355.520 99.520 C 356.587 99.520,356.800 99.413,356.800 98.880 C 356.800 98.453,357.013 98.240,357.440 98.240 C 357.867 98.240,358.080 98.027,358.080 97.600 C 358.080 97.173,358.293 96.960,358.720 96.960 C 359.133 96.960,359.360 96.747,359.360 96.357 C 359.360 96.024,359.646 95.680,360.000 95.587 C 360.609 95.428,360.640 95.151,360.640 89.950 C 360.640 84.693,360.615 84.480,360.000 84.480 C 359.531 84.480,359.360 84.267,359.360 83.680 C 359.360 83.240,359.097 82.617,358.776 82.296 C 358.454 81.974,358.099 81.470,357.986 81.176 C 357.873 80.881,357.618 80.640,357.421 80.640 C 357.223 80.640,356.695 80.352,356.247 80.000 C 355.674 79.549,354.949 79.360,353.794 79.360 C 352.501 79.360,352.069 79.225,351.754 78.720 C 351.364 78.094,351.008 78.080,335.997 78.080 L 320.640 78.080 320.636 65.840 C 320.631 53.273,320.563 52.160,319.803 52.160 C 319.544 52.160,319.360 51.828,319.360 51.360 C 319.360 50.773,319.189 50.560,318.720 50.560 C 318.202 50.560,318.080 50.347,318.080 49.440 C 318.080 48.533,317.958 48.320,317.440 48.320 C 316.924 48.320,316.800 48.107,316.800 47.222 C 316.800 46.404,316.636 46.071,316.160 45.920 C 315.808 45.808,315.520 45.497,315.520 45.228 C 315.520 44.960,315.245 44.668,314.910 44.580 C 314.574 44.493,314.227 44.146,314.140 43.810 C 314.028 43.382,313.695 43.200,313.027 43.200 C 312.344 43.200,312.027 43.019,311.907 42.560 C 311.779 42.070,311.471 41.920,310.590 41.920 C 309.653 41.920,309.440 41.801,309.440 41.280 C 309.440 40.900,309.227 40.640,308.915 40.640 C 308.627 40.640,308.206 40.388,307.981 40.080 C 307.605 39.565,306.500 39.513,294.106 39.430 L 280.640 39.340 280.640 22.040 C 280.640 5.009,280.630 4.737,280.000 4.573 C 279.646 4.480,279.360 4.136,279.360 3.803 C 279.360 3.413,279.133 3.200,278.720 3.200 C 278.293 3.200,278.080 2.987,278.080 2.560 C 278.080 2.133,277.867 1.920,277.440 1.920 C 277.013 1.920,276.800 1.707,276.800 1.280 C 276.800 0.853,276.587 0.640,276.160 0.640 C 275.808 0.640,275.520 0.496,275.520 0.320 C 275.520 0.118,273.331 0.000,269.592 0.000 L 263.664 0.000 263.472 0.960 C 263.326 1.692,263.106 1.920,262.546 1.920 C 261.198 1.920,260.800 2.256,260.800 3.394 C 260.800 4.267,260.674 4.480,260.160 4.480 C 259.733 4.480,259.520 4.693,259.520 5.120 C 259.520 5.472,259.232 6.048,258.880 6.400 C 258.257 7.023,258.240 7.467,258.240 23.200 L 258.240 39.360 246.240 39.360 L 234.240 39.360 234.243 22.800 C 234.246 5.132,234.064 3.200,232.404 3.200 C 232.182 3.200,232.000 2.971,232.000 2.690 C 232.000 2.410,231.712 2.105,231.360 2.013 C 231.008 1.921,230.720 1.633,230.720 1.373 C 230.720 1.113,230.432 0.825,230.080 0.733 C 229.728 0.641,229.440 0.438,229.440 0.283 C 229.440 0.127,226.632 0.000,223.200 0.000 C 219.768 0.000,216.960 0.127,216.960 0.283 C 216.960 0.438,216.672 0.641,216.320 0.733 C 215.968 0.825,215.680 1.113,215.680 1.373 C 215.680 1.633,215.392 1.921,215.040 2.013 C 214.688 2.105,214.400 2.410,214.400 2.690 C 214.400 2.971,214.112 3.488,213.760 3.840 C 213.408 4.192,213.120 4.768,213.120 5.120 C 213.120 5.472,212.921 5.760,212.677 5.760 C 211.902 5.760,211.849 6.884,211.844 23.280 L 211.840 39.360 200.000 39.360 L 188.160 39.360 188.160 23.040 C 188.160 7.147,188.143 6.703,187.520 6.080 C 187.168 5.728,186.880 5.224,186.880 4.960 C 186.880 4.693,186.596 4.480,186.240 4.480 C 185.721 4.480,185.600 4.267,185.600 3.350 C 185.600 2.596,185.425 2.153,185.073 2.018 C 184.783 1.906,184.155 1.407,183.678 0.908 L 182.811 0.000 176.685 0.000 C 172.815 0.000,170.560 0.118,170.560 0.320 C 170.560 0.496,170.344 0.640,170.080 0.640 C 169.813 0.640,169.600 0.924,169.600 1.280 C 169.600 1.707,169.387 1.920,168.960 1.920 C 168.533 1.920,168.320 2.133,168.320 2.560 C 168.320 2.987,168.107 3.200,167.680 3.200 C 167.267 3.200,167.040 3.413,167.040 3.803 C 167.040 4.136,166.754 4.480,166.400 4.573 C 165.770 4.737,165.760 5.009,165.760 22.050 L 165.760 39.360 153.680 39.360 L 141.600 39.360 141.686 23.332 C 141.771 7.488,141.764 7.301,141.126 7.134 C 140.618 7.001,140.480 6.700,140.480 5.723 C 140.480 4.831,140.344 4.480,140.000 4.480 C 139.733 4.480,139.520 4.196,139.520 3.840 C 139.520 3.413,139.307 3.200,138.880 3.200 C 138.453 3.200,138.240 2.987,138.240 2.560 C 138.240 2.133,138.027 1.920,137.600 1.920 C 137.173 1.920,136.960 1.707,136.960 1.280 C 136.960 0.853,136.747 0.640,136.320 0.640 C 135.968 0.640,135.680 0.496,135.680 0.320 C 135.680 0.119,133.600 0.000,130.080 0.000 C 126.560 0.000,124.480 0.119,124.480 0.320 M190.720 62.400 C 190.720 62.933,190.933 63.040,192.000 63.040 C 193.067 63.040,193.280 63.147,193.280 63.680 C 193.280 64.107,193.493 64.320,193.920 64.320 C 194.441 64.320,194.560 64.533,194.560 65.470 C 194.560 66.351,194.710 66.659,195.200 66.787 C 195.805 66.945,195.840 67.224,195.840 71.877 L 195.840 76.800 194.560 76.800 C 193.636 76.800,193.280 76.667,193.280 76.320 C 193.280 75.968,192.915 75.840,191.917 75.840 C 190.901 75.840,190.452 75.677,190.154 75.200 C 189.933 74.846,189.408 74.560,188.979 74.560 C 188.484 74.560,188.130 74.328,188.000 73.920 C 187.809 73.318,187.516 73.280,183.018 73.280 C 178.667 73.280,178.183 73.337,177.600 73.920 C 177.248 74.272,176.672 74.560,176.320 74.560 C 175.893 74.560,175.680 74.773,175.680 75.200 C 175.680 75.627,175.467 75.840,175.040 75.840 C 174.277 75.840,174.093 78.840,174.800 79.756 C 175.426 80.566,177.920 80.634,177.920 79.840 C 177.920 79.164,179.508 79.221,180.016 79.916 C 180.330 80.345,181.016 80.500,183.012 80.590 C 185.297 80.694,185.600 80.779,185.600 81.314 C 185.600 81.707,185.825 81.920,186.240 81.920 C 186.592 81.920,187.168 82.208,187.520 82.560 C 187.940 82.980,188.587 83.200,189.403 83.200 C 190.376 83.200,190.682 83.339,190.813 83.840 C 190.955 84.384,191.249 84.480,192.770 84.480 C 194.195 84.480,194.560 84.584,194.560 84.990 C 194.560 85.270,194.848 85.575,195.200 85.667 C 195.824 85.830,195.840 86.104,195.840 96.357 C 195.840 106.667,195.827 106.880,195.200 106.880 C 194.667 106.880,194.560 107.093,194.560 108.160 C 194.560 109.227,194.453 109.440,193.920 109.440 C 193.493 109.440,193.280 109.653,193.280 110.080 C 193.280 110.613,193.067 110.720,192.000 110.720 C 191.147 110.720,190.507 110.933,190.080 111.360 C 189.550 111.890,189.013 112.000,186.957 112.000 C 184.821 112.000,184.418 111.911,184.074 111.360 C 183.692 110.748,183.328 110.720,175.680 110.720 C 168.032 110.720,167.668 110.748,167.286 111.360 C 167.066 111.712,166.633 112.000,166.323 112.000 C 165.973 112.000,165.760 112.242,165.760 112.640 C 165.760 113.173,165.547 113.280,164.480 113.280 C 163.413 113.280,163.200 113.387,163.200 113.920 C 163.200 114.347,162.987 114.560,162.560 114.560 C 162.133 114.560,161.920 114.773,161.920 115.200 C 161.920 115.627,161.707 115.840,161.280 115.840 C 160.924 115.840,160.640 116.053,160.640 116.320 C 160.640 116.584,160.411 116.800,160.130 116.800 C 159.850 116.800,159.548 117.075,159.460 117.410 C 159.373 117.746,159.026 118.093,158.690 118.180 C 158.335 118.273,158.080 118.620,158.080 119.010 C 158.080 119.379,157.881 119.680,157.637 119.680 C 157.151 119.680,156.811 120.630,156.804 122.010 C 156.802 122.503,156.586 122.982,156.320 123.084 C 155.915 123.240,155.840 124.307,155.840 129.954 C 155.840 135.684,155.909 136.640,156.320 136.640 C 156.674 136.640,156.800 137.010,156.800 138.054 C 156.800 139.749,157.043 140.480,157.606 140.480 C 157.844 140.480,158.117 141.031,158.240 141.760 C 158.373 142.547,158.630 143.040,158.908 143.040 C 159.157 143.040,159.360 143.269,159.360 143.550 C 159.360 143.830,159.648 144.135,160.000 144.227 C 160.354 144.320,160.640 144.664,160.640 144.997 C 160.640 145.387,160.867 145.600,161.280 145.600 C 161.641 145.600,161.920 145.813,161.920 146.090 C 161.920 146.360,162.161 146.673,162.456 146.786 C 162.750 146.899,163.254 147.254,163.576 147.576 C 163.968 147.968,164.632 148.160,165.600 148.160 C 166.827 148.160,167.040 148.255,167.040 148.800 C 167.040 149.323,167.253 149.440,168.205 149.440 C 168.912 149.440,169.519 149.645,169.751 149.962 C 169.984 150.281,170.776 150.545,171.786 150.643 C 172.816 150.741,173.440 150.953,173.440 151.203 C 173.440 151.670,174.439 151.989,175.920 151.996 C 176.625 151.999,176.960 152.153,176.960 152.476 C 176.960 152.783,177.408 153.024,178.220 153.154 C 178.913 153.265,179.557 153.554,179.650 153.798 C 179.876 154.387,181.760 154.387,181.760 153.797 C 181.760 153.554,182.030 153.284,182.360 153.198 C 183.516 152.895,183.515 145.600,182.359 145.600 C 182.030 145.600,181.760 145.399,181.760 145.154 C 181.760 144.578,181.057 144.320,179.484 144.320 C 178.656 144.320,178.156 144.155,178.036 143.840 C 177.895 143.473,177.293 143.360,175.486 143.360 C 173.333 143.360,173.120 143.302,173.120 142.720 C 173.120 142.187,172.907 142.080,171.840 142.080 C 170.773 142.080,170.560 141.973,170.560 141.440 C 170.560 140.907,170.347 140.800,169.280 140.800 C 168.213 140.800,168.000 140.693,168.000 140.160 C 168.000 139.733,167.787 139.520,167.360 139.520 C 166.933 139.520,166.720 139.307,166.720 138.880 C 166.720 138.524,166.507 138.240,166.240 138.240 C 165.973 138.240,165.760 137.956,165.760 137.600 C 165.760 137.173,165.547 136.960,165.120 136.960 C 164.599 136.960,164.480 136.747,164.480 135.810 C 164.480 134.929,164.330 134.621,163.840 134.493 C 163.255 134.340,163.200 134.056,163.200 131.200 C 163.200 128.344,163.255 128.060,163.840 127.907 C 164.372 127.768,164.480 127.471,164.480 126.147 C 164.480 124.824,164.588 124.526,165.120 124.387 C 165.472 124.295,165.760 123.990,165.760 123.710 C 165.760 123.429,165.976 123.200,166.240 123.200 C 166.587 123.200,166.720 122.844,166.720 121.920 C 166.720 120.664,166.742 120.640,167.870 120.640 C 168.751 120.640,169.059 120.490,169.187 120.000 C 169.280 119.646,169.624 119.360,169.957 119.360 C 170.347 119.360,170.560 119.133,170.560 118.720 C 170.560 118.109,170.773 118.080,175.289 118.080 C 179.652 118.080,180.055 118.130,180.480 118.720 C 180.800 119.164,181.308 119.360,182.143 119.360 C 182.804 119.360,183.816 119.647,184.392 119.999 C 186.134 121.061,192.960 120.907,192.960 119.806 C 192.960 119.500,193.356 119.360,194.218 119.360 C 195.268 119.360,195.498 119.241,195.614 118.640 C 195.690 118.244,195.772 120.548,195.796 123.760 L 195.840 129.600 191.382 129.600 C 187.204 129.600,186.910 129.560,186.720 128.960 C 186.533 128.371,186.236 128.320,183.018 128.320 C 179.733 128.320,179.520 128.359,179.520 128.960 C 179.520 129.387,179.307 129.600,178.880 129.600 C 178.295 129.600,178.240 129.812,178.245 132.080 C 178.251 135.150,178.413 135.409,180.446 135.604 C 181.454 135.701,182.080 135.914,182.080 136.161 C 182.080 136.754,183.626 136.960,188.070 136.960 C 191.575 136.960,192.158 137.038,192.873 137.600 C 193.320 137.952,194.171 138.240,194.763 138.240 L 195.840 138.240 195.840 148.160 C 195.840 157.867,195.826 158.080,195.200 158.080 C 194.749 158.080,194.560 158.293,194.560 158.803 C 194.560 159.201,194.272 159.706,193.920 159.926 C 193.558 160.152,193.280 160.672,193.280 161.123 C 193.280 161.707,193.109 161.920,192.640 161.920 C 192.213 161.920,192.000 162.133,192.000 162.560 C 192.000 162.987,191.787 163.200,191.360 163.200 C 190.933 163.200,190.720 163.413,190.720 163.840 C 190.720 164.361,190.507 164.480,189.570 164.480 C 188.689 164.480,188.381 164.630,188.253 165.120 C 188.097 165.715,187.816 165.760,184.283 165.760 C 180.693 165.760,180.480 165.724,180.480 165.120 C 180.480 164.768,180.281 164.480,180.037 164.480 C 179.794 164.480,179.519 164.192,179.427 163.840 C 179.335 163.488,179.047 163.200,178.787 163.200 C 178.527 163.200,178.239 162.912,178.147 162.560 C 178.055 162.208,177.767 161.920,177.507 161.920 C 177.247 161.920,176.959 161.632,176.867 161.280 C 176.775 160.928,176.487 160.640,176.227 160.640 C 175.967 160.640,175.679 160.352,175.587 160.000 C 175.495 159.648,175.207 159.360,174.947 159.360 C 174.687 159.360,174.399 159.072,174.307 158.720 C 174.215 158.368,173.926 158.080,173.664 158.080 C 173.403 158.080,173.109 157.872,173.011 157.618 C 172.913 157.363,172.327 157.060,171.708 156.944 C 171.089 156.828,170.416 156.532,170.212 156.287 C 169.950 155.970,169.067 155.840,167.182 155.840 C 164.804 155.840,164.502 155.772,164.320 155.200 C 164.126 154.589,163.836 154.560,157.898 154.560 C 152.107 154.560,151.636 154.516,151.040 153.920 C 150.432 153.312,149.973 153.280,141.757 153.280 C 133.510 153.280,133.089 153.309,132.566 153.920 C 132.144 154.413,131.622 154.560,130.299 154.560 C 128.849 154.560,128.554 154.660,128.413 155.200 C 128.263 155.771,127.976 155.840,125.757 155.840 C 123.966 155.840,123.222 155.961,123.103 156.271 C 122.983 156.583,121.905 156.753,119.202 156.886 C 116.447 157.022,115.319 157.203,114.908 157.575 C 114.601 157.853,113.821 158.080,113.175 158.080 L 112.000 158.080 111.986 155.120 C 111.977 153.257,111.790 151.686,111.480 150.880 C 110.420 148.124,110.405 148.160,112.603 148.160 C 114.133 148.160,114.700 148.020,115.200 147.520 C 115.627 147.093,116.267 146.880,117.120 146.880 C 117.973 146.880,118.613 146.667,119.040 146.240 C 119.525 145.755,120.107 145.600,121.440 145.600 C 122.987 145.600,123.200 145.522,123.200 144.960 C 123.200 144.398,123.413 144.320,124.960 144.320 C 126.510 144.320,126.720 144.243,126.720 143.676 C 126.720 142.775,132.655 142.860,133.164 143.770 C 133.497 144.366,143.040 144.638,143.040 144.051 C 143.040 143.612,144.588 143.040,145.775 143.040 C 146.667 143.040,146.880 142.916,146.880 142.400 C 146.880 141.969,147.093 141.760,147.534 141.760 C 148.141 141.760,148.181 141.594,148.094 139.440 L 148.000 137.120 146.160 137.024 C 144.888 136.958,144.320 136.796,144.320 136.501 C 144.320 135.385,126.435 135.217,125.033 136.320 C 124.449 136.779,123.735 136.960,122.507 136.960 C 121.170 136.960,120.710 137.094,120.414 137.569 C 120.092 138.084,119.561 138.194,116.954 138.289 C 114.428 138.380,113.818 138.501,113.561 138.960 C 113.389 139.268,112.967 139.520,112.624 139.520 C 111.659 139.520,111.674 134.560,112.640 134.307 C 113.126 134.180,113.280 133.871,113.280 133.024 C 113.280 132.328,113.460 131.839,113.760 131.724 C 114.107 131.591,114.240 131.048,114.240 129.770 C 114.240 128.213,114.317 128.000,114.880 128.000 C 115.307 128.000,115.520 127.787,115.520 127.360 C 115.520 126.844,115.733 126.720,116.624 126.720 C 117.231 126.720,117.843 126.526,117.984 126.288 C 118.210 125.908,120.902 125.297,121.760 125.432 C 121.936 125.459,123.160 125.557,124.480 125.649 C 126.070 125.760,126.966 125.969,127.136 126.268 C 127.326 126.604,128.118 126.720,130.219 126.720 C 132.776 126.720,133.061 126.781,133.213 127.360 C 133.344 127.860,133.649 128.000,134.613 128.000 C 135.499 128.000,135.958 128.180,136.246 128.640 C 136.617 129.235,136.992 129.280,141.581 129.280 C 146.236 129.280,146.528 129.244,146.720 128.640 C 146.878 128.143,147.204 128.000,148.182 128.000 C 149.227 128.000,149.440 127.892,149.440 127.360 C 149.440 126.933,149.653 126.720,150.080 126.720 C 150.432 126.720,150.720 126.521,150.720 126.277 C 150.720 126.034,151.008 125.759,151.360 125.667 C 151.712 125.575,152.000 125.270,152.000 124.990 C 152.000 124.709,152.221 124.480,152.490 124.480 C 152.760 124.480,153.073 124.228,153.186 123.920 C 153.299 123.612,153.583 123.245,153.816 123.104 C 154.085 122.942,154.240 122.210,154.240 121.104 C 154.240 119.573,154.318 119.360,154.880 119.360 C 155.418 119.360,155.520 119.147,155.520 118.025 C 155.520 117.208,155.735 116.453,156.074 116.078 C 156.868 115.200,156.873 111.480,156.080 110.900 C 155.661 110.593,155.520 110.034,155.520 108.685 C 155.520 107.093,155.444 106.880,154.880 106.880 C 154.318 106.880,154.240 106.667,154.240 105.120 C 154.240 103.769,154.128 103.360,153.760 103.360 C 153.493 103.360,153.280 103.076,153.280 102.720 C 153.280 102.293,153.067 102.080,152.640 102.080 C 152.119 102.080,152.000 101.867,152.000 100.930 C 152.000 100.049,151.850 99.741,151.360 99.613 C 151.006 99.520,150.720 99.176,150.720 98.843 C 150.720 98.511,150.432 97.952,150.080 97.600 C 149.728 97.248,149.440 96.672,149.440 96.320 C 149.440 95.893,149.227 95.680,148.800 95.680 C 148.284 95.680,148.160 95.467,148.160 94.582 C 148.160 93.764,147.996 93.431,147.520 93.280 C 147.168 93.168,146.880 92.799,146.880 92.458 C 146.880 92.118,146.592 91.552,146.240 91.200 C 145.858 90.818,145.600 90.133,145.600 89.500 C 145.600 88.883,145.333 88.154,144.960 87.754 C 144.409 87.162,144.320 86.624,144.320 83.891 C 144.320 80.984,144.374 80.700,144.960 80.547 C 145.450 80.419,145.600 80.111,145.600 79.230 C 145.600 78.205,145.690 78.080,146.432 78.080 C 147.224 78.080,149.120 76.476,149.120 75.806 C 149.120 75.649,149.408 75.520,149.760 75.520 C 150.187 75.520,150.400 75.307,150.400 74.880 C 150.400 74.459,150.613 74.240,151.024 74.240 C 151.367 74.240,151.763 74.049,151.904 73.816 C 152.045 73.583,152.412 73.299,152.720 73.186 C 153.028 73.073,153.280 72.776,153.280 72.527 C 153.280 72.278,153.568 71.999,153.920 71.907 C 154.402 71.781,154.560 71.897,154.560 72.380 C 154.560 72.751,154.829 73.090,155.200 73.187 C 155.804 73.345,155.840 73.624,155.840 78.101 C 155.840 81.773,155.939 82.906,156.277 83.104 C 156.591 83.288,156.759 84.429,156.877 87.175 C 157.006 90.195,157.149 91.070,157.560 91.370 C 157.879 91.604,158.080 92.212,158.080 92.945 C 158.080 93.871,158.224 94.178,158.720 94.307 C 159.205 94.434,159.360 94.744,159.360 95.587 C 159.360 96.431,159.515 96.740,160.000 96.867 C 160.352 96.959,160.640 97.238,160.640 97.487 C 160.640 97.736,160.881 98.033,161.176 98.146 C 161.470 98.259,161.974 98.614,162.296 98.936 C 162.717 99.357,163.361 99.520,164.601 99.520 C 165.740 99.520,166.456 99.682,166.720 100.000 C 166.979 100.313,167.691 100.480,168.762 100.480 C 170.059 100.480,170.490 100.615,170.806 101.120 C 171.176 101.712,171.552 101.760,175.843 101.760 C 180.053 101.760,180.539 101.701,181.120 101.120 C 181.547 100.693,182.187 100.480,183.040 100.480 C 183.964 100.480,184.320 100.347,184.320 100.000 C 184.320 99.662,184.661 99.520,185.470 99.520 C 186.332 99.520,186.660 99.367,186.780 98.910 C 186.867 98.574,187.214 98.227,187.550 98.140 C 188.451 97.904,188.451 94.736,187.550 94.500 C 187.214 94.413,186.867 94.066,186.780 93.730 C 186.666 93.295,186.335 93.120,185.626 93.120 C 185.079 93.120,184.345 92.941,183.996 92.723 C 183.490 92.407,183.230 92.407,182.724 92.723 C 181.788 93.308,179.521 93.220,178.805 92.572 C 178.290 92.106,177.291 92.004,172.130 91.893 C 166.595 91.774,166.033 91.710,165.739 91.161 C 165.562 90.831,165.207 90.560,164.949 90.560 C 164.617 90.560,164.480 90.194,164.480 89.306 C 164.480 87.769,164.222 87.040,163.680 87.040 C 163.362 87.040,163.242 85.621,163.154 80.834 C 163.056 75.474,162.964 74.543,162.480 74.008 C 161.634 73.074,161.688 69.429,162.560 68.640 C 162.912 68.321,163.200 67.795,163.200 67.470 C 163.200 67.144,163.428 66.880,163.710 66.880 C 163.990 66.880,164.292 66.605,164.380 66.270 C 164.467 65.934,164.814 65.587,165.150 65.500 C 165.485 65.412,165.760 65.110,165.760 64.830 C 165.760 64.464,166.065 64.320,166.843 64.320 C 167.656 64.320,167.967 64.161,168.093 63.680 C 168.235 63.136,168.529 63.040,170.050 63.040 C 171.627 63.040,171.840 62.964,171.840 62.400 C 171.840 61.774,172.053 61.760,181.280 61.760 C 190.507 61.760,190.720 61.774,190.720 62.400 M229.760 62.400 C 230.032 62.908,230.430 63.040,231.691 63.040 C 233.067 63.040,233.280 63.126,233.280 63.680 C 233.280 64.107,233.493 64.320,233.920 64.320 C 234.347 64.320,234.560 64.533,234.560 64.960 C 234.560 65.387,234.773 65.600,235.200 65.600 C 235.714 65.600,235.840 65.813,235.840 66.686 C 235.840 67.356,236.024 67.842,236.320 67.956 C 236.733 68.114,236.800 69.552,236.800 78.196 C 236.800 86.839,236.733 88.277,236.320 88.436 C 235.981 88.566,235.840 89.094,235.840 90.230 C 235.840 91.828,235.832 91.840,234.800 91.864 C 234.228 91.878,231.552 91.914,228.854 91.944 C 224.754 91.991,223.886 92.085,223.571 92.516 C 223.317 92.864,222.529 93.080,221.154 93.180 C 219.742 93.282,218.993 93.492,218.722 93.864 C 218.178 94.607,217.073 94.545,216.867 93.760 C 216.620 92.815,212.187 92.788,211.940 93.730 C 211.853 94.066,211.506 94.413,211.170 94.500 C 210.228 94.747,210.255 99.180,211.200 99.427 C 211.552 99.519,211.840 99.794,211.840 100.037 C 211.840 100.296,212.172 100.480,212.640 100.480 C 213.227 100.480,213.440 100.651,213.440 101.120 C 213.440 101.723,213.653 101.760,217.123 101.760 C 220.410 101.760,220.865 101.691,221.354 101.120 C 221.713 100.701,222.298 100.480,223.050 100.480 C 223.681 100.480,224.477 100.269,224.819 100.010 C 225.673 99.364,228.160 99.357,228.160 100.000 C 228.160 100.398,228.766 100.480,231.690 100.480 C 234.533 100.480,235.256 100.387,235.404 100.000 C 235.519 99.700,236.008 99.520,236.704 99.520 C 237.532 99.520,237.861 99.363,237.979 98.910 C 238.080 98.526,238.532 98.227,239.199 98.101 C 240.264 97.902,240.640 97.430,240.640 96.294 C 240.640 95.893,240.862 95.680,241.280 95.680 C 241.693 95.680,241.920 95.467,241.920 95.077 C 241.920 94.744,242.206 94.400,242.560 94.307 C 243.128 94.159,243.200 93.871,243.200 91.747 C 243.200 89.624,243.272 89.336,243.840 89.187 C 244.431 89.033,244.480 88.751,244.480 85.507 C 244.480 82.264,244.529 81.982,245.120 81.827 C 245.688 81.679,245.760 81.391,245.760 79.269 C 245.760 77.534,245.892 76.769,246.240 76.480 C 246.569 76.207,246.734 75.413,246.764 73.961 C 246.788 72.794,246.870 72.164,246.946 72.560 C 247.033 73.010,247.316 73.280,247.702 73.280 C 248.042 73.280,248.320 73.496,248.320 73.760 C 248.320 74.095,248.658 74.240,249.440 74.240 C 250.347 74.240,250.560 74.362,250.560 74.880 C 250.560 75.294,250.773 75.520,251.164 75.520 C 251.603 75.520,251.827 75.831,251.982 76.657 C 252.099 77.282,252.428 77.883,252.713 77.992 C 253.562 78.318,254.400 79.316,254.400 80.000 C 254.400 80.352,254.688 80.928,255.040 81.280 C 255.572 81.812,255.680 82.347,255.680 84.443 C 255.680 86.696,255.612 86.983,255.040 87.133 C 254.508 87.272,254.400 87.569,254.400 88.893 C 254.400 90.216,254.292 90.514,253.760 90.653 C 253.296 90.774,253.120 91.089,253.120 91.799 C 253.120 92.450,252.906 92.892,252.480 93.120 C 252.036 93.358,251.840 93.790,251.840 94.534 C 251.840 95.336,251.679 95.647,251.200 95.773 C 250.710 95.901,250.560 96.209,250.560 97.090 C 250.560 97.899,250.418 98.240,250.080 98.240 C 249.733 98.240,249.600 98.596,249.600 99.520 C 249.600 100.587,249.493 100.800,248.960 100.800 C 248.427 100.800,248.320 101.013,248.320 102.080 C 248.320 103.147,248.213 103.360,247.680 103.360 C 247.164 103.360,247.040 103.573,247.040 104.458 C 247.040 105.276,246.876 105.609,246.400 105.760 C 245.836 105.939,245.760 106.244,245.760 108.342 C 245.760 110.507,245.703 110.720,245.120 110.720 C 244.550 110.720,244.480 110.933,244.480 112.663 C 244.480 113.963,244.321 114.764,244.000 115.086 C 243.706 115.379,243.520 116.163,243.520 117.104 C 243.520 118.080,243.695 118.787,244.000 119.040 C 244.276 119.269,244.480 119.967,244.480 120.679 C 244.480 121.493,244.700 122.140,245.120 122.560 C 245.472 122.912,245.760 123.476,245.760 123.814 C 245.760 124.744,246.101 125.440,246.557 125.440 C 246.782 125.440,247.041 125.728,247.133 126.080 C 247.261 126.570,247.569 126.720,248.450 126.720 C 249.387 126.720,249.600 126.839,249.600 127.360 C 249.600 127.890,249.813 128.000,250.843 128.000 C 251.816 128.000,252.122 128.139,252.253 128.640 C 252.411 129.247,252.689 129.280,257.570 129.280 C 262.293 129.280,262.773 129.227,263.360 128.640 C 263.810 128.190,264.427 128.000,265.440 128.000 C 266.667 128.000,266.880 127.905,266.880 127.360 C 266.880 126.765,267.093 126.720,269.920 126.720 C 272.409 126.720,272.960 126.633,272.960 126.240 C 272.960 125.836,273.672 125.760,277.450 125.760 C 281.146 125.760,281.973 125.845,282.124 126.240 C 282.238 126.536,282.724 126.720,283.394 126.720 C 284.267 126.720,284.480 126.846,284.480 127.360 C 284.480 127.787,284.693 128.000,285.120 128.000 C 285.684 128.000,285.760 128.213,285.760 129.790 C 285.760 131.311,285.856 131.605,286.400 131.747 C 286.901 131.878,287.040 132.184,287.040 133.157 C 287.040 134.187,287.150 134.400,287.680 134.400 C 288.267 134.400,288.320 134.613,288.320 136.960 L 288.320 139.520 287.040 139.520 C 286.187 139.520,285.547 139.307,285.120 138.880 C 284.587 138.347,284.053 138.240,281.920 138.240 C 279.573 138.240,279.360 138.187,279.360 137.600 C 279.360 137.045,279.147 136.960,277.763 136.960 C 276.512 136.960,276.079 136.821,275.766 136.320 C 275.160 135.350,269.786 135.350,269.533 136.320 C 269.375 136.921,269.096 136.960,264.923 136.960 C 260.693 136.960,260.480 136.929,260.480 136.320 C 260.480 135.948,260.267 135.680,259.970 135.680 C 259.690 135.680,259.095 135.392,258.647 135.040 C 256.698 133.507,251.840 134.421,251.840 136.320 C 251.840 136.747,251.627 136.960,251.200 136.960 C 250.638 136.960,250.560 137.173,250.560 138.720 C 250.560 140.267,250.638 140.480,251.200 140.480 C 251.627 140.480,251.840 140.693,251.840 141.120 C 251.840 141.653,252.053 141.760,253.120 141.760 C 254.187 141.760,254.400 141.867,254.400 142.400 C 254.400 142.969,254.613 143.040,256.320 143.040 C 258.027 143.040,258.240 143.111,258.240 143.680 C 258.240 144.289,258.453 144.320,262.694 144.320 C 267.400 144.320,268.160 144.204,268.160 143.486 C 268.160 143.142,268.745 143.040,270.720 143.040 C 273.067 143.040,273.280 143.093,273.280 143.680 C 273.280 144.207,273.493 144.320,274.489 144.320 C 275.302 144.320,275.877 144.530,276.246 144.960 C 276.679 145.466,277.190 145.600,278.680 145.600 C 280.296 145.600,280.589 145.691,280.733 146.240 C 280.883 146.814,281.169 146.880,283.520 146.880 C 285.655 146.880,286.290 146.998,286.953 147.520 C 287.400 147.872,288.179 148.160,288.683 148.160 C 289.872 148.160,290.034 150.887,288.960 152.800 C 288.460 153.690,288.320 154.533,288.320 156.650 L 288.320 159.360 287.117 159.360 C 286.261 159.360,285.799 159.176,285.514 158.720 C 285.199 158.215,284.768 158.080,283.473 158.080 C 282.306 158.080,281.717 157.925,281.438 157.544 C 281.166 157.171,280.421 156.963,279.003 156.863 C 277.736 156.774,276.863 156.553,276.704 156.280 C 276.526 155.973,275.774 155.840,274.224 155.840 C 272.213 155.840,272.000 155.779,272.000 155.200 C 272.000 154.657,271.787 154.560,270.597 154.560 C 269.464 154.560,269.163 154.437,269.027 153.920 C 268.767 152.925,253.795 152.925,252.800 153.920 C 252.382 154.338,251.733 154.560,250.930 154.560 C 250.106 154.560,249.508 154.771,249.120 155.200 C 248.567 155.811,248.134 155.840,239.630 155.840 C 231.923 155.840,230.720 155.905,230.720 156.320 C 230.720 156.658,230.379 156.800,229.570 156.800 C 228.689 156.800,228.381 156.950,228.253 157.440 C 228.160 157.794,227.816 158.080,227.483 158.080 C 227.105 158.080,226.880 158.306,226.880 158.684 C 226.880 159.120,226.572 159.347,225.772 159.497 C 224.820 159.675,224.635 159.860,224.457 160.812 C 224.338 161.444,224.058 161.920,223.804 161.920 C 223.560 161.920,223.360 162.208,223.360 162.560 C 223.360 162.987,223.147 163.200,222.720 163.200 C 222.293 163.200,222.080 163.413,222.080 163.840 C 222.080 164.267,221.867 164.480,221.440 164.480 C 221.013 164.480,220.800 164.693,220.800 165.120 C 220.800 165.547,220.587 165.760,220.160 165.760 C 219.733 165.760,219.520 165.973,219.520 166.400 C 219.520 166.969,219.307 167.040,217.600 167.040 C 216.107 167.040,215.538 166.898,215.040 166.400 C 214.613 165.973,213.973 165.760,213.120 165.760 C 212.053 165.760,211.840 165.653,211.840 165.120 C 211.840 164.693,211.627 164.480,211.200 164.480 C 210.773 164.480,210.560 164.267,210.560 163.840 C 210.560 163.413,210.347 163.200,209.920 163.200 C 209.502 163.200,209.280 162.987,209.280 162.586 C 209.280 161.632,208.935 160.960,208.446 160.960 C 208.201 160.960,208.000 160.659,208.000 160.290 C 208.000 159.889,207.743 159.553,207.360 159.453 C 206.884 159.328,206.720 159.016,206.720 158.237 C 206.720 157.600,206.532 157.116,206.240 157.004 C 205.950 156.893,205.758 156.405,205.756 155.770 C 205.749 154.240,205.428 153.280,204.923 153.280 C 204.558 153.280,204.480 151.949,204.480 145.760 L 204.480 138.240 208.305 138.240 C 211.892 138.240,213.760 137.894,213.760 137.229 C 213.760 137.081,214.948 136.958,216.400 136.956 C 219.457 136.951,220.480 136.742,220.480 136.123 C 220.480 135.820,220.884 135.680,221.760 135.680 C 222.593 135.680,223.253 135.467,223.651 135.069 C 223.987 134.733,224.527 134.408,224.851 134.346 C 225.747 134.177,225.851 132.300,224.977 132.072 C 224.545 131.959,224.320 131.637,224.320 131.134 C 224.320 130.122,223.754 129.600,222.656 129.600 C 221.973 129.600,221.760 129.448,221.760 128.960 C 221.760 128.349,221.547 128.320,217.090 128.320 C 212.689 128.320,212.410 128.357,212.253 128.960 C 212.097 129.555,211.816 129.600,208.283 129.600 L 204.480 129.600 204.480 123.840 C 204.480 118.293,204.504 118.080,205.120 118.080 C 205.547 118.080,205.760 118.293,205.760 118.720 C 205.760 119.192,205.973 119.360,206.573 119.360 C 207.021 119.360,207.696 119.648,208.074 120.000 C 209.103 120.959,214.835 120.959,215.434 120.000 C 215.751 119.493,216.181 119.360,217.495 119.360 C 218.856 119.360,219.192 119.248,219.353 118.742 C 219.713 117.609,229.440 117.602,229.440 118.735 C 229.440 119.147,229.659 119.360,230.080 119.360 C 230.440 119.360,230.720 119.573,230.720 119.848 C 230.720 120.116,231.080 120.473,231.520 120.640 C 231.960 120.807,232.320 121.092,232.320 121.272 C 232.320 121.452,232.536 121.600,232.800 121.600 C 233.099 121.600,233.280 121.902,233.280 122.400 C 233.280 122.987,233.451 123.200,233.920 123.200 C 234.347 123.200,234.560 123.413,234.560 123.840 C 234.560 124.267,234.773 124.480,235.200 124.480 C 235.760 124.480,235.840 124.693,235.840 126.179 C 235.840 127.177,236.034 128.134,236.310 128.499 C 236.990 129.398,236.999 134.400,236.320 134.400 C 235.947 134.400,235.840 134.827,235.840 136.320 C 235.840 138.027,235.769 138.240,235.200 138.240 C 234.773 138.240,234.560 138.453,234.560 138.880 C 234.560 139.307,234.347 139.520,233.920 139.520 C 233.493 139.520,233.280 139.733,233.280 140.160 C 233.280 140.681,233.067 140.800,232.130 140.800 C 231.249 140.800,230.941 140.950,230.813 141.440 C 230.682 141.941,230.376 142.080,229.403 142.080 C 228.587 142.080,227.940 142.300,227.520 142.720 C 227.035 143.205,226.453 143.360,225.120 143.360 C 223.769 143.360,223.360 143.472,223.360 143.840 C 223.360 144.209,222.948 144.320,221.570 144.320 C 220.049 144.320,219.755 144.416,219.613 144.960 C 219.520 145.314,219.176 145.600,218.843 145.600 C 218.453 145.600,218.240 145.827,218.240 146.240 C 218.240 146.667,218.027 146.880,217.600 146.880 C 217.013 146.880,216.960 147.093,216.960 149.440 C 216.960 151.738,217.022 152.000,217.566 152.000 C 217.899 152.000,218.254 152.216,218.356 152.480 C 218.463 152.761,218.943 152.960,219.510 152.960 C 220.159 152.960,220.480 152.801,220.480 152.480 C 220.480 152.093,220.978 152.000,223.040 152.000 C 225.109 152.000,225.714 151.886,226.195 151.405 C 226.564 151.036,227.434 150.748,228.489 150.647 C 229.538 150.546,230.333 150.284,230.569 149.962 C 230.786 149.666,231.398 149.440,231.985 149.440 C 232.751 149.440,233.063 149.274,233.187 148.800 C 233.313 148.319,233.624 148.160,234.437 148.160 C 235.307 148.160,235.520 148.034,235.520 147.520 C 235.520 147.093,235.733 146.880,236.160 146.880 C 236.587 146.880,236.800 146.667,236.800 146.240 C 236.800 145.707,237.013 145.600,238.080 145.600 C 239.120 145.600,239.360 145.487,239.360 144.997 C 239.360 144.664,239.646 144.320,240.000 144.227 C 240.352 144.135,240.640 143.830,240.640 143.550 C 240.640 143.269,240.861 143.040,241.130 143.040 C 241.400 143.040,241.712 142.788,241.825 142.480 C 241.937 142.172,242.292 141.577,242.614 141.157 C 242.937 140.737,243.200 140.125,243.200 139.797 C 243.200 139.469,243.399 139.200,243.643 139.200 C 244.147 139.200,244.469 138.240,244.476 136.720 C 244.478 136.046,244.637 135.680,244.926 135.680 C 246.049 135.680,246.237 126.145,245.120 125.853 C 244.578 125.711,244.480 125.416,244.480 123.933 C 244.480 122.449,244.382 122.154,243.840 122.013 C 243.355 121.886,243.200 121.576,243.200 120.733 C 243.200 119.889,243.045 119.580,242.560 119.453 C 242.206 119.360,241.920 119.016,241.920 118.683 C 241.920 118.293,241.693 118.080,241.280 118.080 C 240.862 118.080,240.640 117.867,240.640 117.466 C 240.640 116.242,240.275 115.840,239.166 115.840 C 238.400 115.840,238.080 115.694,238.080 115.345 C 238.080 114.705,236.655 113.280,236.015 113.280 C 235.733 113.280,235.520 113.004,235.520 112.640 C 235.520 112.155,235.307 112.000,234.637 112.000 C 234.101 112.000,233.597 111.749,233.354 111.360 C 233.037 110.852,232.608 110.720,231.274 110.720 C 229.941 110.720,229.512 110.588,229.194 110.080 C 228.836 109.506,228.448 109.440,225.437 109.440 C 222.293 109.440,222.080 109.481,222.080 110.080 C 222.080 110.649,221.867 110.720,220.160 110.720 C 218.667 110.720,218.098 110.862,217.600 111.360 C 216.633 112.327,210.720 112.327,210.467 111.360 C 210.339 110.870,210.031 110.720,209.150 110.720 C 208.213 110.720,208.000 110.601,208.000 110.080 C 208.000 109.653,207.787 109.440,207.360 109.440 C 206.841 109.440,206.720 109.227,206.720 108.310 C 206.720 107.636,206.539 107.110,206.271 107.008 C 206.025 106.913,205.730 106.342,205.617 105.738 C 205.494 105.085,205.222 104.640,204.945 104.640 C 204.548 104.640,204.480 103.167,204.480 94.560 L 204.480 84.480 206.093 84.480 C 207.264 84.480,207.895 84.305,208.394 83.840 C 208.772 83.488,209.474 83.200,209.954 83.200 C 211.153 83.200,211.840 82.896,211.840 82.366 C 211.840 82.067,212.220 81.920,212.990 81.920 C 213.871 81.920,214.179 81.770,214.307 81.280 C 214.446 80.750,214.744 80.640,216.035 80.640 C 217.248 80.640,217.683 80.498,217.994 80.000 C 218.508 79.177,222.080 79.032,222.080 79.834 C 222.080 80.525,223.099 80.677,227.040 80.573 L 230.560 80.480 230.658 78.775 C 230.743 77.280,230.674 77.048,230.098 76.897 C 229.736 76.803,229.440 76.464,229.440 76.145 C 229.440 74.631,227.423 73.280,225.162 73.280 C 223.253 73.280,223.040 73.216,223.040 72.640 C 223.040 72.128,222.827 72.000,221.970 72.000 C 221.306 72.000,220.679 72.243,220.320 72.640 C 219.831 73.181,219.334 73.280,217.120 73.280 C 214.906 73.280,214.409 73.379,213.920 73.920 C 213.601 74.272,213.003 74.560,212.590 74.560 C 212.053 74.560,211.840 74.742,211.840 75.200 C 211.840 75.762,211.627 75.840,210.080 75.840 C 208.729 75.840,208.320 75.952,208.320 76.320 C 208.320 76.693,207.893 76.800,206.400 76.800 L 204.480 76.800 204.480 72.480 C 204.480 69.001,204.567 68.160,204.926 68.160 C 205.442 68.160,205.760 67.479,205.760 66.374 C 205.760 65.899,205.946 65.600,206.240 65.600 C 206.587 65.600,206.720 65.244,206.720 64.320 L 206.720 63.040 208.000 63.040 C 209.067 63.040,209.280 62.933,209.280 62.400 C 209.280 61.774,209.493 61.760,219.349 61.760 C 229.090 61.760,229.429 61.781,229.760 62.400 M263.862 88.000 C 264.114 88.000,264.320 88.266,264.320 88.590 C 264.320 88.915,264.608 89.441,264.960 89.760 C 265.312 90.079,265.600 90.618,265.600 90.960 C 265.600 91.311,265.878 91.653,266.240 91.747 C 266.693 91.866,266.880 92.184,266.880 92.835 C 266.880 93.408,267.121 93.905,267.520 94.154 C 267.872 94.374,268.160 94.807,268.160 95.117 C 268.160 95.467,268.402 95.680,268.800 95.680 C 269.316 95.680,269.440 95.893,269.440 96.781 C 269.440 97.387,269.570 97.963,269.730 98.061 C 270.311 98.420,269.702 99.520,268.923 99.520 C 268.373 99.520,268.160 99.699,268.160 100.160 C 268.160 100.587,267.947 100.800,267.520 100.800 C 267.093 100.800,266.880 101.013,266.880 101.440 C 266.880 101.958,266.667 102.080,265.760 102.080 C 264.853 102.080,264.640 102.202,264.640 102.720 C 264.640 103.147,264.427 103.360,264.000 103.360 C 263.600 103.360,263.360 103.573,263.360 103.929 C 263.360 104.242,263.072 104.744,262.720 105.046 C 262.368 105.347,262.080 105.883,262.080 106.237 C 262.080 106.671,261.868 106.880,261.427 106.880 C 260.817 106.880,260.779 107.046,260.867 109.360 L 260.960 111.840 264.427 111.931 C 267.684 112.017,267.904 111.983,268.064 111.371 C 268.158 111.013,268.447 110.720,268.707 110.720 C 268.967 110.720,269.255 110.432,269.347 110.080 C 269.439 109.728,269.727 109.440,269.987 109.440 C 270.247 109.440,270.535 109.152,270.627 108.800 C 270.719 108.448,270.967 108.160,271.177 108.160 C 271.387 108.160,271.868 107.872,272.246 107.520 C 272.624 107.168,273.299 106.880,273.747 106.880 C 274.347 106.880,274.560 107.048,274.560 107.520 C 274.560 107.947,274.773 108.160,275.200 108.160 C 275.627 108.160,275.840 108.373,275.840 108.800 C 275.840 109.156,276.053 109.440,276.320 109.440 C 276.652 109.440,276.800 109.773,276.800 110.517 C 276.800 111.109,277.088 111.960,277.440 112.407 C 277.792 112.855,278.080 113.450,278.080 113.730 C 278.080 114.027,278.348 114.240,278.720 114.240 C 279.265 114.240,279.360 114.453,279.360 115.680 L 279.360 117.120 278.119 117.120 C 277.407 117.120,276.709 117.324,276.480 117.600 C 276.237 117.893,275.536 118.080,274.681 118.080 C 273.526 118.080,273.280 118.185,273.280 118.678 C 273.280 119.215,272.933 119.292,269.873 119.428 C 267.191 119.547,266.383 119.692,266.077 120.110 C 265.436 120.986,256.252 120.892,255.360 120.000 C 255.008 119.648,254.360 119.360,253.920 119.360 C 253.200 119.360,253.120 119.232,253.120 118.077 C 253.120 117.190,252.922 116.625,252.480 116.246 C 251.969 115.808,251.840 115.302,251.840 113.726 C 251.840 112.024,251.927 111.732,252.480 111.587 C 253.014 111.448,253.120 111.151,253.120 109.790 C 253.120 108.587,253.288 107.992,253.760 107.520 C 254.112 107.168,254.400 106.592,254.400 106.240 C 254.400 105.813,254.613 105.600,255.040 105.600 C 255.573 105.600,255.680 105.387,255.680 104.320 C 255.680 103.253,255.787 103.040,256.320 103.040 C 256.735 103.040,256.960 102.827,256.960 102.434 C 256.960 102.101,257.162 101.751,257.410 101.656 C 257.657 101.561,257.953 101.056,258.068 100.534 C 258.191 99.976,258.532 99.518,258.898 99.423 C 259.368 99.300,259.520 98.980,259.520 98.110 C 259.520 97.301,259.662 96.960,260.000 96.960 C 260.264 96.960,260.480 96.677,260.480 96.331 C 260.480 95.985,260.768 95.548,261.120 95.360 C 261.664 95.069,261.760 94.690,261.760 92.826 C 261.760 90.904,261.839 90.614,262.400 90.467 C 262.941 90.326,263.047 90.011,263.084 88.430 C 263.108 87.401,263.190 86.884,263.266 87.280 C 263.342 87.676,263.610 88.000,263.862 88.000 M136.960 89.280 C 136.960 90.347,137.067 90.560,137.600 90.560 C 138.169 90.560,138.240 90.773,138.240 92.480 C 138.240 94.187,138.311 94.400,138.880 94.400 C 139.401 94.400,139.520 94.613,139.520 95.550 C 139.520 96.431,139.670 96.739,140.160 96.867 C 140.638 96.992,140.800 97.304,140.800 98.096 C 140.800 98.876,140.970 99.211,141.440 99.360 C 141.848 99.490,142.080 99.844,142.080 100.339 C 142.080 100.768,142.366 101.293,142.720 101.514 C 143.072 101.734,143.360 102.167,143.360 102.477 C 143.360 102.787,143.557 103.040,143.798 103.040 C 144.083 103.040,144.296 103.566,144.406 104.541 C 144.501 105.381,144.800 106.206,145.088 106.416 C 145.369 106.622,145.600 107.040,145.600 107.345 C 145.600 107.650,145.888 107.975,146.240 108.067 C 146.770 108.206,146.880 108.504,146.880 109.797 C 146.880 110.933,147.055 111.535,147.520 112.000 C 148.029 112.509,148.160 113.067,148.160 114.720 C 148.160 116.373,148.029 116.931,147.520 117.440 C 147.168 117.792,146.880 118.351,146.880 118.683 C 146.880 119.016,146.594 119.360,146.240 119.453 C 145.888 119.545,145.600 119.850,145.600 120.130 C 145.600 120.487,145.303 120.640,144.610 120.640 C 143.889 120.640,143.575 120.814,143.453 121.280 C 143.300 121.866,143.016 121.920,140.123 121.920 C 137.387 121.920,136.874 121.834,136.320 121.280 C 135.886 120.846,135.253 120.640,134.355 120.640 C 133.486 120.640,132.896 120.456,132.639 120.105 C 132.343 119.699,131.579 119.535,129.484 119.425 C 127.554 119.324,126.720 119.158,126.720 118.877 C 126.720 118.397,125.713 118.090,124.114 118.084 C 123.376 118.082,122.881 117.904,122.764 117.600 C 122.657 117.319,122.177 117.120,121.610 117.120 C 120.674 117.120,120.640 117.070,120.640 115.680 C 120.640 114.453,120.735 114.240,121.280 114.240 C 121.701 114.240,121.920 114.027,121.920 113.616 C 121.920 113.273,122.151 112.862,122.434 112.704 C 122.743 112.531,123.015 111.824,123.115 110.928 C 123.217 110.031,123.444 109.440,123.687 109.440 C 124.165 109.440,124.480 108.730,124.480 107.654 C 124.480 106.685,125.389 106.612,126.166 107.520 C 126.467 107.872,127.075 108.160,127.517 108.160 C 128.107 108.160,128.320 108.330,128.320 108.800 C 128.320 109.227,128.533 109.440,128.960 109.440 C 129.387 109.440,129.600 109.653,129.600 110.080 C 129.600 110.432,129.781 110.720,130.003 110.720 C 130.225 110.720,130.586 111.008,130.806 111.360 C 131.061 111.768,131.552 112.000,132.163 112.000 C 132.825 112.000,133.120 112.157,133.120 112.510 C 133.120 112.790,133.398 113.093,133.738 113.181 C 134.078 113.270,134.433 113.545,134.528 113.792 C 135.044 115.136,139.520 114.083,139.520 112.617 C 139.520 112.278,139.736 112.000,140.000 112.000 C 140.381 112.000,140.480 111.537,140.480 109.750 C 140.480 108.045,140.364 107.455,140.000 107.316 C 139.736 107.214,139.520 106.878,139.520 106.569 C 139.520 105.743,138.290 104.320,137.577 104.320 C 137.238 104.320,136.960 104.104,136.960 103.840 C 136.960 103.573,136.676 103.360,136.320 103.360 C 135.893 103.360,135.680 103.147,135.680 102.720 C 135.680 102.307,135.467 102.080,135.077 102.080 C 134.744 102.080,134.400 101.794,134.307 101.440 C 134.179 100.950,133.871 100.800,132.990 100.800 C 132.053 100.800,131.840 100.681,131.840 100.160 C 131.840 99.747,131.627 99.520,131.237 99.520 C 130.511 99.520,130.310 98.852,130.491 97.040 C 130.599 95.966,130.755 95.680,131.234 95.680 C 131.623 95.680,131.840 95.455,131.840 95.051 C 131.840 94.705,132.128 94.268,132.480 94.080 C 132.899 93.856,133.120 93.410,133.120 92.789 C 133.120 92.053,133.264 91.840,133.760 91.840 C 134.187 91.840,134.400 91.627,134.400 91.200 C 134.400 90.848,134.688 90.272,135.040 89.920 C 135.392 89.568,135.680 88.992,135.680 88.640 C 135.680 88.213,135.893 88.000,136.320 88.000 C 136.853 88.000,136.960 88.213,136.960 89.280 M143.360 161.280 C 143.360 161.837,143.573 161.920,145.005 161.920 C 146.201 161.920,146.762 162.073,147.061 162.480 C 147.435 162.989,148.290 163.042,156.536 163.063 C 168.771 163.095,168.320 163.065,168.320 163.840 C 168.320 164.267,168.533 164.480,168.960 164.480 C 169.387 164.480,169.600 164.693,169.600 165.120 C 169.600 165.476,169.813 165.760,170.080 165.760 C 170.344 165.760,170.560 165.976,170.560 166.240 C 170.560 166.504,170.831 166.720,171.163 166.720 C 171.496 166.720,171.840 167.006,171.933 167.360 C 172.025 167.712,172.320 168.000,172.588 168.000 C 172.857 168.000,173.168 168.288,173.280 168.640 C 173.392 168.992,173.680 169.280,173.920 169.280 C 174.160 169.280,174.448 169.568,174.560 169.920 C 174.711 170.396,175.044 170.560,175.862 170.560 C 176.747 170.560,176.960 170.684,176.960 171.200 C 176.960 171.627,177.173 171.840,177.600 171.840 C 178.027 171.840,178.240 172.053,178.240 172.480 C 178.240 173.049,178.453 173.120,180.160 173.120 C 181.867 173.120,182.080 173.191,182.080 173.760 C 182.080 174.353,182.293 174.400,184.973 174.400 C 187.424 174.400,187.972 174.302,188.554 173.760 C 188.998 173.347,189.683 173.120,190.490 173.120 C 191.471 173.120,191.776 172.982,191.907 172.480 C 192.000 172.126,192.344 171.840,192.677 171.840 C 193.009 171.840,193.568 171.552,193.920 171.200 C 194.272 170.848,194.766 170.560,195.018 170.560 C 195.270 170.560,195.538 170.236,195.614 169.840 C 195.690 169.444,195.772 172.088,195.796 175.716 L 195.840 182.311 195.069 182.164 C 194.645 182.083,194.226 181.743,194.139 181.408 C 193.886 180.439,179.092 180.469,178.486 181.440 C 178.201 181.896,177.739 182.080,176.883 182.080 C 175.893 182.080,175.680 182.193,175.680 182.720 C 175.680 183.317,175.467 183.360,172.480 183.360 C 169.493 183.360,169.280 183.317,169.280 182.720 C 169.280 182.293,169.067 182.080,168.640 182.080 C 168.213 182.080,168.000 181.867,168.000 181.440 C 168.000 181.013,167.787 180.800,167.360 180.800 C 166.827 180.800,166.720 180.587,166.720 179.520 C 166.720 178.596,166.587 178.240,166.240 178.240 C 165.973 178.240,165.760 177.956,165.760 177.600 C 165.760 177.173,165.547 176.960,165.120 176.960 C 164.599 176.960,164.480 176.747,164.480 175.810 C 164.480 174.948,164.327 174.620,163.870 174.500 C 163.534 174.413,163.187 174.066,163.100 173.730 C 163.010 173.388,162.661 173.120,162.304 173.120 C 161.955 173.120,161.586 172.904,161.484 172.640 C 161.244 172.013,158.853 171.984,158.496 172.604 C 158.355 172.849,157.954 173.102,157.604 173.168 C 157.254 173.234,156.914 173.574,156.848 173.924 C 156.782 174.274,156.529 174.675,156.284 174.816 C 155.693 175.157,155.717 176.293,156.320 176.524 C 156.644 176.649,156.800 177.157,156.800 178.088 C 156.800 179.773,157.047 180.480,157.634 180.480 C 157.879 180.480,158.080 180.768,158.080 181.120 C 158.080 181.547,158.293 181.760,158.720 181.760 C 159.241 181.760,159.360 181.973,159.360 182.910 C 159.360 183.791,159.510 184.099,160.000 184.227 C 160.354 184.320,160.640 184.664,160.640 184.997 C 160.640 185.380,160.866 185.600,161.260 185.600 C 161.724 185.600,161.905 185.859,161.980 186.633 C 162.047 187.321,162.320 187.784,162.798 188.021 C 163.193 188.217,163.780 188.616,164.103 188.908 C 164.426 189.201,164.914 189.440,165.188 189.440 C 165.461 189.440,165.761 189.728,165.853 190.080 C 165.977 190.554,166.289 190.720,167.055 190.720 C 167.671 190.720,168.255 190.947,168.499 191.280 C 168.827 191.729,169.394 191.840,171.360 191.840 C 173.326 191.840,173.893 191.729,174.221 191.280 C 174.503 190.895,175.068 190.719,176.035 190.718 C 177.712 190.716,179.840 190.172,179.840 189.745 C 179.840 189.577,180.560 189.440,181.440 189.440 C 182.827 189.440,183.040 189.355,183.040 188.800 C 183.040 188.200,183.253 188.160,186.483 188.160 C 189.579 188.160,189.966 188.224,190.326 188.800 C 190.617 189.266,191.072 189.440,192.003 189.440 C 193.151 189.440,193.280 189.521,193.280 190.237 C 193.280 190.688,193.558 191.208,193.920 191.434 C 194.272 191.654,194.560 192.159,194.560 192.557 C 194.560 193.067,194.749 193.280,195.200 193.280 C 195.824 193.280,195.840 193.493,195.840 201.580 L 195.840 209.880 192.400 210.053 C 184.096 210.472,183.360 210.564,183.360 211.187 C 183.360 211.681,183.022 211.787,181.085 211.896 C 179.540 211.984,178.693 212.181,178.445 212.512 C 178.244 212.780,177.828 213.094,177.520 213.210 C 177.212 213.325,176.960 213.640,176.960 213.910 C 176.960 214.187,176.681 214.400,176.320 214.400 C 175.893 214.400,175.680 214.613,175.680 215.040 C 175.680 215.412,175.467 215.680,175.170 215.680 C 174.890 215.680,174.588 215.955,174.500 216.290 C 174.413 216.626,174.066 216.973,173.730 217.060 C 173.395 217.148,173.120 217.470,173.120 217.775 C 173.120 218.080,172.882 218.504,172.590 218.717 C 171.563 219.468,171.611 224.320,172.646 224.320 C 172.907 224.320,173.408 224.608,173.760 224.960 C 174.145 225.345,174.827 225.600,175.470 225.600 C 176.134 225.600,176.761 225.357,177.120 224.960 C 177.439 224.608,178.050 224.320,178.480 224.320 C 178.991 224.320,179.318 224.099,179.427 223.680 C 179.519 223.328,179.794 223.040,180.037 223.040 C 180.281 223.040,180.480 222.752,180.480 222.400 C 180.480 221.973,180.693 221.760,181.120 221.760 C 181.547 221.760,181.760 221.547,181.760 221.120 C 181.760 220.693,181.973 220.480,182.400 220.480 C 182.756 220.480,183.040 220.267,183.040 220.000 C 183.040 219.668,183.373 219.520,184.117 219.520 C 184.709 219.520,185.560 219.232,186.007 218.880 C 186.734 218.309,187.305 218.240,191.330 218.240 L 195.840 218.240 195.840 224.480 L 195.840 230.720 194.243 230.720 C 192.992 230.720,192.559 230.859,192.246 231.360 C 191.961 231.816,191.499 232.000,190.643 232.000 C 189.653 232.000,189.440 232.113,189.440 232.640 C 189.440 233.222,189.227 233.280,187.077 233.280 C 184.984 233.280,184.696 233.353,184.547 233.920 C 184.419 234.410,184.111 234.560,183.230 234.560 C 182.293 234.560,182.080 234.679,182.080 235.200 C 182.080 235.787,181.867 235.840,179.520 235.840 C 177.458 235.840,176.960 235.933,176.960 236.320 C 176.960 236.681,176.573 236.800,175.399 236.800 C 174.402 236.800,173.694 236.627,173.440 236.320 C 173.221 236.056,172.787 235.840,172.476 235.840 C 172.084 235.840,171.847 235.498,171.701 234.720 C 171.586 234.104,171.350 233.600,171.178 233.600 C 171.005 233.600,170.727 233.240,170.560 232.800 C 170.393 232.360,170.053 232.000,169.805 232.000 C 169.557 232.000,169.279 231.712,169.187 231.360 C 169.048 230.827,168.751 230.720,167.412 230.720 C 166.084 230.720,165.768 230.608,165.600 230.080 C 165.248 228.972,158.508 229.115,158.080 230.240 C 157.913 230.680,157.628 231.040,157.448 231.040 C 156.881 231.040,157.091 232.306,157.820 233.293 C 158.351 234.011,158.777 234.240,159.580 234.240 C 160.427 234.240,160.640 234.369,160.640 234.880 C 160.640 235.307,160.853 235.520,161.280 235.520 C 161.707 235.520,161.920 235.733,161.920 236.160 C 161.920 236.587,162.133 236.800,162.560 236.800 C 162.932 236.800,163.200 237.013,163.200 237.310 C 163.200 237.590,163.488 237.895,163.840 237.987 C 164.194 238.080,164.480 238.424,164.480 238.757 C 164.480 239.147,164.707 239.360,165.120 239.360 C 165.617 239.360,165.760 239.573,165.760 240.317 C 165.760 240.928,165.992 241.419,166.400 241.674 C 166.752 241.894,167.040 242.327,167.040 242.637 C 167.040 242.987,167.282 243.200,167.680 243.200 C 168.107 243.200,168.320 243.413,168.320 243.840 C 168.320 244.253,168.533 244.480,168.923 244.480 C 169.256 244.480,169.600 244.766,169.693 245.120 C 169.806 245.555,170.129 245.760,170.700 245.760 C 171.162 245.760,171.623 245.976,171.724 246.240 C 171.870 246.620,172.538 246.720,174.914 246.720 C 177.373 246.720,177.920 246.633,177.920 246.240 C 177.920 245.902,178.261 245.760,179.070 245.760 C 179.951 245.760,180.259 245.610,180.387 245.120 C 180.514 244.635,180.824 244.480,181.667 244.480 C 182.511 244.480,182.820 244.325,182.947 243.840 C 183.074 243.355,183.384 243.200,184.227 243.200 C 185.071 243.200,185.380 243.045,185.507 242.560 C 185.600 242.206,185.944 241.920,186.277 241.920 C 186.667 241.920,186.880 241.693,186.880 241.280 C 186.880 240.759,187.093 240.640,188.030 240.640 C 188.911 240.640,189.219 240.490,189.347 240.000 C 189.472 239.522,189.784 239.360,190.576 239.360 C 191.356 239.360,191.691 239.190,191.840 238.720 C 191.998 238.223,192.324 238.080,193.302 238.080 C 194.347 238.080,194.560 238.188,194.560 238.720 C 194.560 239.147,194.773 239.360,195.200 239.360 C 195.821 239.360,195.840 239.573,195.840 246.363 C 195.840 253.096,195.815 253.372,195.200 253.533 C 194.734 253.655,194.560 253.969,194.560 254.690 C 194.560 255.467,194.422 255.680,193.920 255.680 C 193.493 255.680,193.280 255.893,193.280 256.320 C 193.280 256.841,193.067 256.960,192.130 256.960 C 191.249 256.960,190.941 257.110,190.813 257.600 C 190.651 258.217,190.376 258.240,183.174 258.240 C 176.030 258.240,175.688 258.212,175.360 257.600 C 175.088 257.091,174.690 256.960,173.419 256.960 C 172.290 256.960,171.766 256.818,171.635 256.478 C 171.533 256.213,170.896 255.908,170.220 255.800 C 169.543 255.691,168.744 255.332,168.445 255.001 C 168.127 254.649,167.472 254.400,166.868 254.400 C 166.104 254.400,165.791 254.233,165.667 253.760 C 165.575 253.408,165.250 253.120,164.945 253.120 C 164.640 253.120,164.222 252.889,164.016 252.608 C 163.806 252.320,162.981 252.021,162.141 251.926 C 160.948 251.792,160.640 251.634,160.640 251.158 C 160.640 250.773,160.412 250.560,160.000 250.560 C 159.644 250.560,159.360 250.347,159.360 250.080 C 159.360 249.733,159.004 249.600,158.080 249.600 C 157.013 249.600,156.800 249.493,156.800 248.960 C 156.800 248.533,156.587 248.320,156.160 248.320 C 155.733 248.320,155.520 248.107,155.520 247.680 C 155.520 247.267,155.307 247.040,154.917 247.040 C 154.584 247.040,154.240 246.754,154.147 246.400 C 154.025 245.934,153.711 245.760,152.990 245.760 C 152.213 245.760,152.000 245.622,152.000 245.120 C 152.000 244.701,151.787 244.480,151.382 244.480 C 151.041 244.480,150.672 244.192,150.560 243.840 C 150.448 243.488,150.183 243.200,149.970 243.200 C 149.757 243.200,149.336 242.912,149.034 242.560 C 148.733 242.208,148.270 241.920,148.006 241.920 C 147.742 241.920,147.346 241.632,147.126 241.280 C 146.906 240.928,146.473 240.640,146.163 240.640 C 145.813 240.640,145.600 240.398,145.600 240.000 C 145.600 239.573,145.387 239.360,144.960 239.360 C 144.533 239.360,144.320 239.147,144.320 238.720 C 144.320 238.368,144.032 237.792,143.680 237.440 C 143.328 237.088,143.040 236.584,143.040 236.320 C 143.040 236.053,142.756 235.840,142.400 235.840 C 141.867 235.840,141.760 235.627,141.760 234.560 C 141.760 233.493,141.653 233.280,141.120 233.280 C 140.601 233.280,140.480 233.067,140.480 232.150 C 140.480 231.441,140.301 230.951,140.000 230.836 C 139.611 230.686,139.520 229.933,139.520 226.846 C 139.520 223.676,139.600 223.040,140.000 223.040 C 140.290 223.040,140.480 222.743,140.480 222.290 C 140.480 221.877,140.768 221.279,141.120 220.960 C 141.472 220.641,141.760 220.187,141.760 219.950 C 141.760 219.484,141.556 219.496,150.825 219.410 C 155.548 219.366,156.260 219.291,156.620 218.800 C 156.846 218.492,157.327 218.240,157.689 218.240 C 158.685 218.240,159.360 217.903,159.360 217.406 C 159.360 217.161,159.589 216.960,159.870 216.960 C 160.150 216.960,160.455 216.672,160.547 216.320 C 160.640 215.966,160.984 215.680,161.317 215.680 C 161.707 215.680,161.920 215.453,161.920 215.040 C 161.920 214.613,162.133 214.400,162.560 214.400 C 162.973 214.400,163.200 214.187,163.200 213.797 C 163.200 213.464,163.486 213.120,163.840 213.027 C 164.330 212.899,164.480 212.591,164.480 211.710 C 164.480 210.773,164.599 210.560,165.120 210.560 C 165.547 210.560,165.760 210.347,165.760 209.920 C 165.760 209.408,165.973 209.280,166.830 209.280 C 167.494 209.280,168.121 209.037,168.480 208.640 C 168.839 208.244,169.466 208.000,170.127 208.000 C 170.848 208.000,171.324 207.792,171.594 207.360 C 171.954 206.784,172.341 206.720,175.447 206.720 C 178.221 206.720,178.936 206.626,179.084 206.240 C 179.204 205.927,179.702 205.760,180.514 205.760 C 181.547 205.760,181.760 205.650,181.760 205.120 C 181.760 204.706,181.973 204.480,182.364 204.480 C 184.044 204.480,183.411 199.564,181.713 199.423 C 180.875 199.353,180.500 199.150,180.383 198.703 C 180.137 197.762,174.745 197.755,174.499 198.695 C 174.354 199.252,173.966 199.319,170.343 199.415 C 166.985 199.503,166.282 199.609,165.938 200.080 C 165.678 200.436,165.105 200.640,164.365 200.640 C 163.413 200.640,163.200 200.757,163.200 201.280 C 163.200 201.801,162.987 201.920,162.050 201.920 C 161.169 201.920,160.861 202.070,160.733 202.560 C 160.641 202.912,160.363 203.200,160.115 203.200 C 159.867 203.200,159.527 203.560,159.360 204.000 C 159.193 204.440,158.915 204.800,158.742 204.800 C 158.570 204.800,158.337 205.291,158.224 205.891 C 158.094 206.585,157.798 207.039,157.410 207.141 C 156.953 207.260,156.800 207.588,156.800 208.450 C 156.800 209.259,156.658 209.600,156.320 209.600 C 156.056 209.600,155.840 209.816,155.840 210.080 C 155.840 210.347,155.556 210.560,155.200 210.560 C 154.779 210.560,154.560 210.773,154.560 211.184 C 154.560 211.783,154.247 211.812,146.694 211.904 C 139.638 211.990,138.785 212.058,138.418 212.560 C 138.194 212.868,137.773 213.120,137.485 213.120 C 137.173 213.120,136.960 213.380,136.960 213.760 C 136.960 214.187,136.747 214.400,136.320 214.400 C 135.907 214.400,135.680 214.613,135.680 215.003 C 135.680 215.336,135.394 215.680,135.040 215.773 C 134.550 215.901,134.400 216.209,134.400 217.090 C 134.400 217.860,134.253 218.240,133.954 218.240 C 133.444 218.240,133.120 218.920,133.120 219.992 C 133.120 220.399,132.914 220.811,132.662 220.907 C 132.410 221.004,132.158 221.560,132.102 222.142 C 131.933 223.896,130.560 223.861,130.560 222.102 C 130.560 221.013,130.455 220.800,129.920 220.800 C 129.492 220.800,129.280 220.587,129.280 220.157 C 129.280 219.803,128.992 219.267,128.640 218.966 C 128.288 218.664,128.000 218.148,128.000 217.819 C 128.000 217.489,127.712 217.145,127.360 217.053 C 127.006 216.960,126.720 216.616,126.720 216.283 C 126.720 215.951,126.504 215.680,126.240 215.680 C 125.920 215.680,125.760 215.360,125.760 214.723 C 125.760 214.112,125.528 213.621,125.120 213.366 C 124.768 213.146,124.480 212.713,124.480 212.403 C 124.480 212.093,124.207 211.567,123.873 211.233 C 123.539 210.899,123.165 210.169,123.042 209.611 C 122.920 209.053,122.617 208.519,122.370 208.424 C 122.122 208.329,121.920 207.979,121.920 207.646 C 121.920 207.253,121.695 207.040,121.280 207.040 C 120.716 207.040,120.640 206.827,120.640 205.250 C 120.640 203.729,120.544 203.435,120.000 203.293 C 119.499 203.162,119.360 202.856,119.360 201.883 C 119.360 200.853,119.250 200.640,118.720 200.640 C 118.146 200.640,118.080 200.427,118.080 198.563 C 118.080 196.832,117.973 196.419,117.440 196.086 C 116.886 195.740,116.800 195.339,116.800 193.120 C 116.800 190.901,116.886 190.500,117.440 190.154 C 117.802 189.928,118.080 189.408,118.080 188.957 C 118.080 188.161,118.083 188.160,121.280 188.160 C 124.267 188.160,124.480 188.203,124.480 188.800 C 124.480 189.354,124.693 189.440,126.061 189.440 C 126.931 189.440,127.731 189.584,127.840 189.760 C 127.949 189.936,128.741 190.080,129.600 190.080 C 130.459 190.080,131.251 189.936,131.360 189.760 C 131.469 189.584,132.139 189.440,132.849 189.440 C 133.850 189.440,134.176 189.303,134.300 188.830 C 134.387 188.494,134.734 188.147,135.070 188.060 C 135.527 187.940,135.680 187.612,135.680 186.750 C 135.680 185.980,135.827 185.600,136.126 185.600 C 136.725 185.600,136.960 184.888,136.960 183.074 C 136.960 182.003,137.147 181.360,137.600 180.874 C 137.952 180.496,138.242 179.785,138.246 179.293 C 138.252 178.320,139.440 176.960,140.285 176.960 C 140.579 176.960,140.800 177.223,140.800 177.574 C 140.800 178.528,141.145 179.200,141.634 179.200 C 141.879 179.200,142.080 179.488,142.080 179.840 C 142.080 180.267,142.293 180.480,142.720 180.480 C 143.147 180.480,143.360 180.693,143.360 181.120 C 143.360 181.472,143.556 181.760,143.796 181.760 C 144.104 181.760,144.283 182.391,144.404 183.901 C 144.520 185.339,144.744 186.165,145.088 186.416 C 145.485 186.706,145.600 187.377,145.600 189.395 L 145.600 192.000 144.480 192.000 C 143.573 192.000,143.360 192.122,143.360 192.640 C 143.360 193.243,143.147 193.280,139.650 193.280 C 136.209 193.280,135.928 193.326,135.773 193.920 C 135.680 194.274,135.336 194.560,135.003 194.560 C 134.620 194.560,134.400 194.786,134.400 195.179 C 134.400 195.616,134.142 195.827,133.520 195.899 C 132.896 195.971,132.501 196.296,132.160 197.019 C 131.896 197.579,131.428 198.106,131.120 198.189 C 130.812 198.272,130.560 198.570,130.560 198.850 C 130.560 199.131,130.344 199.360,130.080 199.360 C 129.813 199.360,129.600 199.644,129.600 200.000 C 129.600 200.535,129.387 200.640,128.304 200.640 L 127.008 200.640 127.104 202.480 L 127.200 204.320 128.400 204.419 C 129.165 204.483,129.600 204.680,129.600 204.965 C 129.600 205.957,133.818 205.944,134.199 204.951 C 134.312 204.656,134.814 204.480,135.540 204.480 C 136.431 204.480,136.739 204.332,136.867 203.840 C 136.994 203.355,137.304 203.200,138.147 203.200 C 138.991 203.200,139.300 203.045,139.427 202.560 C 139.519 202.208,139.794 201.920,140.037 201.920 C 140.281 201.920,140.480 201.632,140.480 201.280 C 140.480 200.716,140.693 200.640,142.270 200.640 C 143.791 200.640,144.085 200.544,144.227 200.000 C 144.358 199.499,144.664 199.360,145.637 199.360 C 146.667 199.360,146.880 199.250,146.880 198.720 C 146.880 198.187,147.093 198.080,148.160 198.080 C 149.227 198.080,149.440 197.973,149.440 197.440 C 149.440 197.013,149.653 196.800,150.080 196.800 C 150.507 196.800,150.720 196.587,150.720 196.160 C 150.720 195.733,150.933 195.520,151.360 195.520 C 151.874 195.520,152.000 195.307,152.000 194.437 C 152.000 193.624,152.159 193.313,152.640 193.187 C 153.243 193.029,153.280 192.751,153.280 188.320 C 153.280 183.889,153.243 183.611,152.640 183.453 C 152.098 183.311,152.000 183.016,152.000 181.533 C 152.000 180.049,151.902 179.754,151.360 179.613 C 150.875 179.486,150.720 179.176,150.720 178.333 C 150.720 177.489,150.565 177.180,150.080 177.053 C 149.726 176.960,149.440 176.616,149.440 176.283 C 149.440 175.893,149.213 175.680,148.800 175.680 C 148.351 175.680,148.159 175.465,148.155 174.960 C 148.149 174.078,147.854 173.617,147.120 173.347 C 146.812 173.233,146.560 172.926,146.560 172.665 C 146.560 172.374,146.123 172.107,145.440 171.979 C 144.824 171.863,144.320 171.586,144.320 171.362 C 144.320 170.760,143.236 170.569,139.786 170.564 C 136.470 170.560,135.680 170.712,135.680 171.359 C 135.680 171.584,135.192 171.860,134.595 171.972 C 133.889 172.105,133.453 172.396,133.345 172.808 C 133.254 173.156,132.957 173.440,132.684 173.440 C 132.372 173.440,132.112 173.853,131.979 174.560 C 131.827 175.371,131.602 175.680,131.164 175.680 C 130.766 175.680,130.560 175.906,130.560 176.343 C 130.560 176.707,130.344 177.222,130.080 177.486 C 129.816 177.750,129.600 178.525,129.600 179.208 C 129.600 181.278,127.503 182.903,126.720 181.440 C 126.399 180.840,126.050 180.800,121.109 180.800 C 116.267 180.800,115.788 180.852,115.200 181.440 C 114.189 182.451,113.386 182.267,113.143 180.969 C 113.028 180.357,112.736 179.745,112.494 179.609 C 112.165 179.423,112.027 178.318,111.947 175.254 C 111.857 171.791,111.752 171.083,111.280 170.738 C 110.861 170.433,110.720 169.874,110.720 168.525 L 110.720 166.720 114.206 166.720 C 116.856 166.720,117.732 166.615,117.859 166.283 C 117.959 166.024,118.705 165.781,119.697 165.686 C 120.782 165.582,121.469 165.343,121.659 165.003 C 121.871 164.625,122.412 164.479,123.616 164.476 C 125.685 164.470,126.720 164.206,126.720 163.683 C 126.720 163.402,127.554 163.236,129.484 163.135 C 131.579 163.025,132.343 162.861,132.639 162.455 C 132.896 162.104,133.486 161.920,134.355 161.920 C 135.467 161.920,135.680 161.817,135.680 161.280 C 135.680 160.676,135.893 160.640,139.520 160.640 C 143.147 160.640,143.360 160.676,143.360 161.280 M265.440 161.280 C 265.571 161.693,265.924 161.920,266.435 161.920 C 266.870 161.920,267.536 162.208,267.914 162.560 C 268.418 163.030,269.043 163.200,270.263 163.200 C 271.656 163.200,271.952 163.304,272.093 163.840 C 272.235 164.384,272.529 164.480,274.050 164.480 C 275.627 164.480,275.840 164.556,275.840 165.120 C 275.840 165.650,276.053 165.760,277.086 165.760 C 277.898 165.760,278.396 165.927,278.516 166.240 C 278.669 166.641,279.601 166.720,284.150 166.720 L 289.600 166.720 289.600 170.549 C 289.600 174.050,289.545 174.407,288.960 174.720 C 288.383 175.029,288.316 175.415,288.276 178.651 C 288.252 180.625,288.170 181.916,288.094 181.520 C 288.018 181.124,287.808 180.800,287.628 180.800 C 287.448 180.800,286.935 180.512,286.487 180.160 C 285.799 179.618,285.189 179.520,282.517 179.520 C 279.573 179.520,279.360 179.563,279.360 180.160 C 279.360 180.722,279.147 180.800,277.600 180.800 C 276.053 180.800,275.840 180.878,275.840 181.440 C 275.840 182.027,275.627 182.080,273.280 182.080 L 270.720 182.080 270.720 180.979 C 270.720 180.373,270.592 179.799,270.435 179.702 C 270.120 179.507,269.811 178.010,269.549 175.402 C 269.415 174.068,269.240 173.648,268.768 173.524 C 268.429 173.436,268.160 173.085,268.160 172.733 C 268.160 172.369,267.888 172.029,267.520 171.933 C 267.166 171.840,266.880 171.496,266.880 171.163 C 266.880 170.785,266.654 170.560,266.274 170.560 C 265.941 170.560,265.586 170.344,265.484 170.080 C 265.169 169.258,257.484 169.393,256.407 170.240 C 255.960 170.592,255.407 170.880,255.178 170.880 C 254.950 170.880,254.672 171.168,254.560 171.520 C 254.448 171.872,254.167 172.160,253.936 172.160 C 253.704 172.160,253.439 172.448,253.347 172.800 C 253.255 173.152,252.957 173.440,252.684 173.440 C 252.372 173.440,252.112 173.853,251.979 174.560 C 251.863 175.176,251.584 175.680,251.359 175.680 C 250.875 175.680,250.560 176.385,250.560 177.466 C 250.560 177.941,250.374 178.240,250.080 178.240 C 249.738 178.240,249.600 178.588,249.600 179.449 C 249.600 180.262,249.390 180.837,248.960 181.206 C 248.408 181.678,248.320 182.150,248.320 184.634 C 248.320 187.168,248.243 187.563,247.680 187.914 C 247.134 188.255,247.040 188.661,247.040 190.667 C 247.040 192.751,247.113 193.039,247.680 193.187 C 248.220 193.328,248.320 193.624,248.320 195.077 C 248.320 196.587,248.399 196.800,248.960 196.800 C 249.387 196.800,249.600 197.013,249.600 197.440 C 249.600 197.958,249.813 198.080,250.720 198.080 C 251.627 198.080,251.840 198.202,251.840 198.720 C 251.840 199.189,252.053 199.360,252.640 199.360 C 253.108 199.360,253.440 199.544,253.440 199.803 C 253.440 200.436,254.471 200.631,257.840 200.636 C 260.585 200.640,260.800 200.686,260.800 201.280 C 260.800 201.707,261.013 201.920,261.440 201.920 C 261.867 201.920,262.080 202.133,262.080 202.560 C 262.080 202.916,262.293 203.200,262.560 203.200 C 262.824 203.200,263.328 203.488,263.680 203.840 C 264.032 204.192,264.608 204.480,264.960 204.480 C 265.312 204.480,265.888 204.768,266.240 205.120 C 266.727 205.607,267.307 205.760,268.670 205.760 C 270.191 205.760,270.485 205.664,270.627 205.120 C 270.751 204.648,271.064 204.480,271.817 204.480 C 272.579 204.480,273.018 204.239,273.540 203.533 C 274.764 201.877,274.368 200.640,272.614 200.640 C 272.266 200.640,272.000 200.419,272.000 200.130 C 272.000 199.850,271.712 199.545,271.360 199.453 C 271.008 199.361,270.720 199.073,270.720 198.813 C 270.720 198.553,270.432 198.265,270.080 198.173 C 269.728 198.081,269.440 197.793,269.440 197.533 C 269.440 197.273,269.152 196.985,268.800 196.893 C 268.448 196.801,268.160 196.526,268.160 196.283 C 268.160 196.039,267.872 195.840,267.520 195.840 C 267.093 195.840,266.880 195.627,266.880 195.200 C 266.880 194.787,266.667 194.560,266.277 194.560 C 265.944 194.560,265.600 194.274,265.507 193.920 C 265.360 193.356,265.071 193.280,263.070 193.280 C 261.227 193.280,260.680 193.160,260.160 192.640 C 259.693 192.173,259.093 192.000,257.938 192.000 C 255.658 192.000,255.499 191.652,255.619 186.925 C 255.710 183.326,255.763 183.040,256.339 183.040 C 256.850 183.040,256.960 182.814,256.960 181.760 C 256.960 180.857,257.096 180.480,257.423 180.480 C 257.871 180.480,258.445 179.657,259.264 177.840 C 259.714 176.840,262.080 176.486,262.080 177.418 C 262.080 177.671,262.368 177.968,262.720 178.080 C 263.257 178.250,263.360 178.564,263.360 180.022 C 263.360 181.291,263.480 181.760,263.804 181.760 C 264.127 181.760,264.281 182.351,264.370 183.926 C 264.467 185.637,264.643 186.243,265.206 186.806 C 265.599 187.199,265.920 187.664,265.920 187.840 C 265.920 188.016,266.424 188.160,267.040 188.160 C 267.947 188.160,268.160 188.282,268.160 188.800 C 268.160 189.261,268.373 189.440,268.923 189.440 C 269.343 189.440,270.099 189.655,270.603 189.918 C 271.806 190.545,275.195 190.553,276.019 189.930 C 276.360 189.672,277.252 189.456,278.000 189.450 C 279.143 189.442,279.360 189.338,279.360 188.800 C 279.360 188.373,279.573 188.160,280.000 188.160 C 280.372 188.160,280.640 188.373,280.640 188.670 C 280.640 188.950,280.928 189.255,281.280 189.347 C 281.765 189.474,281.920 189.784,281.920 190.627 C 281.920 191.471,282.075 191.780,282.560 191.907 C 282.912 191.999,283.200 192.274,283.200 192.517 C 283.200 192.761,282.912 193.248,282.560 193.600 C 282.006 194.154,281.920 194.667,281.920 197.403 C 281.920 200.296,281.866 200.580,281.280 200.733 C 280.805 200.857,280.640 201.169,280.640 201.945 C 280.640 202.519,280.394 203.261,280.094 203.593 C 279.738 203.986,279.502 204.914,279.417 206.258 C 279.305 208.018,279.197 208.320,278.683 208.320 C 278.351 208.320,278.080 208.536,278.080 208.800 C 278.080 209.064,277.792 209.568,277.440 209.920 C 277.088 210.272,276.800 210.920,276.800 211.360 C 276.800 211.858,276.619 212.160,276.320 212.160 C 275.985 212.160,275.840 212.498,275.840 213.280 C 275.840 214.187,275.718 214.400,275.200 214.400 C 274.781 214.400,274.560 214.613,274.560 215.018 C 274.560 215.359,274.272 215.728,273.920 215.840 C 273.444 215.991,273.280 216.324,273.280 217.142 C 273.280 218.027,273.156 218.240,272.640 218.240 C 272.227 218.240,272.000 218.453,272.000 218.843 C 272.000 219.176,271.714 219.520,271.360 219.613 C 271.008 219.705,270.720 220.016,270.720 220.303 C 270.720 220.591,270.432 221.136,270.080 221.514 C 269.728 221.892,269.440 222.462,269.440 222.780 C 269.440 223.147,269.204 223.360,268.800 223.360 C 268.240 223.360,268.160 223.147,268.160 221.643 C 268.160 220.411,267.979 219.697,267.520 219.113 C 267.168 218.665,266.880 217.998,266.880 217.630 C 266.880 217.173,266.676 216.960,266.240 216.960 C 265.707 216.960,265.600 216.747,265.600 215.680 C 265.600 214.613,265.493 214.400,264.960 214.400 C 264.533 214.400,264.320 214.187,264.320 213.760 C 264.320 213.333,264.107 213.120,263.680 213.120 C 263.253 213.120,263.040 212.907,263.040 212.480 C 263.040 211.947,262.827 211.840,261.760 211.840 C 260.716 211.840,260.480 211.728,260.480 211.232 C 260.480 209.866,251.002 209.863,250.645 211.229 C 250.403 212.155,246.152 212.132,245.354 211.200 C 245.053 210.848,244.445 210.560,244.003 210.560 C 243.319 210.560,243.200 210.414,243.200 209.570 C 243.200 208.849,243.026 208.535,242.560 208.413 C 242.206 208.320,241.920 207.976,241.920 207.643 C 241.920 207.253,241.693 207.040,241.280 207.040 C 240.845 207.040,240.640 206.827,240.640 206.375 C 240.640 205.522,238.308 203.200,237.452 203.200 C 237.013 203.200,236.800 202.991,236.800 202.560 C 236.800 202.133,236.587 201.920,236.160 201.920 C 235.733 201.920,235.520 201.707,235.520 201.280 C 235.520 200.771,235.307 200.640,234.477 200.640 C 233.781 200.640,233.301 200.427,233.034 200.000 C 232.713 199.485,232.288 199.360,230.864 199.360 C 229.536 199.360,228.922 199.200,228.406 198.720 C 227.959 198.303,227.266 198.076,226.420 198.070 C 225.705 198.064,224.840 197.848,224.499 197.590 C 223.651 196.948,220.375 196.956,219.840 197.600 C 219.621 197.864,219.171 198.080,218.841 198.080 C 218.453 198.080,218.240 198.307,218.240 198.720 C 218.240 199.147,218.027 199.360,217.600 199.360 C 217.013 199.360,216.960 199.573,216.960 201.920 C 216.960 204.214,217.023 204.480,217.563 204.480 C 217.896 204.480,218.240 204.766,218.333 205.120 C 218.460 205.606,218.769 205.760,219.616 205.760 C 220.312 205.760,220.801 205.940,220.916 206.240 C 221.066 206.633,221.857 206.720,225.259 206.720 C 229.090 206.720,229.444 206.770,229.760 207.360 C 230.001 207.811,230.430 208.000,231.211 208.000 C 231.946 208.000,232.320 208.151,232.320 208.446 C 232.320 208.935,232.992 209.280,233.946 209.280 C 234.347 209.280,234.560 209.502,234.560 209.920 C 234.560 210.347,234.773 210.560,235.200 210.560 C 235.699 210.560,235.840 210.773,235.840 211.530 C 235.840 212.064,236.039 212.576,236.282 212.670 C 236.526 212.763,236.815 213.407,236.926 214.100 C 237.037 214.793,237.273 215.360,237.452 215.360 C 237.630 215.360,237.913 215.720,238.080 216.160 C 238.247 216.600,238.587 216.960,238.835 216.960 C 239.083 216.960,239.361 217.248,239.453 217.600 C 239.545 217.952,239.833 218.240,240.093 218.240 C 240.353 218.240,240.641 218.528,240.733 218.880 C 240.875 219.424,241.169 219.520,242.690 219.520 C 244.068 219.520,244.480 219.631,244.480 220.000 C 244.480 220.384,244.960 220.480,246.880 220.480 C 248.800 220.480,249.280 220.384,249.280 220.000 C 249.280 219.596,249.991 219.520,253.760 219.520 C 257.529 219.520,258.240 219.596,258.240 220.000 C 258.240 220.267,258.524 220.480,258.880 220.480 C 259.307 220.480,259.520 220.693,259.520 221.120 C 259.520 221.547,259.733 221.760,260.160 221.760 C 260.773 221.760,260.800 221.973,260.800 226.880 C 260.800 231.787,260.773 232.000,260.160 232.000 C 259.627 232.000,259.520 232.213,259.520 233.280 C 259.520 234.347,259.413 234.560,258.880 234.560 C 258.366 234.560,258.240 234.773,258.240 235.643 C 258.240 236.456,258.081 236.767,257.600 236.893 C 257.217 236.993,256.960 237.329,256.960 237.730 C 256.960 238.112,256.754 238.400,256.480 238.400 C 256.216 238.400,256.000 238.523,256.000 238.673 C 256.000 238.824,255.640 239.335,255.200 239.810 C 254.760 240.285,254.400 240.954,254.400 241.296 C 254.400 241.707,254.181 241.920,253.760 241.920 C 253.333 241.920,253.120 242.133,253.120 242.560 C 253.120 242.987,252.907 243.200,252.480 243.200 C 252.053 243.200,251.840 243.413,251.840 243.840 C 251.840 244.309,251.627 244.480,251.043 244.480 C 250.592 244.480,250.072 244.758,249.846 245.120 C 249.626 245.472,249.193 245.760,248.883 245.760 C 248.533 245.760,248.320 246.002,248.320 246.400 C 248.320 246.827,248.107 247.040,247.680 247.040 C 247.253 247.040,247.040 247.253,247.040 247.680 C 247.040 248.213,246.827 248.320,245.760 248.320 C 244.693 248.320,244.480 248.427,244.480 248.960 C 244.480 249.459,244.267 249.600,243.510 249.600 C 242.943 249.600,242.463 249.799,242.356 250.080 C 242.254 250.344,241.885 250.560,241.536 250.560 C 241.169 250.560,240.829 250.831,240.733 251.200 C 240.628 251.602,240.296 251.840,239.843 251.840 C 238.435 251.840,237.120 252.246,237.120 252.680 C 237.120 252.922,236.832 253.120,236.480 253.120 C 236.053 253.120,235.840 253.333,235.840 253.760 C 235.840 254.324,235.627 254.400,234.050 254.400 C 232.529 254.400,232.235 254.496,232.093 255.040 C 231.963 255.536,231.656 255.680,230.726 255.680 C 230.011 255.680,229.198 255.939,228.713 256.320 C 228.137 256.773,227.415 256.960,226.240 256.960 C 224.849 256.960,224.553 257.064,224.413 257.600 C 224.252 258.215,223.976 258.240,217.403 258.240 C 210.773 258.240,210.560 258.220,210.560 257.600 C 210.560 257.067,210.347 256.960,209.280 256.960 C 208.213 256.960,208.000 256.853,208.000 256.320 C 208.000 255.893,207.787 255.680,207.360 255.680 C 206.933 255.680,206.720 255.467,206.720 255.040 C 206.720 254.688,206.521 254.400,206.277 254.400 C 206.034 254.400,205.759 254.112,205.667 253.760 C 205.575 253.408,205.292 253.120,205.037 253.120 C 204.502 253.120,204.112 246.206,204.400 241.840 C 204.542 239.690,204.644 239.360,205.162 239.360 C 205.547 239.360,205.760 239.132,205.760 238.720 C 205.760 238.187,205.973 238.080,207.040 238.080 C 208.107 238.080,208.320 238.187,208.320 238.720 C 208.320 239.236,208.533 239.360,209.418 239.360 C 210.236 239.360,210.569 239.524,210.720 240.000 C 210.871 240.476,211.204 240.640,212.022 240.640 C 212.813 240.640,213.120 240.782,213.120 241.150 C 213.120 241.430,213.395 241.732,213.730 241.820 C 214.066 241.907,214.413 242.254,214.500 242.590 C 214.620 243.047,214.948 243.200,215.810 243.200 C 216.747 243.200,216.960 243.319,216.960 243.840 C 216.960 244.337,217.173 244.480,217.917 244.480 C 218.528 244.480,219.019 244.712,219.274 245.120 C 219.494 245.472,219.912 245.760,220.203 245.760 C 220.494 245.760,220.814 245.976,220.916 246.240 C 221.063 246.625,221.771 246.720,224.480 246.720 C 227.189 246.720,227.897 246.625,228.044 246.240 C 228.146 245.976,228.501 245.760,228.834 245.760 C 229.227 245.760,229.440 245.535,229.440 245.120 C 229.440 244.623,229.653 244.480,230.397 244.480 C 231.008 244.480,231.499 244.248,231.754 243.840 C 231.974 243.488,232.326 243.200,232.535 243.200 C 232.745 243.200,233.004 242.925,233.111 242.590 C 233.217 242.254,233.515 241.898,233.772 241.800 C 234.060 241.689,234.240 241.186,234.240 240.490 C 234.240 239.573,234.361 239.360,234.880 239.360 C 235.307 239.360,235.520 239.147,235.520 238.720 C 235.520 238.293,235.733 238.080,236.160 238.080 C 236.587 238.080,236.800 237.867,236.800 237.440 C 236.800 237.012,237.013 236.800,237.443 236.800 C 237.797 236.800,238.333 236.512,238.634 236.160 C 238.936 235.808,239.510 235.520,239.911 235.520 C 240.420 235.520,240.640 235.332,240.640 234.896 C 240.640 234.361,240.902 234.258,242.480 234.176 L 244.320 234.080 244.417 232.400 C 244.502 230.919,244.440 230.720,243.894 230.720 C 243.544 230.720,243.202 230.442,243.107 230.080 C 242.966 229.538,242.671 229.440,241.187 229.440 C 239.704 229.440,239.409 229.342,239.267 228.800 C 239.128 228.266,238.831 228.160,237.470 228.160 C 236.053 228.160,235.840 228.244,235.840 228.800 C 235.840 229.333,235.627 229.440,234.560 229.440 C 233.493 229.440,233.280 229.547,233.280 230.080 C 233.280 230.507,233.067 230.720,232.640 230.720 C 232.213 230.720,232.000 230.933,232.000 231.360 C 232.000 231.787,231.787 232.000,231.360 232.000 C 231.004 232.000,230.720 232.213,230.720 232.480 C 230.720 232.744,230.432 233.248,230.080 233.600 C 229.728 233.952,229.440 234.600,229.440 235.040 C 229.440 235.717,229.291 235.840,228.470 235.840 C 227.903 235.840,227.423 236.039,227.316 236.320 C 227.172 236.694,226.538 236.800,224.446 236.800 C 222.272 236.800,221.760 236.709,221.760 236.320 C 221.760 235.985,221.422 235.840,220.640 235.840 C 219.733 235.840,219.520 235.718,219.520 235.200 C 219.520 234.764,219.307 234.560,218.850 234.560 C 218.449 234.560,218.113 234.303,218.013 233.920 C 217.890 233.451,217.576 233.280,216.840 233.280 C 216.181 233.280,215.696 233.059,215.434 232.640 C 215.192 232.252,214.688 232.000,214.154 232.000 C 213.621 232.000,213.117 231.748,212.874 231.360 C 212.509 230.775,212.128 230.720,208.477 230.720 L 204.480 230.720 204.480 224.480 L 204.480 218.240 208.055 218.240 C 210.893 218.240,211.747 218.346,212.199 218.756 C 212.546 219.069,213.591 219.337,214.865 219.439 C 216.338 219.558,216.960 219.737,216.960 220.044 C 216.960 220.284,217.248 220.480,217.600 220.480 C 218.027 220.480,218.240 220.693,218.240 221.120 C 218.240 221.547,218.453 221.760,218.880 221.760 C 219.307 221.760,219.520 221.973,219.520 222.400 C 219.520 222.827,219.733 223.040,220.160 223.040 C 220.587 223.040,220.800 223.253,220.800 223.680 C 220.800 224.107,221.013 224.320,221.440 224.320 C 221.867 224.320,222.080 224.533,222.080 224.960 C 222.080 225.387,222.293 225.600,222.720 225.600 C 223.147 225.600,223.360 225.813,223.360 226.240 C 223.360 226.758,223.573 226.880,224.480 226.880 C 225.387 226.880,225.600 226.758,225.600 226.240 C 225.600 225.744,225.813 225.600,226.549 225.600 C 227.895 225.600,228.160 224.866,228.160 221.141 C 228.160 218.449,228.064 217.824,227.576 217.336 C 227.254 217.014,226.899 216.510,226.786 216.216 C 226.673 215.921,226.360 215.680,226.090 215.680 C 225.813 215.680,225.600 215.401,225.600 215.040 C 225.600 214.613,225.387 214.400,224.960 214.400 C 224.608 214.400,224.315 214.220,224.308 214.000 C 224.284 213.162,221.596 211.840,219.916 211.840 C 218.584 211.840,218.287 211.732,218.147 211.200 C 217.987 210.586,217.711 210.560,211.244 210.560 L 204.509 210.560 204.299 209.440 C 204.179 208.799,203.899 208.320,203.644 208.320 C 202.922 208.320,203.007 200.692,203.735 200.159 C 204.141 199.863,204.305 199.099,204.415 197.004 C 204.521 194.991,204.676 194.240,204.986 194.240 C 205.220 194.240,205.506 193.736,205.621 193.120 C 205.741 192.479,206.021 192.000,206.276 192.000 C 206.520 192.000,206.720 191.712,206.720 191.360 C 206.720 190.997,206.933 190.720,207.213 190.720 C 207.485 190.720,208.016 190.432,208.394 190.080 C 208.772 189.728,209.414 189.440,209.820 189.440 C 210.347 189.440,210.560 189.255,210.560 188.800 C 210.560 188.203,210.773 188.160,213.760 188.160 C 216.747 188.160,216.960 188.203,216.960 188.800 C 216.960 189.354,217.173 189.440,218.541 189.440 C 219.411 189.440,220.211 189.584,220.320 189.760 C 220.429 189.936,220.861 190.080,221.280 190.080 C 221.699 190.080,222.131 190.224,222.240 190.400 C 222.675 191.103,233.959 190.800,234.147 190.080 C 234.239 189.728,234.566 189.440,234.874 189.440 C 235.182 189.440,235.777 189.177,236.197 188.854 C 236.617 188.532,237.212 188.177,237.520 188.065 C 237.909 187.923,238.080 187.515,238.080 186.730 C 238.080 185.955,238.226 185.600,238.545 185.600 C 239.441 185.600,240.640 184.034,240.640 182.865 C 240.640 181.973,240.764 181.760,241.280 181.760 C 241.693 181.760,241.920 181.547,241.920 181.157 C 241.920 180.824,242.206 180.480,242.560 180.387 C 243.011 180.269,243.200 179.951,243.200 179.307 C 243.200 178.741,243.443 178.242,243.840 177.994 C 244.756 177.422,244.787 174.400,243.877 174.400 C 243.544 174.400,243.200 174.114,243.107 173.760 C 242.828 172.692,238.080 172.875,238.080 173.954 C 238.080 174.199,237.792 174.400,237.440 174.400 C 237.013 174.400,236.800 174.613,236.800 175.040 C 236.800 175.396,236.587 175.680,236.320 175.680 C 236.053 175.680,235.840 175.964,235.840 176.320 C 235.840 176.747,235.627 176.960,235.200 176.960 C 234.667 176.960,234.560 177.173,234.560 178.240 C 234.560 179.307,234.453 179.520,233.920 179.520 C 233.387 179.520,233.280 179.733,233.280 180.800 C 233.280 181.867,233.173 182.080,232.640 182.080 C 232.213 182.080,232.000 182.293,232.000 182.720 C 232.000 183.239,231.787 183.360,230.870 183.360 C 230.161 183.360,229.671 183.539,229.556 183.840 C 229.436 184.153,228.938 184.320,228.126 184.320 C 227.232 184.320,226.880 184.184,226.880 183.840 C 226.880 183.467,226.453 183.360,224.960 183.360 C 223.253 183.360,223.040 183.289,223.040 182.720 C 223.040 182.188,222.827 182.080,221.771 182.080 C 220.830 182.080,220.414 181.915,220.160 181.440 C 219.835 180.833,219.490 180.800,213.559 180.800 C 207.569 180.800,207.293 180.828,207.133 181.440 C 207.002 181.941,206.696 182.080,205.723 182.080 L 204.480 182.080 204.480 176.204 L 204.480 170.329 205.261 170.478 C 205.690 170.560,206.289 170.900,206.590 171.234 C 206.892 171.567,207.405 171.840,207.730 171.840 C 208.107 171.840,208.320 172.071,208.320 172.480 C 208.320 173.041,208.533 173.120,210.043 173.120 C 211.496 173.120,211.792 173.220,211.933 173.760 C 212.088 174.352,212.369 174.400,215.680 174.400 C 218.991 174.400,219.272 174.352,219.427 173.760 C 219.568 173.220,219.864 173.120,221.317 173.120 C 222.827 173.120,223.040 173.041,223.040 172.480 C 223.040 172.053,223.253 171.840,223.680 171.840 C 224.107 171.840,224.320 171.627,224.320 171.200 C 224.320 170.701,224.533 170.560,225.290 170.560 C 225.878 170.560,226.336 170.361,226.454 170.055 C 226.560 169.778,226.988 169.422,227.404 169.263 C 227.820 169.105,228.160 168.756,228.160 168.488 C 228.160 168.213,228.440 168.000,228.800 168.000 C 229.227 168.000,229.440 167.787,229.440 167.360 C 229.440 166.999,229.653 166.720,229.930 166.720 C 230.200 166.720,230.498 166.518,230.592 166.272 C 230.687 166.025,231.042 165.750,231.382 165.661 C 231.722 165.573,232.000 165.270,232.000 164.990 C 232.000 164.633,232.297 164.480,232.990 164.480 C 233.703 164.480,234.026 164.305,234.144 163.854 C 234.300 163.255,234.685 163.224,243.260 163.134 C 251.351 163.049,252.252 162.986,252.621 162.480 C 252.929 162.059,253.487 161.920,254.865 161.920 C 256.431 161.920,256.724 161.826,256.867 161.280 C 257.024 160.682,257.304 160.640,261.136 160.640 C 264.956 160.640,265.251 160.684,265.440 161.280 " stroke="none" fill="#040404" fill-rule="evenodd"></path><path id="path1" d="" stroke="none" fill="#080404" fill-rule="evenodd"></path><path id="path2" d="" stroke="none" fill="#080404" fill-rule="evenodd"></path><path id="path3" d="" stroke="none" fill="#080404" fill-rule="evenodd"></path><path id="path4" d="" stroke="none" fill="#080404" fill-rule="evenodd"></path></g></svg>