<svg id="svg" xmlns="http://www.w3.org/2000/svg" xmlns:xlink="http://www.w3.org/1999/xlink" width="400" height="400" viewBox="0, 0, 400,400"><g id="svgg"><path id="path0" d="M187.400 21.200 C 187.251 21.441,184.470 21.600,180.400 21.600 C 176.330 21.600,173.549 21.759,173.400 22.000 C 173.261 22.225,171.329 22.400,168.976 22.400 C 166.459 22.400,164.800 22.559,164.800 22.800 C 164.800 23.033,163.467 23.200,161.600 23.200 C 159.733 23.200,158.400 23.367,158.400 23.600 C 158.400 23.833,157.067 24.000,155.200 24.000 C 153.333 24.000,152.000 24.167,152.000 24.400 C 152.000 24.622,150.933 24.800,149.600 24.800 C 148.267 24.800,147.200 24.978,147.200 25.200 C 147.200 25.420,146.210 25.600,145.000 25.600 C 143.790 25.600,142.800 25.780,142.800 26.000 C 142.800 26.220,141.930 26.400,140.867 26.400 C 139.803 26.400,138.800 26.535,138.636 26.700 C 138.473 26.865,136.688 27.230,134.669 27.511 C 128.588 28.357,128.004 28.470,127.774 28.842 C 127.652 29.039,126.944 29.200,126.200 29.200 C 125.456 29.200,124.736 29.380,124.600 29.600 C 124.464 29.820,123.733 30.000,122.976 30.000 C 122.219 30.000,121.600 30.180,121.600 30.400 C 121.600 30.620,120.981 30.800,120.224 30.800 C 119.467 30.800,118.736 30.980,118.600 31.200 C 118.464 31.420,117.834 31.600,117.200 31.600 C 116.566 31.600,115.936 31.780,115.800 32.000 C 115.664 32.220,115.034 32.400,114.400 32.400 C 113.766 32.400,113.136 32.580,113.000 32.800 C 112.864 33.020,112.324 33.200,111.800 33.200 C 111.276 33.200,110.736 33.380,110.600 33.600 C 110.464 33.820,109.913 34.000,109.376 34.000 C 108.839 34.000,108.400 34.180,108.400 34.400 C 108.400 34.620,107.860 34.800,107.200 34.800 C 106.540 34.800,106.000 34.980,106.000 35.200 C 106.000 35.420,105.460 35.600,104.800 35.600 C 104.140 35.600,103.600 35.780,103.600 36.000 C 103.600 36.220,103.060 36.400,102.400 36.400 C 101.740 36.400,101.200 36.580,101.200 36.800 C 101.200 37.020,100.750 37.200,100.200 37.200 C 99.650 37.200,99.200 37.380,99.200 37.600 C 99.200 37.820,98.750 38.000,98.200 38.000 C 97.650 38.000,97.200 38.180,97.200 38.400 C 97.200 38.620,96.750 38.800,96.200 38.800 C 95.650 38.800,95.200 38.980,95.200 39.200 C 95.200 39.420,94.840 39.600,94.400 39.600 C 93.960 39.600,93.600 39.780,93.600 40.000 C 93.600 40.220,93.251 40.400,92.824 40.400 C 92.397 40.400,91.936 40.580,91.800 40.800 C 91.664 41.020,91.113 41.200,90.576 41.200 C 90.039 41.200,89.600 41.380,89.600 41.600 C 89.600 41.820,89.240 42.000,88.800 42.000 C 88.360 42.000,88.000 42.180,88.000 42.400 C 88.000 42.620,87.640 42.800,87.200 42.800 C 86.760 42.800,86.400 42.980,86.400 43.200 C 86.400 43.420,86.096 43.600,85.724 43.600 C 84.955 43.600,77.663 47.121,76.898 47.861 C 76.621 48.129,76.036 48.462,75.598 48.601 C 75.159 48.740,74.800 49.022,74.800 49.227 C 74.800 49.432,74.440 49.600,74.000 49.600 C 73.560 49.600,73.200 49.780,73.200 50.000 C 73.200 50.220,72.964 50.400,72.675 50.400 C 72.387 50.400,71.802 50.715,71.375 51.100 C 70.949 51.485,70.105 52.055,69.500 52.368 C 68.895 52.680,68.400 53.085,68.400 53.268 C 68.400 53.450,68.157 53.600,67.859 53.600 C 67.562 53.600,66.754 54.140,66.063 54.800 C 65.372 55.460,64.652 56.000,64.463 56.000 C 64.274 56.000,63.554 56.540,62.863 57.200 C 62.172 57.860,61.509 58.400,61.389 58.400 C 60.881 58.400,50.400 68.631,50.400 69.128 C 50.400 69.322,49.860 70.046,49.200 70.737 C 48.540 71.428,48.000 72.225,48.000 72.508 C 48.000 72.791,47.640 73.283,47.200 73.600 C 46.760 73.917,46.400 74.497,46.400 74.888 C 46.400 75.280,46.258 75.600,46.084 75.600 C 45.662 75.600,43.600 79.701,43.600 80.540 C 43.600 80.903,43.420 81.200,43.200 81.200 C 42.980 81.200,42.800 81.650,42.800 82.200 C 42.800 82.750,42.620 83.200,42.400 83.200 C 42.180 83.200,42.000 83.740,42.000 84.400 C 42.000 85.060,41.820 85.600,41.600 85.600 C 41.380 85.600,41.200 86.500,41.200 87.600 C 41.200 88.700,41.020 89.600,40.800 89.600 C 40.259 89.600,40.259 103.066,40.800 103.400 C 41.020 103.536,41.200 104.256,41.200 105.000 C 41.200 105.744,41.380 106.464,41.600 106.600 C 41.820 106.736,42.000 107.287,42.000 107.824 C 42.000 108.361,42.180 108.800,42.400 108.800 C 42.620 108.800,42.800 109.340,42.800 110.000 C 42.800 110.660,42.964 111.200,43.165 111.200 C 43.366 111.200,43.651 111.920,43.800 112.800 C 43.949 113.680,44.234 114.400,44.435 114.400 C 44.636 114.400,44.800 114.760,44.800 115.200 C 44.800 115.640,44.958 116.000,45.151 116.000 C 45.345 116.000,45.727 116.540,46.000 117.200 C 46.273 117.860,46.655 118.400,46.849 118.400 C 47.042 118.400,47.200 118.636,47.200 118.925 C 47.200 119.213,47.533 119.806,47.939 120.243 C 48.346 120.679,48.751 121.237,48.839 121.481 C 49.258 122.639,57.310 131.200,57.982 131.200 C 58.183 131.200,59.323 132.190,60.514 133.400 C 61.705 134.610,62.846 135.600,63.051 135.600 C 63.256 135.600,63.683 135.960,64.000 136.400 C 64.317 136.840,64.762 137.200,64.988 137.201 C 65.215 137.201,66.030 137.741,66.800 138.400 C 67.570 139.059,68.425 139.599,68.700 139.599 C 68.975 139.600,69.200 139.753,69.200 139.939 C 69.200 140.126,69.920 140.603,70.800 141.000 C 71.680 141.397,72.400 141.874,72.400 142.061 C 72.400 142.247,72.760 142.400,73.200 142.400 C 73.640 142.400,74.000 142.580,74.000 142.800 C 74.000 143.020,74.278 143.200,74.617 143.200 C 74.956 143.200,75.620 143.560,76.092 144.000 C 76.564 144.440,77.187 144.800,77.475 144.800 C 77.764 144.800,78.000 144.980,78.000 145.200 C 78.000 145.420,78.270 145.600,78.600 145.600 C 78.930 145.600,79.200 145.780,79.200 146.000 C 79.200 146.220,79.560 146.400,80.000 146.400 C 80.440 146.400,80.800 146.580,80.800 146.800 C 80.800 147.020,81.160 147.200,81.600 147.200 C 82.040 147.200,82.400 147.380,82.400 147.600 C 82.400 147.820,82.760 148.000,83.200 148.000 C 83.640 148.000,84.000 148.180,84.000 148.400 C 84.000 148.620,84.360 148.800,84.800 148.800 C 85.240 148.800,85.600 148.980,85.600 149.200 C 85.600 149.420,85.960 149.600,86.400 149.600 C 86.840 149.600,87.200 149.780,87.200 150.000 C 87.200 150.220,87.549 150.400,87.976 150.400 C 88.403 150.400,88.864 150.580,89.000 150.800 C 89.136 151.020,89.687 151.200,90.224 151.200 C 90.761 151.200,91.200 151.380,91.200 151.600 C 91.200 151.820,91.560 152.000,92.000 152.000 C 92.440 152.000,92.800 152.180,92.800 152.400 C 92.800 152.620,93.072 152.800,93.405 152.800 C 93.738 152.800,94.323 152.965,94.705 153.167 C 96.379 154.052,99.240 155.200,99.772 155.200 C 100.091 155.200,100.464 155.380,100.600 155.600 C 100.736 155.820,101.276 156.000,101.800 156.000 C 102.324 156.000,102.864 156.180,103.000 156.400 C 103.136 156.620,103.687 156.800,104.224 156.800 C 104.761 156.800,105.200 156.980,105.200 157.200 C 105.200 157.420,105.639 157.600,106.176 157.600 C 106.713 157.600,107.256 157.767,107.383 157.972 C 107.509 158.177,108.600 158.467,109.806 158.618 C 111.013 158.769,112.000 159.051,112.000 159.246 C 112.000 159.441,112.540 159.600,113.200 159.600 C 113.860 159.600,114.400 159.780,114.400 160.000 C 114.400 160.220,115.019 160.400,115.776 160.400 C 116.533 160.400,117.264 160.580,117.400 160.800 C 117.536 161.020,118.177 161.200,118.824 161.200 C 119.471 161.200,120.000 161.380,120.000 161.600 C 120.000 161.820,120.720 162.000,121.600 162.000 C 122.480 162.000,123.200 162.180,123.200 162.400 C 123.200 162.620,123.920 162.800,124.800 162.800 C 125.680 162.800,126.400 162.980,126.400 163.200 C 126.400 163.420,127.019 163.600,127.776 163.600 C 128.533 163.600,129.264 163.780,129.400 164.000 C 129.536 164.220,130.447 164.400,131.424 164.400 C 132.401 164.400,133.200 164.580,133.200 164.800 C 133.200 165.020,133.999 165.200,134.976 165.200 C 135.953 165.200,136.864 165.380,137.000 165.600 C 137.136 165.820,138.137 166.000,139.224 166.000 C 140.311 166.000,141.200 166.180,141.200 166.400 C 141.200 166.620,142.089 166.800,143.176 166.800 C 144.263 166.800,145.264 166.980,145.400 167.200 C 145.536 167.420,146.717 167.600,148.024 167.600 C 149.341 167.600,150.400 167.778,150.400 168.000 C 150.400 168.229,151.600 168.400,153.200 168.400 C 154.800 168.400,156.000 168.571,156.000 168.800 C 156.000 169.033,157.333 169.200,159.200 169.200 C 161.067 169.200,162.400 169.367,162.400 169.600 C 162.400 169.838,163.925 170.000,166.176 170.000 C 168.263 170.000,170.063 170.179,170.200 170.400 C 170.345 170.635,172.671 170.800,175.824 170.800 C 179.141 170.800,181.200 170.953,181.200 171.200 C 181.200 171.750,218.660 171.750,219.000 171.200 C 219.145 170.965,221.471 170.800,224.624 170.800 C 227.941 170.800,230.000 170.647,230.000 170.400 C 230.000 170.162,231.525 170.000,233.776 170.000 C 235.863 170.000,237.663 169.821,237.800 169.600 C 237.936 169.380,239.387 169.200,241.024 169.200 C 242.741 169.200,244.000 169.031,244.000 168.800 C 244.000 168.571,245.200 168.400,246.800 168.400 C 248.400 168.400,249.600 168.229,249.600 168.000 C 249.600 167.778,250.659 167.600,251.976 167.600 C 253.283 167.600,254.464 167.420,254.600 167.200 C 254.736 166.980,255.737 166.800,256.824 166.800 C 257.911 166.800,258.800 166.620,258.800 166.400 C 258.800 166.180,259.700 166.000,260.800 166.000 C 261.900 166.000,262.800 165.820,262.800 165.600 C 262.800 165.380,263.700 165.200,264.800 165.200 C 265.900 165.200,266.800 165.020,266.800 164.800 C 266.800 164.580,267.599 164.400,268.576 164.400 C 269.553 164.400,270.464 164.220,270.600 164.000 C 270.736 163.780,271.467 163.600,272.224 163.600 C 272.981 163.600,273.600 163.420,273.600 163.200 C 273.600 162.980,274.320 162.800,275.200 162.800 C 276.080 162.800,276.800 162.620,276.800 162.400 C 276.800 162.180,277.520 162.000,278.400 162.000 C 279.280 162.000,280.000 161.820,280.000 161.600 C 280.000 161.380,280.540 161.200,281.200 161.200 C 281.860 161.200,282.400 161.020,282.400 160.800 C 282.400 160.580,283.120 160.400,284.000 160.400 C 284.880 160.400,285.600 160.220,285.600 160.000 C 285.600 159.780,286.140 159.600,286.800 159.600 C 287.460 159.600,288.000 159.441,288.000 159.246 C 288.000 159.051,288.990 158.768,290.200 158.617 C 291.410 158.466,292.400 158.175,292.400 157.971 C 292.400 157.767,292.940 157.600,293.600 157.600 C 294.260 157.600,294.800 157.420,294.800 157.200 C 294.800 156.980,295.239 156.800,295.776 156.800 C 296.313 156.800,296.864 156.620,297.000 156.400 C 297.136 156.180,297.599 156.000,298.029 156.000 C 298.459 156.000,299.123 155.841,299.505 155.647 C 300.240 155.273,301.999 154.524,303.500 153.946 C 304.382 153.607,304.880 153.407,307.500 152.336 C 308.215 152.044,308.800 151.669,308.800 151.502 C 308.800 151.336,309.239 151.200,309.776 151.200 C 310.313 151.200,310.864 151.020,311.000 150.800 C 311.136 150.580,311.597 150.400,312.024 150.400 C 312.451 150.400,312.800 150.220,312.800 150.000 C 312.800 149.780,313.160 149.600,313.600 149.600 C 314.040 149.600,314.400 149.420,314.400 149.200 C 314.400 148.980,314.760 148.800,315.200 148.800 C 315.640 148.800,316.000 148.620,316.000 148.400 C 316.000 148.180,316.360 148.000,316.800 148.000 C 317.240 148.000,317.600 147.820,317.600 147.600 C 317.600 147.380,317.960 147.200,318.400 147.200 C 318.840 147.200,319.200 147.020,319.200 146.800 C 319.200 146.580,319.560 146.400,320.000 146.400 C 320.440 146.400,320.800 146.220,320.800 146.000 C 320.800 145.780,321.070 145.600,321.400 145.600 C 321.730 145.600,322.000 145.454,322.000 145.275 C 322.000 145.096,322.630 144.702,323.400 144.400 C 324.170 144.098,324.800 143.704,324.800 143.525 C 324.800 143.346,325.070 143.200,325.400 143.200 C 325.730 143.200,326.003 143.065,326.007 142.900 C 326.010 142.735,327.090 142.066,328.407 141.414 C 329.723 140.761,330.800 140.086,330.800 139.914 C 330.800 139.741,331.025 139.600,331.300 139.599 C 331.575 139.599,332.430 139.059,333.200 138.400 C 333.970 137.741,334.759 137.201,334.953 137.201 C 335.147 137.200,335.597 136.876,335.953 136.481 C 336.309 136.086,337.230 135.328,338.000 134.796 C 339.621 133.679,341.600 131.678,341.600 131.158 C 341.600 130.961,341.854 130.800,342.165 130.800 C 342.771 130.800,346.507 127.206,348.800 124.416 C 349.570 123.480,350.425 122.476,350.700 122.185 C 350.975 121.895,351.200 121.464,351.200 121.229 C 351.200 120.993,351.350 120.800,351.532 120.800 C 351.715 120.800,352.120 120.305,352.432 119.700 C 352.745 119.095,353.315 118.251,353.700 117.825 C 354.085 117.398,354.400 116.813,354.400 116.525 C 354.400 116.236,354.580 116.000,354.800 116.000 C 355.020 116.000,355.200 115.640,355.200 115.200 C 355.200 114.760,355.380 114.400,355.600 114.400 C 355.820 114.400,356.000 114.040,356.000 113.600 C 356.000 113.160,356.180 112.800,356.400 112.800 C 356.620 112.800,356.800 112.451,356.800 112.024 C 356.800 111.597,356.980 111.136,357.200 111.000 C 357.420 110.864,357.600 110.313,357.600 109.776 C 357.600 109.239,357.766 108.800,357.968 108.800 C 358.171 108.800,358.462 107.630,358.615 106.200 C 358.768 104.770,359.052 103.600,359.247 103.600 C 359.701 103.600,359.712 89.317,359.258 89.036 C 359.070 88.920,358.803 87.742,358.665 86.418 C 358.527 85.094,358.245 83.693,358.039 83.305 C 357.281 81.876,356.000 78.797,356.000 78.404 C 356.000 78.182,355.820 78.000,355.600 78.000 C 355.380 78.000,355.200 77.764,355.200 77.475 C 355.200 77.187,354.840 76.564,354.400 76.092 C 353.960 75.620,353.600 74.956,353.600 74.617 C 353.600 74.278,353.432 74.000,353.227 74.000 C 353.022 74.000,352.738 73.634,352.596 73.187 C 352.454 72.740,351.902 71.938,351.369 71.405 C 350.836 70.872,350.400 70.259,350.400 70.042 C 350.400 69.369,339.241 58.400,338.556 58.400 C 338.427 58.400,337.817 57.860,337.200 57.200 C 336.583 56.540,335.863 56.000,335.600 56.000 C 335.337 56.000,334.617 55.460,334.000 54.800 C 333.383 54.140,332.631 53.600,332.328 53.600 C 332.025 53.600,331.517 53.240,331.200 52.800 C 330.883 52.360,330.386 52.000,330.095 52.000 C 329.804 52.000,329.180 51.640,328.708 51.200 C 328.236 50.760,327.613 50.400,327.325 50.400 C 327.036 50.400,326.800 50.220,326.800 50.000 C 326.800 49.780,326.522 49.600,326.183 49.600 C 325.844 49.600,325.180 49.240,324.708 48.800 C 324.236 48.360,323.613 48.000,323.325 48.000 C 323.036 48.000,322.799 47.865,322.799 47.700 C 322.798 47.535,321.808 46.950,320.600 46.400 C 319.392 45.850,318.402 45.265,318.401 45.100 C 318.401 44.935,318.040 44.800,317.600 44.800 C 317.160 44.800,316.800 44.636,316.800 44.435 C 316.800 44.234,316.080 43.949,315.200 43.800 C 314.320 43.651,313.600 43.366,313.600 43.165 C 313.600 42.964,313.240 42.800,312.800 42.800 C 312.360 42.800,312.000 42.620,312.000 42.400 C 312.000 42.180,311.640 42.000,311.200 42.000 C 310.760 42.000,310.400 41.820,310.400 41.600 C 310.400 41.380,310.051 41.200,309.624 41.200 C 309.197 41.200,308.736 41.020,308.600 40.800 C 308.464 40.580,308.003 40.400,307.576 40.400 C 307.149 40.400,306.800 40.220,306.800 40.000 C 306.800 39.780,306.451 39.600,306.024 39.600 C 305.597 39.600,305.136 39.420,305.000 39.200 C 304.864 38.980,304.313 38.800,303.776 38.800 C 303.239 38.800,302.800 38.620,302.800 38.400 C 302.800 38.180,302.451 38.000,302.024 38.000 C 301.597 38.000,301.136 37.820,301.000 37.600 C 300.864 37.380,300.313 37.200,299.776 37.200 C 299.239 37.200,298.800 37.020,298.800 36.800 C 298.800 36.580,298.260 36.400,297.600 36.400 C 296.940 36.400,296.400 36.220,296.400 36.000 C 296.400 35.780,295.860 35.600,295.200 35.600 C 294.540 35.600,294.000 35.420,294.000 35.200 C 294.000 34.980,293.460 34.800,292.800 34.800 C 292.140 34.800,291.600 34.620,291.600 34.400 C 291.600 34.180,291.150 34.000,290.600 34.000 C 290.050 34.000,289.600 33.820,289.600 33.600 C 289.600 33.380,289.071 33.200,288.424 33.200 C 287.777 33.200,287.136 33.020,287.000 32.800 C 286.864 32.580,286.234 32.400,285.600 32.400 C 284.966 32.400,284.336 32.220,284.200 32.000 C 284.064 31.780,283.434 31.600,282.800 31.600 C 282.166 31.600,281.536 31.420,281.400 31.200 C 281.264 30.980,280.533 30.800,279.776 30.800 C 279.019 30.800,278.400 30.620,278.400 30.400 C 278.400 30.180,277.781 30.000,277.024 30.000 C 276.267 30.000,275.536 29.820,275.400 29.600 C 275.264 29.380,274.544 29.200,273.800 29.200 C 273.056 29.200,272.336 29.020,272.200 28.800 C 272.064 28.580,271.344 28.400,270.600 28.400 C 269.856 28.400,269.149 28.242,269.030 28.048 C 268.910 27.854,267.280 27.568,265.407 27.412 C 263.535 27.256,261.902 26.965,261.778 26.764 C 261.654 26.564,260.674 26.400,259.600 26.400 C 258.526 26.400,257.536 26.220,257.400 26.000 C 257.264 25.780,256.173 25.600,254.976 25.600 C 253.779 25.600,252.800 25.420,252.800 25.200 C 252.800 24.978,251.733 24.800,250.400 24.800 C 249.067 24.800,248.000 24.622,248.000 24.400 C 248.000 24.167,246.667 24.000,244.800 24.000 C 242.933 24.000,241.600 23.833,241.600 23.600 C 241.600 23.369,240.341 23.200,238.624 23.200 C 236.987 23.200,235.536 23.020,235.400 22.800 C 235.261 22.575,233.337 22.400,231.000 22.400 C 228.663 22.400,226.739 22.225,226.600 22.000 C 226.450 21.758,223.596 21.600,219.376 21.600 C 214.992 21.600,212.400 21.451,212.400 21.200 C 212.400 20.942,208.008 20.800,200.024 20.800 C 192.204 20.800,187.556 20.947,187.400 21.200 M40.400 170.976 C 40.400 194.663,40.538 207.238,40.800 207.400 C 41.020 207.536,41.200 208.267,41.200 209.024 C 41.200 209.781,41.380 210.400,41.600 210.400 C 41.820 210.400,42.000 210.940,42.000 211.600 C 42.000 212.260,42.180 212.800,42.400 212.800 C 42.620 212.800,42.800 213.340,42.800 214.000 C 42.800 214.660,42.980 215.200,43.200 215.200 C 43.420 215.200,43.601 215.515,43.602 215.900 C 43.603 216.285,44.076 217.500,44.653 218.600 C 45.230 219.700,45.904 221.004,46.151 221.497 C 46.398 221.990,46.735 222.395,46.900 222.397 C 47.065 222.399,47.200 222.670,47.200 223.000 C 47.200 223.330,47.341 223.600,47.514 223.600 C 47.686 223.600,48.134 224.119,48.509 224.754 C 50.503 228.129,62.041 239.297,65.362 241.066 C 66.002 241.406,66.891 242.026,67.338 242.443 C 67.785 242.859,68.304 243.200,68.492 243.200 C 68.680 243.200,69.220 243.560,69.692 244.000 C 70.164 244.440,70.787 244.800,71.075 244.800 C 71.364 244.800,71.600 244.980,71.600 245.200 C 71.600 245.420,71.920 245.600,72.312 245.600 C 72.703 245.600,73.283 245.960,73.600 246.400 C 73.917 246.840,74.497 247.200,74.888 247.200 C 75.280 247.200,75.600 247.380,75.600 247.600 C 75.600 247.820,75.960 248.000,76.400 248.000 C 76.840 248.000,77.200 248.150,77.200 248.332 C 77.200 248.515,77.695 248.920,78.300 249.232 C 78.905 249.544,79.490 249.899,79.600 250.021 C 80.040 250.511,88.346 254.400,88.951 254.400 C 89.308 254.400,89.600 254.580,89.600 254.800 C 89.600 255.020,89.960 255.200,90.400 255.200 C 90.840 255.200,91.200 255.380,91.200 255.600 C 91.200 255.820,91.465 256.000,91.790 256.000 C 92.114 256.000,93.532 256.528,94.940 257.172 C 96.348 257.817,98.152 258.467,98.950 258.617 C 99.747 258.767,100.400 259.049,100.400 259.245 C 100.400 259.440,100.940 259.600,101.600 259.600 C 102.260 259.600,102.800 259.780,102.800 260.000 C 102.800 260.220,103.340 260.400,104.000 260.400 C 104.660 260.400,105.200 260.580,105.200 260.800 C 105.200 261.020,105.740 261.200,106.400 261.200 C 107.060 261.200,107.600 261.380,107.600 261.600 C 107.600 261.820,108.140 262.000,108.800 262.000 C 109.460 262.000,110.000 262.180,110.000 262.400 C 110.000 262.620,110.540 262.800,111.200 262.800 C 111.860 262.800,112.400 262.980,112.400 263.200 C 112.400 263.420,112.929 263.600,113.576 263.600 C 114.223 263.600,114.864 263.780,115.000 264.000 C 115.136 264.220,115.777 264.400,116.424 264.400 C 117.071 264.400,117.600 264.580,117.600 264.800 C 117.600 265.020,118.320 265.200,119.200 265.200 C 120.080 265.200,120.800 265.380,120.800 265.600 C 120.800 265.820,121.329 266.000,121.976 266.000 C 122.623 266.000,123.252 266.161,123.374 266.358 C 123.495 266.555,124.361 266.829,125.297 266.967 C 129.481 267.586,130.000 267.705,130.000 268.042 C 130.000 268.239,130.709 268.400,131.576 268.400 C 132.443 268.400,133.264 268.580,133.400 268.800 C 133.536 269.020,134.436 269.200,135.400 269.200 C 136.364 269.200,137.264 269.380,137.400 269.600 C 137.536 269.820,138.436 270.000,139.400 270.000 C 140.364 270.000,141.264 270.180,141.400 270.400 C 141.536 270.620,142.627 270.800,143.824 270.800 C 145.021 270.800,146.000 270.980,146.000 271.200 C 146.000 271.421,147.040 271.600,148.320 271.600 C 149.596 271.600,150.811 271.765,151.020 271.968 C 151.229 272.170,152.570 272.427,154.000 272.540 C 155.430 272.652,157.275 272.866,158.100 273.016 C 159.512 273.272,159.600 273.228,159.600 272.267 C 159.600 271.706,159.780 271.136,160.000 271.000 C 160.220 270.864,160.400 269.604,160.400 268.200 C 160.400 266.796,160.580 265.536,160.800 265.400 C 161.020 265.264,161.200 264.263,161.200 263.176 C 161.200 262.089,161.380 261.200,161.600 261.200 C 161.820 261.200,162.000 260.581,162.000 259.824 C 162.000 259.067,162.180 258.336,162.400 258.200 C 162.620 258.064,162.800 257.423,162.800 256.776 C 162.800 256.129,162.980 255.600,163.200 255.600 C 163.420 255.600,163.600 254.970,163.600 254.200 C 163.600 253.430,163.780 252.800,164.000 252.800 C 164.220 252.800,164.400 252.260,164.400 251.600 C 164.400 250.940,164.580 250.400,164.800 250.400 C 165.020 250.400,165.200 250.051,165.200 249.624 C 165.200 249.197,165.380 248.736,165.600 248.600 C 165.820 248.464,166.000 247.913,166.000 247.376 C 166.000 246.839,166.141 246.400,166.313 246.400 C 166.485 246.400,166.874 245.545,167.178 244.500 C 167.482 243.455,167.842 242.510,167.977 242.400 C 168.112 242.290,169.383 239.860,170.800 237.000 C 172.217 234.140,173.472 231.710,173.589 231.600 C 174.018 231.194,175.200 228.862,175.200 228.422 C 175.200 228.171,175.560 227.580,176.000 227.108 C 176.440 226.636,176.800 226.013,176.800 225.725 C 176.800 225.436,176.980 225.200,177.200 225.200 C 177.420 225.200,177.600 224.930,177.600 224.600 C 177.600 224.270,177.750 224.000,177.932 224.000 C 178.115 224.000,178.519 223.505,178.830 222.900 C 179.140 222.295,179.711 221.509,180.097 221.153 C 180.484 220.797,180.800 220.329,180.800 220.112 C 180.800 219.896,181.340 219.154,182.000 218.463 C 182.660 217.772,183.200 217.008,183.200 216.764 C 183.200 216.520,183.710 215.844,184.333 215.260 C 184.957 214.677,185.688 213.787,185.957 213.282 C 186.227 212.777,187.061 211.697,187.810 210.882 C 188.559 210.067,189.623 208.860,190.174 208.200 L 191.175 207.000 191.187 241.100 L 191.200 275.200 197.400 275.200 L 203.600 275.200 203.600 238.200 C 203.600 217.850,203.695 201.200,203.812 201.200 C 204.207 201.200,214.996 212.189,215.986 213.600 C 216.527 214.370,217.471 215.477,218.085 216.060 C 218.698 216.644,219.200 217.337,219.200 217.600 C 219.200 217.863,219.695 218.556,220.300 219.140 C 220.905 219.723,221.655 220.695,221.968 221.300 C 222.280 221.905,222.685 222.400,222.868 222.400 C 223.050 222.400,223.200 222.670,223.200 223.000 C 223.200 223.330,223.380 223.600,223.600 223.600 C 223.820 223.600,224.000 223.870,224.000 224.200 C 224.000 224.530,224.180 224.800,224.400 224.800 C 224.620 224.800,224.800 225.030,224.800 225.312 C 224.800 225.593,225.160 226.083,225.600 226.400 C 226.040 226.717,226.400 227.297,226.400 227.688 C 226.400 228.080,226.580 228.400,226.800 228.400 C 227.020 228.400,227.200 228.687,227.200 229.038 C 227.200 229.744,228.427 232.123,228.900 232.333 C 229.065 232.407,229.200 232.812,229.200 233.233 C 229.200 233.655,229.380 234.000,229.600 234.000 C 229.820 234.000,230.000 234.360,230.000 234.800 C 230.000 235.240,230.180 235.600,230.400 235.600 C 230.620 235.600,230.800 235.960,230.800 236.400 C 230.800 236.840,230.980 237.200,231.200 237.200 C 231.420 237.200,231.600 237.549,231.600 237.976 C 231.600 238.403,231.780 238.864,232.000 239.000 C 232.220 239.136,232.400 239.597,232.400 240.024 C 232.400 240.451,232.580 240.800,232.800 240.800 C 233.020 240.800,233.200 241.160,233.200 241.600 C 233.200 242.040,233.380 242.400,233.600 242.400 C 233.820 242.400,234.000 242.940,234.000 243.600 C 234.000 244.260,234.180 244.800,234.400 244.800 C 234.620 244.800,234.800 245.239,234.800 245.776 C 234.800 246.313,234.980 246.864,235.200 247.000 C 235.420 247.136,235.600 247.777,235.600 248.424 C 235.600 249.071,235.780 249.600,236.000 249.600 C 236.220 249.600,236.400 250.140,236.400 250.800 C 236.400 251.460,236.580 252.000,236.800 252.000 C 237.020 252.000,237.200 252.619,237.200 253.376 C 237.200 254.133,237.380 254.864,237.600 255.000 C 237.820 255.136,238.000 255.856,238.000 256.600 C 238.000 257.344,238.180 258.064,238.400 258.200 C 238.620 258.336,238.800 259.326,238.800 260.400 C 238.800 261.474,238.980 262.464,239.200 262.600 C 239.420 262.736,239.600 264.097,239.600 265.624 C 239.600 267.208,239.772 268.400,240.000 268.400 C 240.223 268.400,240.400 269.480,240.400 270.839 L 240.400 273.277 242.500 273.027 C 243.655 272.890,245.680 272.677,247.000 272.555 C 248.320 272.433,249.571 272.168,249.780 271.966 C 249.989 271.765,251.103 271.600,252.256 271.600 C 253.409 271.600,254.464 271.420,254.600 271.200 C 254.736 270.980,255.737 270.800,256.824 270.800 C 257.911 270.800,258.800 270.620,258.800 270.400 C 258.800 270.180,259.689 270.000,260.776 270.000 C 261.863 270.000,262.864 269.820,263.000 269.600 C 263.136 269.380,264.047 269.200,265.024 269.200 C 266.001 269.200,266.800 269.020,266.800 268.800 C 266.800 268.580,267.599 268.400,268.576 268.400 C 269.553 268.400,270.464 268.220,270.600 268.000 C 270.736 267.780,271.456 267.600,272.200 267.600 C 272.944 267.600,273.664 267.420,273.800 267.200 C 273.936 266.980,274.667 266.800,275.424 266.800 C 276.181 266.800,276.800 266.620,276.800 266.400 C 276.800 266.180,277.520 266.000,278.400 266.000 C 279.280 266.000,280.000 265.820,280.000 265.600 C 280.000 265.380,280.529 265.200,281.176 265.200 C 281.823 265.200,282.464 265.020,282.600 264.800 C 282.736 264.580,283.467 264.400,284.224 264.400 C 284.981 264.400,285.600 264.220,285.600 264.000 C 285.600 263.780,286.140 263.600,286.800 263.600 C 287.460 263.600,288.000 263.420,288.000 263.200 C 288.000 262.980,288.540 262.800,289.200 262.800 C 289.860 262.800,290.400 262.620,290.400 262.400 C 290.400 262.180,290.839 262.000,291.376 262.000 C 291.913 262.000,292.464 261.820,292.600 261.600 C 292.736 261.380,293.287 261.200,293.824 261.200 C 294.361 261.200,294.800 261.020,294.800 260.800 C 294.800 260.580,295.340 260.400,296.000 260.400 C 296.660 260.400,297.200 260.220,297.200 260.000 C 297.200 259.780,297.740 259.600,298.400 259.600 C 299.060 259.600,299.600 259.443,299.600 259.251 C 299.600 259.059,300.328 258.786,301.217 258.644 C 302.107 258.501,303.142 258.229,303.517 258.039 C 304.179 257.704,304.762 257.455,307.500 256.336 C 308.215 256.044,308.800 255.669,308.800 255.502 C 308.800 255.336,309.079 255.200,309.419 255.200 C 309.760 255.200,310.784 254.840,311.694 254.400 C 312.605 253.960,313.586 253.600,313.875 253.600 C 314.164 253.600,314.400 253.420,314.400 253.200 C 314.400 252.980,314.760 252.800,315.200 252.800 C 315.640 252.800,316.000 252.620,316.000 252.400 C 316.000 252.180,316.360 252.000,316.800 252.000 C 317.240 252.000,317.600 251.820,317.600 251.600 C 317.600 251.380,317.945 251.200,318.367 251.200 C 318.788 251.200,319.193 251.065,319.267 250.900 C 319.340 250.735,320.255 250.167,321.300 249.637 C 322.345 249.108,323.200 248.523,323.200 248.337 C 323.200 248.152,323.560 248.000,324.000 248.000 C 324.440 248.000,324.800 247.820,324.800 247.600 C 324.800 247.380,324.988 247.200,325.217 247.200 C 325.446 247.200,326.020 246.840,326.492 246.400 C 326.964 245.960,327.587 245.600,327.875 245.600 C 328.164 245.600,328.400 245.420,328.400 245.200 C 328.400 244.980,328.720 244.800,329.112 244.800 C 329.503 244.800,330.083 244.440,330.400 244.000 C 330.717 243.560,331.215 243.200,331.506 243.200 C 331.798 243.200,332.486 242.750,333.036 242.200 C 333.586 241.650,334.253 241.199,334.518 241.198 C 334.783 241.197,335.575 240.657,336.278 239.998 C 336.981 239.339,337.701 238.799,337.878 238.797 C 338.055 238.796,338.920 238.071,339.800 237.186 C 341.534 235.443,341.545 235.433,344.438 232.845 C 345.517 231.880,346.400 230.931,346.400 230.737 C 346.400 230.542,347.371 229.412,348.557 228.225 C 349.744 227.039,351.043 225.513,351.444 224.834 C 351.844 224.155,352.314 223.600,352.486 223.600 C 352.659 223.600,352.800 223.330,352.800 223.000 C 352.800 222.670,352.935 222.399,353.100 222.397 C 353.265 222.395,353.605 221.990,353.856 221.497 C 354.107 221.004,355.047 219.160,355.946 217.400 C 356.845 215.640,357.584 213.921,357.590 213.580 C 357.595 213.239,357.784 212.776,358.008 212.552 C 358.233 212.327,358.530 210.935,358.667 209.459 C 358.805 207.982,359.072 206.679,359.259 206.564 C 359.794 206.233,359.696 134.800,359.160 134.800 C 358.919 134.800,358.244 135.302,357.660 135.915 C 357.077 136.529,355.970 137.469,355.200 138.004 C 354.430 138.540,352.957 139.838,351.926 140.889 C 350.895 141.940,349.860 142.800,349.626 142.800 C 349.392 142.800,349.200 142.937,349.200 143.105 C 349.200 143.273,348.854 143.588,348.431 143.805 C 348.008 144.022,346.566 145.055,345.226 146.100 C 343.887 147.145,342.653 148.000,342.484 148.000 C 342.315 148.000,341.917 148.360,341.600 148.800 C 341.283 149.240,340.743 149.600,340.400 149.600 C 340.057 149.600,339.517 149.960,339.200 150.400 C 338.883 150.840,338.303 151.200,337.912 151.200 C 337.520 151.200,337.200 151.380,337.200 151.600 C 337.200 151.820,336.964 152.000,336.675 152.000 C 336.387 152.000,335.764 152.360,335.292 152.800 C 334.820 153.240,334.171 153.600,333.850 153.600 C 333.529 153.600,333.207 153.735,333.133 153.900 C 332.966 154.276,330.836 155.575,329.900 155.871 C 329.515 155.993,329.200 156.252,329.200 156.447 C 329.200 156.641,328.840 156.800,328.400 156.800 C 327.960 156.800,327.600 156.980,327.600 157.200 C 327.600 157.420,327.330 157.600,327.000 157.600 C 326.670 157.600,326.400 157.780,326.400 158.000 C 326.400 158.220,326.040 158.400,325.600 158.400 C 325.160 158.400,324.800 158.580,324.800 158.800 C 324.800 159.020,324.440 159.200,324.000 159.200 C 323.560 159.200,323.200 159.380,323.200 159.600 C 323.200 159.820,322.903 160.000,322.540 160.000 C 322.177 160.000,320.872 160.469,319.640 161.042 C 318.408 161.615,317.040 162.222,316.600 162.391 C 315.602 162.775,312.037 164.366,311.105 164.844 C 310.723 165.040,310.138 165.200,309.805 165.200 C 309.472 165.200,309.200 165.380,309.200 165.600 C 309.200 165.820,308.761 166.000,308.224 166.000 C 307.687 166.000,307.136 166.180,307.000 166.400 C 306.864 166.620,306.403 166.800,305.976 166.800 C 305.549 166.800,305.200 166.980,305.200 167.200 C 305.200 167.420,304.660 167.600,304.000 167.600 C 303.340 167.600,302.800 167.780,302.800 168.000 C 302.800 168.220,302.361 168.400,301.824 168.400 C 301.287 168.400,300.736 168.580,300.600 168.800 C 300.464 169.020,299.924 169.200,299.400 169.200 C 298.876 169.200,298.336 169.380,298.200 169.600 C 298.064 169.820,297.513 170.000,296.976 170.000 C 296.439 170.000,296.000 170.180,296.000 170.400 C 296.000 170.620,295.460 170.800,294.800 170.800 C 294.140 170.800,293.600 170.980,293.600 171.200 C 293.600 171.420,293.060 171.600,292.400 171.600 C 291.740 171.600,291.200 171.780,291.200 172.000 C 291.200 172.220,290.671 172.400,290.024 172.400 C 289.377 172.400,288.736 172.580,288.600 172.800 C 288.464 173.020,287.733 173.200,286.976 173.200 C 286.219 173.200,285.600 173.380,285.600 173.600 C 285.600 173.820,284.981 174.000,284.224 174.000 C 283.467 174.000,282.736 174.180,282.600 174.400 C 282.464 174.620,281.733 174.800,280.976 174.800 C 280.219 174.800,279.600 174.980,279.600 175.200 C 279.600 175.420,278.880 175.600,278.000 175.600 C 277.120 175.600,276.400 175.780,276.400 176.000 C 276.400 176.220,275.680 176.400,274.800 176.400 C 273.920 176.400,273.200 176.557,273.200 176.748 C 273.200 176.940,271.715 177.226,269.900 177.384 C 268.085 177.542,266.420 177.816,266.200 177.992 C 265.814 178.303,264.114 178.580,259.700 179.050 C 258.545 179.173,257.600 179.437,257.600 179.637 C 257.600 179.837,256.531 180.000,255.224 180.000 C 253.917 180.000,252.736 180.180,252.600 180.400 C 252.464 180.620,251.229 180.800,249.856 180.800 C 248.483 180.800,247.189 180.966,246.980 181.169 C 246.612 181.526,244.316 181.777,237.200 182.237 C 235.330 182.357,233.629 182.624,233.420 182.828 C 233.211 183.033,230.826 183.200,228.120 183.200 C 225.107 183.200,223.200 183.355,223.200 183.600 C 223.200 183.862,215.341 184.000,200.424 184.000 C 185.671 184.000,177.560 183.859,177.400 183.600 C 177.258 183.370,175.137 183.200,172.400 183.200 C 169.663 183.200,167.542 183.030,167.400 182.800 C 167.263 182.579,165.463 182.400,163.376 182.400 C 161.125 182.400,159.600 182.238,159.600 182.000 C 159.600 181.769,158.341 181.600,156.624 181.600 C 154.987 181.600,153.536 181.420,153.400 181.200 C 153.264 180.980,152.004 180.800,150.600 180.800 C 149.196 180.800,147.936 180.620,147.800 180.400 C 147.664 180.180,146.609 180.000,145.456 180.000 C 144.303 180.000,143.189 179.836,142.980 179.635 C 142.771 179.435,141.610 179.180,140.400 179.070 C 139.190 178.959,137.300 178.658,136.200 178.401 C 135.100 178.143,132.535 177.734,130.500 177.492 C 128.465 177.249,126.800 176.904,126.800 176.725 C 126.800 176.546,126.181 176.400,125.424 176.400 C 124.667 176.400,123.936 176.220,123.800 176.000 C 123.664 175.780,122.933 175.600,122.176 175.600 C 121.419 175.600,120.800 175.420,120.800 175.200 C 120.800 174.980,120.080 174.800,119.200 174.800 C 118.320 174.800,117.600 174.620,117.600 174.400 C 117.600 174.180,116.880 174.000,116.000 174.000 C 115.120 174.000,114.400 173.820,114.400 173.600 C 114.400 173.380,113.860 173.200,113.200 173.200 C 112.540 173.200,112.000 173.020,112.000 172.800 C 112.000 172.580,111.280 172.400,110.400 172.400 C 109.520 172.400,108.800 172.220,108.800 172.000 C 108.800 171.780,108.361 171.600,107.824 171.600 C 107.287 171.600,106.736 171.420,106.600 171.200 C 106.464 170.980,105.924 170.800,105.400 170.800 C 104.876 170.800,104.336 170.620,104.200 170.400 C 104.064 170.180,103.513 170.000,102.976 170.000 C 102.439 170.000,102.000 169.820,102.000 169.600 C 102.000 169.380,101.460 169.200,100.800 169.200 C 100.140 169.200,99.600 169.020,99.600 168.800 C 99.600 168.580,99.060 168.400,98.400 168.400 C 97.740 168.400,97.200 168.220,97.200 168.000 C 97.200 167.780,96.660 167.600,96.000 167.600 C 95.340 167.600,94.800 167.420,94.800 167.200 C 94.800 166.980,94.440 166.800,94.000 166.800 C 93.560 166.800,93.200 166.620,93.200 166.400 C 93.200 166.180,92.845 166.000,92.412 166.000 C 91.979 166.000,90.983 165.640,90.200 165.200 C 89.417 164.760,88.421 164.400,87.988 164.400 C 87.555 164.400,87.200 164.220,87.200 164.000 C 87.200 163.780,86.964 163.600,86.675 163.600 C 86.184 163.600,83.471 162.454,81.905 161.585 C 81.523 161.373,80.938 161.200,80.605 161.200 C 80.272 161.200,80.000 161.036,80.000 160.835 C 80.000 160.634,79.280 160.349,78.400 160.200 C 77.520 160.051,76.800 159.766,76.800 159.565 C 76.800 159.364,76.440 159.200,76.000 159.200 C 75.560 159.200,75.200 159.020,75.200 158.800 C 75.200 158.580,74.930 158.400,74.600 158.400 C 74.270 158.400,74.000 158.220,74.000 158.000 C 74.000 157.780,73.640 157.600,73.200 157.600 C 72.760 157.600,72.400 157.441,72.400 157.247 C 72.400 157.052,72.085 156.793,71.700 156.671 C 70.764 156.375,68.634 155.076,68.467 154.700 C 68.393 154.535,67.988 154.400,67.567 154.400 C 67.145 154.400,66.800 154.220,66.800 154.000 C 66.800 153.780,66.564 153.600,66.275 153.600 C 65.987 153.600,65.364 153.240,64.892 152.800 C 64.420 152.360,63.756 152.000,63.417 152.000 C 63.078 152.000,62.800 151.850,62.800 151.668 C 62.800 151.485,62.305 151.080,61.700 150.768 C 61.095 150.456,60.510 150.099,60.400 149.974 C 60.290 149.849,59.300 149.137,58.200 148.390 C 57.100 147.644,55.851 146.711,55.425 146.317 C 54.998 145.922,54.504 145.600,54.328 145.600 C 54.031 145.600,52.619 144.500,51.375 143.300 C 51.090 143.025,50.683 142.800,50.470 142.800 C 50.256 142.800,48.699 141.448,47.009 139.796 C 43.585 136.449,41.556 134.800,40.862 134.800 C 40.516 134.800,40.400 143.878,40.400 170.976 M40.400 274.600 C 40.400 298.733,40.536 311.200,40.800 311.200 C 41.020 311.200,41.200 311.920,41.200 312.800 C 41.200 313.680,41.380 314.400,41.600 314.400 C 41.820 314.400,42.000 314.940,42.000 315.600 C 42.000 316.260,42.180 316.800,42.400 316.800 C 42.620 316.800,42.800 317.250,42.800 317.800 C 42.800 318.350,42.980 318.800,43.200 318.800 C 43.420 318.800,43.600 319.216,43.600 319.724 C 43.600 320.231,44.230 321.693,45.000 322.972 C 45.770 324.251,46.400 325.455,46.400 325.648 C 46.400 325.842,46.550 326.000,46.732 326.000 C 46.915 326.000,47.320 326.495,47.632 327.100 C 47.945 327.705,48.605 328.613,49.100 329.118 C 49.595 329.623,50.000 330.209,50.000 330.421 C 50.000 330.889,60.300 341.200,60.767 341.200 C 60.950 341.200,61.787 341.830,62.628 342.600 C 63.469 343.370,64.303 344.000,64.482 344.000 C 64.661 344.000,65.372 344.540,66.063 345.200 C 66.754 345.860,67.479 346.400,67.676 346.400 C 67.873 346.400,68.420 346.760,68.892 347.200 C 69.364 347.640,69.987 348.000,70.275 348.000 C 70.564 348.000,70.800 348.180,70.800 348.400 C 70.800 348.620,71.036 348.800,71.325 348.800 C 71.613 348.800,72.236 349.160,72.708 349.600 C 73.180 350.040,73.844 350.400,74.183 350.400 C 74.522 350.400,74.800 350.580,74.800 350.800 C 74.800 351.020,75.036 351.200,75.325 351.200 C 75.613 351.200,76.236 351.560,76.708 352.000 C 77.180 352.440,77.844 352.800,78.183 352.800 C 78.522 352.800,78.800 352.946,78.800 353.125 C 78.800 353.304,79.430 353.698,80.200 354.000 C 80.970 354.302,81.600 354.696,81.600 354.875 C 81.600 355.054,81.960 355.200,82.400 355.200 C 82.840 355.200,83.200 355.380,83.200 355.600 C 83.200 355.820,83.435 356.000,83.723 356.000 C 84.011 356.000,85.496 356.629,87.023 357.399 C 88.550 358.168,90.295 358.798,90.900 358.799 C 91.505 358.799,92.000 358.980,92.000 359.200 C 92.000 359.420,92.360 359.600,92.800 359.600 C 93.240 359.600,93.600 359.780,93.600 360.000 C 93.600 360.220,93.960 360.400,94.400 360.400 C 94.840 360.400,95.200 360.580,95.200 360.800 C 95.200 361.020,95.650 361.200,96.200 361.200 C 96.750 361.200,97.200 361.380,97.200 361.600 C 97.200 361.820,97.639 362.000,98.176 362.000 C 98.713 362.000,99.264 362.180,99.400 362.400 C 99.536 362.620,99.997 362.800,100.424 362.800 C 100.851 362.800,101.200 362.980,101.200 363.200 C 101.200 363.420,101.740 363.600,102.400 363.600 C 103.060 363.600,103.600 363.780,103.600 364.000 C 103.600 364.220,104.140 364.400,104.800 364.400 C 105.460 364.400,106.000 364.580,106.000 364.800 C 106.000 365.020,106.540 365.200,107.200 365.200 C 107.860 365.200,108.400 365.380,108.400 365.600 C 108.400 365.820,108.839 366.000,109.376 366.000 C 109.913 366.000,110.464 366.180,110.600 366.400 C 110.736 366.620,111.276 366.800,111.800 366.800 C 112.324 366.800,112.864 366.980,113.000 367.200 C 113.136 367.420,113.766 367.600,114.400 367.600 C 115.034 367.600,115.664 367.780,115.800 368.000 C 115.936 368.220,116.566 368.400,117.200 368.400 C 117.834 368.400,118.464 368.580,118.600 368.800 C 118.736 369.020,119.467 369.200,120.224 369.200 C 120.981 369.200,121.600 369.380,121.600 369.600 C 121.600 369.820,122.320 370.000,123.200 370.000 C 124.080 370.000,124.800 370.180,124.800 370.400 C 124.800 370.620,125.419 370.800,126.176 370.800 C 126.933 370.800,127.664 370.980,127.800 371.200 C 127.936 371.420,128.656 371.600,129.400 371.600 C 130.144 371.600,130.864 371.780,131.000 372.000 C 131.136 372.220,132.036 372.400,133.000 372.400 C 133.964 372.400,134.864 372.580,135.000 372.800 C 135.136 373.020,136.036 373.200,137.000 373.200 C 137.964 373.200,138.864 373.380,139.000 373.600 C 139.136 373.820,140.036 374.000,141.000 374.000 C 141.964 374.000,142.855 374.165,142.979 374.366 C 143.104 374.568,145.184 374.861,147.603 375.018 C 150.021 375.175,152.000 375.460,152.000 375.651 C 152.000 375.843,153.440 376.000,155.200 376.000 C 157.067 376.000,158.400 376.167,158.400 376.400 C 158.400 376.633,159.725 376.800,161.576 376.800 C 163.323 376.800,164.864 376.980,165.000 377.200 C 165.139 377.425,167.063 377.600,169.400 377.600 C 171.737 377.600,173.661 377.775,173.800 378.000 C 173.950 378.242,176.804 378.400,181.024 378.400 C 185.408 378.400,188.000 378.549,188.000 378.800 C 188.000 379.058,192.192 379.200,199.776 379.200 C 207.196 379.200,211.644 379.052,211.800 378.800 C 211.950 378.558,214.804 378.400,219.024 378.400 C 223.408 378.400,226.000 378.251,226.000 378.000 C 226.000 377.758,227.733 377.600,230.400 377.600 C 233.067 377.600,234.800 377.442,234.800 377.200 C 234.800 376.965,236.200 376.800,238.200 376.800 C 240.200 376.800,241.600 376.635,241.600 376.400 C 241.600 376.171,242.800 376.000,244.400 376.000 C 245.940 376.000,247.200 375.846,247.200 375.657 C 247.200 375.468,249.214 375.186,251.675 375.031 C 254.137 374.875,256.465 374.579,256.849 374.374 C 257.233 374.168,258.243 374.000,259.094 374.000 C 259.944 374.000,260.811 373.838,261.020 373.641 C 261.229 373.444,262.165 373.174,263.100 373.041 C 264.035 372.908,265.565 372.692,266.500 372.559 C 267.435 372.426,268.371 372.156,268.580 371.959 C 268.789 371.762,269.633 371.600,270.456 371.600 C 271.279 371.600,272.064 371.420,272.200 371.200 C 272.336 370.980,273.067 370.800,273.824 370.800 C 274.581 370.800,275.200 370.620,275.200 370.400 C 275.200 370.180,275.920 370.000,276.800 370.000 C 277.680 370.000,278.400 369.840,278.400 369.644 C 278.400 369.448,279.030 369.178,279.800 369.044 C 280.570 368.910,281.830 368.690,282.600 368.556 C 283.370 368.422,284.000 368.152,284.000 367.956 C 284.000 367.760,284.529 367.600,285.176 367.600 C 285.823 367.600,286.464 367.420,286.600 367.200 C 286.736 366.980,287.366 366.800,288.000 366.800 C 288.634 366.800,289.264 366.620,289.400 366.400 C 289.536 366.180,290.087 366.000,290.624 366.000 C 291.161 366.000,291.600 365.820,291.600 365.600 C 291.600 365.380,292.140 365.200,292.800 365.200 C 293.460 365.200,294.000 365.020,294.000 364.800 C 294.000 364.580,294.540 364.400,295.200 364.400 C 295.860 364.400,296.400 364.220,296.400 364.000 C 296.400 363.780,296.749 363.600,297.176 363.600 C 297.603 363.600,298.064 363.420,298.200 363.200 C 298.336 362.980,298.887 362.800,299.424 362.800 C 299.961 362.800,300.400 362.620,300.400 362.400 C 300.400 362.180,300.940 362.000,301.600 362.000 C 302.260 362.000,302.800 361.820,302.800 361.600 C 302.800 361.380,303.160 361.200,303.600 361.200 C 304.040 361.200,304.400 361.020,304.400 360.800 C 304.400 360.580,304.850 360.400,305.400 360.400 C 305.950 360.400,306.400 360.220,306.400 360.000 C 306.400 359.780,306.850 359.600,307.400 359.600 C 307.950 359.600,308.400 359.434,308.400 359.232 C 308.400 359.029,308.985 358.735,309.700 358.579 C 311.406 358.204,321.714 353.163,322.400 352.368 C 322.510 352.240,323.185 351.881,323.900 351.570 C 324.615 351.259,325.200 350.869,325.200 350.702 C 325.200 350.536,325.436 350.400,325.725 350.400 C 326.013 350.400,326.636 350.040,327.108 349.600 C 327.580 349.160,328.204 348.800,328.495 348.800 C 328.786 348.800,329.283 348.440,329.600 348.000 C 329.917 347.560,330.457 347.200,330.800 347.200 C 331.143 347.200,331.683 346.840,332.000 346.400 C 332.317 345.960,332.825 345.600,333.128 345.600 C 333.431 345.600,334.183 345.060,334.800 344.400 C 335.417 343.740,336.127 343.200,336.379 343.200 C 336.630 343.200,337.256 342.795,337.768 342.300 C 338.280 341.805,339.210 341.040,339.834 340.600 C 341.460 339.453,348.800 332.035,348.800 331.538 C 348.800 331.309,349.340 330.617,350.000 330.000 C 350.660 329.383,351.200 328.715,351.200 328.515 C 351.200 328.315,351.515 327.795,351.900 327.360 C 353.062 326.049,354.225 324.275,354.827 322.900 C 355.139 322.185,355.531 321.600,355.698 321.600 C 355.864 321.600,356.000 321.335,356.000 321.012 C 356.000 320.689,356.360 319.783,356.800 319.000 C 357.240 318.217,357.600 317.221,357.600 316.788 C 357.600 316.355,357.766 316.000,357.968 316.000 C 358.171 316.000,358.449 314.785,358.587 313.300 C 358.725 311.815,359.009 310.287,359.219 309.905 C 359.452 309.480,359.600 295.556,359.600 274.005 C 359.600 233.413,360.037 236.814,355.402 241.300 C 352.061 244.534,351.293 245.209,349.600 246.399 C 348.830 246.940,347.800 247.778,347.311 248.262 C 346.822 248.746,345.877 249.464,345.211 249.857 C 344.545 250.251,344.000 250.714,344.000 250.886 C 344.000 251.059,343.770 251.200,343.488 251.200 C 343.207 251.200,342.717 251.560,342.400 252.000 C 342.083 252.440,341.543 252.800,341.200 252.800 C 340.857 252.800,340.317 253.160,340.000 253.600 C 339.683 254.040,339.143 254.400,338.800 254.400 C 338.457 254.400,337.917 254.760,337.600 255.200 C 337.283 255.640,336.786 256.000,336.495 256.000 C 336.204 256.000,335.580 256.360,335.108 256.800 C 334.636 257.240,334.013 257.600,333.725 257.600 C 333.436 257.600,333.200 257.780,333.200 258.000 C 333.200 258.220,332.840 258.400,332.400 258.400 C 331.960 258.400,331.600 258.535,331.600 258.700 C 331.600 258.865,330.432 259.540,329.005 260.200 C 327.578 260.860,326.408 261.535,326.405 261.700 C 326.402 261.865,326.040 262.000,325.600 262.000 C 325.160 262.000,324.800 262.180,324.800 262.400 C 324.800 262.620,324.440 262.800,324.000 262.800 C 323.560 262.800,323.200 262.980,323.200 263.200 C 323.200 263.420,322.840 263.600,322.400 263.600 C 321.960 263.600,321.600 263.780,321.600 264.000 C 321.600 264.220,321.240 264.400,320.800 264.400 C 320.360 264.400,320.000 264.580,320.000 264.800 C 320.000 265.020,319.728 265.200,319.395 265.200 C 319.062 265.200,318.432 265.380,317.995 265.600 C 317.558 265.820,316.842 266.180,316.405 266.400 C 315.968 266.620,315.338 266.800,315.005 266.800 C 314.672 266.800,314.400 266.980,314.400 267.200 C 314.400 267.420,314.040 267.600,313.600 267.600 C 313.160 267.600,312.800 267.780,312.800 268.000 C 312.800 268.220,312.350 268.400,311.800 268.400 C 311.250 268.400,310.800 268.580,310.800 268.800 C 310.800 269.020,310.440 269.200,310.000 269.200 C 309.560 269.200,309.200 269.380,309.200 269.600 C 309.200 269.820,308.660 270.000,308.000 270.000 C 307.340 270.000,306.800 270.180,306.800 270.400 C 306.800 270.620,306.440 270.800,306.000 270.800 C 305.560 270.800,305.200 270.980,305.200 271.200 C 305.200 271.420,304.660 271.600,304.000 271.600 C 303.340 271.600,302.800 271.780,302.800 272.000 C 302.800 272.220,302.260 272.400,301.600 272.400 C 300.940 272.400,300.400 272.580,300.400 272.800 C 300.400 273.020,299.860 273.200,299.200 273.200 C 298.540 273.200,298.000 273.380,298.000 273.600 C 298.000 273.820,297.561 274.000,297.024 274.000 C 296.487 274.000,295.936 274.180,295.800 274.400 C 295.664 274.620,295.113 274.800,294.576 274.800 C 294.039 274.800,293.600 274.980,293.600 275.200 C 293.600 275.420,293.060 275.600,292.400 275.600 C 291.740 275.600,291.200 275.780,291.200 276.000 C 291.200 276.220,290.480 276.400,289.600 276.400 C 288.720 276.400,288.000 276.550,288.000 276.734 C 288.000 277.028,286.974 277.261,281.296 278.259 C 280.579 278.385,279.894 278.649,279.773 278.844 C 279.652 279.040,278.944 279.200,278.200 279.200 C 277.456 279.200,276.736 279.380,276.600 279.600 C 276.464 279.820,275.643 280.000,274.776 280.000 C 273.909 280.000,273.200 280.180,273.200 280.400 C 273.200 280.620,272.401 280.800,271.424 280.800 C 270.447 280.800,269.536 280.980,269.400 281.200 C 269.264 281.420,268.454 281.600,267.600 281.600 C 266.746 281.600,265.936 281.780,265.800 282.000 C 265.664 282.220,264.663 282.400,263.576 282.400 C 262.489 282.400,261.600 282.580,261.600 282.800 C 261.600 283.020,260.621 283.200,259.424 283.200 C 258.227 283.200,257.136 283.380,257.000 283.600 C 256.864 283.820,255.784 284.000,254.600 284.000 C 253.416 284.000,252.336 284.180,252.200 284.400 C 252.064 284.620,250.804 284.800,249.400 284.800 C 247.996 284.800,246.736 284.980,246.600 285.200 C 246.464 285.420,245.091 285.600,243.548 285.600 C 239.816 285.600,239.600 285.850,239.600 290.171 C 239.600 292.190,239.436 293.600,239.200 293.600 C 238.980 293.600,238.800 294.590,238.800 295.800 C 238.800 297.010,238.620 298.000,238.400 298.000 C 238.180 298.000,238.000 298.709,238.000 299.576 C 238.000 300.443,237.820 301.264,237.600 301.400 C 237.380 301.536,237.200 302.256,237.200 303.000 C 237.200 303.744,237.020 304.464,236.800 304.600 C 236.580 304.736,236.400 305.467,236.400 306.224 C 236.400 306.981,236.220 307.600,236.000 307.600 C 235.780 307.600,235.600 308.140,235.600 308.800 C 235.600 309.460,235.420 310.000,235.200 310.000 C 234.980 310.000,234.800 310.362,234.800 310.805 C 234.800 311.248,234.620 311.968,234.400 312.405 C 234.180 312.842,233.820 313.558,233.600 313.995 C 233.380 314.432,233.200 315.062,233.200 315.395 C 233.200 315.728,233.020 316.000,232.800 316.000 C 232.580 316.000,232.400 316.360,232.400 316.800 C 232.400 317.240,232.220 317.600,232.000 317.600 C 231.780 317.600,231.600 317.845,231.600 318.144 C 231.600 318.801,229.124 323.745,228.700 323.933 C 228.535 324.007,228.400 324.412,228.400 324.833 C 228.400 325.255,228.223 325.600,228.008 325.600 C 227.792 325.600,227.502 326.050,227.364 326.600 C 227.226 327.150,226.953 327.600,226.757 327.600 C 226.560 327.600,226.400 327.870,226.400 328.200 C 226.400 328.530,226.220 328.800,226.000 328.800 C 225.780 328.800,225.600 329.070,225.600 329.400 C 225.600 329.730,225.450 330.000,225.268 330.000 C 225.085 330.000,224.680 330.495,224.368 331.100 C 224.055 331.705,223.305 332.677,222.700 333.260 C 222.095 333.844,221.600 334.519,221.600 334.760 C 221.600 335.002,221.420 335.200,221.200 335.200 C 220.980 335.200,220.800 335.396,220.800 335.636 C 220.800 335.875,218.486 338.350,215.657 341.136 C 210.757 345.960,209.200 348.016,209.200 349.661 C 209.200 350.068,209.020 350.400,208.800 350.400 C 208.580 350.400,208.400 351.300,208.400 352.400 C 208.400 353.500,208.220 354.400,208.000 354.400 C 207.753 354.400,207.600 356.467,207.600 359.800 L 207.600 365.200 202.800 365.200 L 198.000 365.200 198.000 359.424 C 198.000 356.004,198.163 353.546,198.400 353.400 C 198.620 353.264,198.800 352.533,198.800 351.776 C 198.800 351.019,198.980 350.400,199.200 350.400 C 199.420 350.400,199.600 349.860,199.600 349.200 C 199.600 348.540,199.780 348.000,200.000 348.000 C 200.220 348.000,200.400 347.561,200.400 347.024 C 200.400 346.487,200.580 345.936,200.800 345.800 C 201.020 345.664,201.200 345.023,201.200 344.376 C 201.200 343.729,201.380 343.200,201.600 343.200 C 201.820 343.200,202.000 342.480,202.000 341.600 C 202.000 340.720,202.180 340.000,202.400 340.000 C 202.620 340.000,202.800 339.021,202.800 337.824 C 202.800 336.627,202.980 335.536,203.200 335.400 C 203.459 335.240,203.600 326.863,203.600 311.576 L 203.600 288.000 197.400 288.000 L 191.200 288.000 191.200 308.776 C 191.200 322.196,191.058 329.640,190.800 329.800 C 190.580 329.936,190.400 330.937,190.400 332.024 C 190.400 333.111,190.220 334.000,190.000 334.000 C 189.780 334.000,189.600 334.529,189.600 335.176 C 189.600 335.823,189.420 336.464,189.200 336.600 C 188.980 336.736,188.800 337.467,188.800 338.224 C 188.800 338.981,188.620 339.600,188.400 339.600 C 188.180 339.600,188.000 340.140,188.000 340.800 C 188.000 341.616,187.802 342.000,187.381 342.000 C 186.705 342.000,177.600 333.001,177.600 332.333 C 177.600 332.106,177.060 331.417,176.400 330.800 C 175.740 330.183,175.200 329.536,175.200 329.361 C 175.200 328.952,173.096 325.842,172.700 325.667 C 172.535 325.593,172.400 325.271,172.400 324.950 C 172.400 324.629,172.040 323.980,171.600 323.508 C 171.160 323.036,170.800 322.413,170.800 322.125 C 170.800 321.836,170.620 321.600,170.400 321.600 C 170.180 321.600,170.000 321.240,170.000 320.800 C 170.000 320.360,169.820 320.000,169.600 320.000 C 169.380 320.000,169.200 319.640,169.200 319.200 C 169.200 318.760,169.020 318.400,168.800 318.400 C 168.580 318.400,168.400 318.040,168.400 317.600 C 168.400 317.160,168.220 316.800,168.000 316.800 C 167.780 316.800,167.600 316.440,167.600 316.000 C 167.600 315.560,167.420 315.200,167.200 315.200 C 166.980 315.200,166.800 314.840,166.800 314.400 C 166.800 313.960,166.620 313.600,166.400 313.600 C 166.180 313.600,166.000 313.150,166.000 312.600 C 166.000 312.050,165.820 311.600,165.600 311.600 C 165.380 311.600,165.200 311.240,165.200 310.800 C 165.200 310.360,165.020 310.000,164.800 310.000 C 164.580 310.000,164.400 309.460,164.400 308.800 C 164.400 308.140,164.220 307.600,164.000 307.600 C 163.780 307.600,163.600 307.060,163.600 306.400 C 163.600 305.740,163.420 305.200,163.200 305.200 C 162.980 305.200,162.800 304.480,162.800 303.600 C 162.800 302.720,162.620 302.000,162.400 302.000 C 162.180 302.000,162.000 301.280,162.000 300.400 C 162.000 299.520,161.820 298.800,161.600 298.800 C 161.380 298.800,161.200 298.001,161.200 297.024 C 161.200 296.047,161.020 295.136,160.800 295.000 C 160.580 294.864,160.400 293.593,160.400 292.176 C 160.400 290.725,160.225 289.600,160.000 289.600 C 159.780 289.600,159.600 288.700,159.600 287.600 L 159.600 285.600 157.424 285.600 C 156.227 285.600,155.136 285.420,155.000 285.200 C 154.864 284.980,153.604 284.800,152.200 284.800 C 150.796 284.800,149.536 284.620,149.400 284.400 C 149.264 284.180,148.094 284.000,146.800 284.000 C 145.506 284.000,144.336 283.820,144.200 283.600 C 144.064 283.380,143.074 283.200,142.000 283.200 C 140.926 283.200,139.936 283.020,139.800 282.800 C 139.664 282.580,138.663 282.400,137.576 282.400 C 136.489 282.400,135.600 282.220,135.600 282.000 C 135.600 281.780,134.700 281.600,133.600 281.600 C 132.500 281.600,131.600 281.438,131.600 281.240 C 131.600 281.042,130.835 280.784,129.900 280.666 C 127.230 280.329,125.468 279.975,124.600 279.600 C 124.160 279.410,123.215 279.152,122.500 279.027 C 119.478 278.499,118.578 278.283,118.200 277.994 C 117.980 277.826,116.675 277.561,115.300 277.405 C 113.925 277.249,112.800 276.959,112.800 276.761 C 112.800 276.562,112.080 276.400,111.200 276.400 C 110.320 276.400,109.600 276.220,109.600 276.000 C 109.600 275.780,109.161 275.600,108.624 275.600 C 108.087 275.600,107.536 275.420,107.400 275.200 C 107.264 274.980,106.724 274.800,106.200 274.800 C 105.676 274.800,105.136 274.620,105.000 274.400 C 104.864 274.180,104.324 274.000,103.800 274.000 C 103.276 274.000,102.736 273.820,102.600 273.600 C 102.464 273.380,101.913 273.200,101.376 273.200 C 100.839 273.200,100.400 273.020,100.400 272.800 C 100.400 272.580,99.860 272.400,99.200 272.400 C 98.540 272.400,98.000 272.220,98.000 272.000 C 98.000 271.780,97.460 271.600,96.800 271.600 C 96.140 271.600,95.600 271.453,95.600 271.272 C 95.600 271.092,94.700 270.700,93.600 270.400 C 92.500 270.100,91.600 269.708,91.600 269.528 C 91.600 269.347,91.150 269.200,90.600 269.200 C 90.050 269.200,89.600 269.020,89.600 268.800 C 89.600 268.580,89.251 268.400,88.824 268.400 C 88.397 268.400,87.936 268.220,87.800 268.000 C 87.664 267.780,87.203 267.600,86.776 267.600 C 86.349 267.600,86.000 267.420,86.000 267.200 C 86.000 266.980,85.550 266.800,85.000 266.800 C 84.450 266.800,84.000 266.620,84.000 266.400 C 84.000 266.180,83.640 266.000,83.200 266.000 C 82.760 266.000,82.400 265.820,82.400 265.600 C 82.400 265.380,82.040 265.200,81.600 265.200 C 81.160 265.200,80.800 265.020,80.800 264.800 C 80.800 264.580,80.546 264.400,80.236 264.400 C 79.927 264.400,77.742 263.410,75.382 262.200 C 73.022 260.990,70.846 260.000,70.546 260.000 C 70.246 260.000,70.000 259.820,70.000 259.600 C 70.000 259.380,69.722 259.200,69.383 259.200 C 69.044 259.200,68.380 258.840,67.908 258.400 C 67.436 257.960,66.813 257.600,66.525 257.600 C 66.236 257.600,66.000 257.420,66.000 257.200 C 66.000 256.980,65.722 256.800,65.383 256.800 C 65.044 256.800,64.380 256.440,63.908 256.000 C 63.436 255.560,62.813 255.200,62.525 255.200 C 62.236 255.200,62.000 255.020,62.000 254.800 C 62.000 254.580,61.680 254.400,61.288 254.400 C 60.897 254.400,60.317 254.040,60.000 253.600 C 59.683 253.160,59.193 252.800,58.912 252.800 C 58.630 252.800,58.400 252.659,58.400 252.486 C 58.400 252.314,57.905 251.879,57.300 251.521 C 56.695 251.163,55.660 250.404,55.000 249.835 C 54.340 249.266,53.647 248.801,53.460 248.800 C 53.274 248.800,52.644 248.290,52.060 247.667 C 51.477 247.043,50.567 246.302,50.038 246.019 C 48.914 245.419,48.213 244.805,44.196 240.900 C 42.555 239.305,41.030 238.000,40.806 238.000 C 40.534 238.000,40.400 250.079,40.400 274.600 " stroke="none" fill="#040404" fill-rule="evenodd"></path><path id="path1" d="" stroke="none" fill="#080404" fill-rule="evenodd"></path><path id="path2" d="" stroke="none" fill="#080404" fill-rule="evenodd"></path><path id="path3" d="" stroke="none" fill="#080404" fill-rule="evenodd"></path><path id="path4" d="" stroke="none" fill="#080404" fill-rule="evenodd"></path></g></svg>