<svg id="svg" version="1.1" width="400" height="400" viewBox="0 0 400 400" xmlns="http://www.w3.org/2000/svg" xmlns:xlink="http://www.w3.org/1999/xlink" ><g id="svgg"><path id="path0" d="M188.400 0.400 C 188.400 0.620,187.502 0.800,186.403 0.800 C 184.840 0.800,184.298 0.974,183.907 1.600 C 183.601 2.090,182.974 2.400,182.291 2.400 C 181.656 2.400,181.073 2.665,180.939 3.015 C 180.809 3.353,180.095 3.884,179.351 4.194 C 178.608 4.505,178.000 4.948,178.000 5.180 C 178.000 5.411,177.550 5.600,177.000 5.600 C 176.267 5.600,176.000 5.813,176.000 6.400 C 176.000 6.933,175.733 7.200,175.200 7.200 C 174.667 7.200,174.400 7.467,174.400 8.000 C 174.400 8.533,174.133 8.800,173.600 8.800 C 173.067 8.800,172.800 9.067,172.800 9.600 C 172.800 10.133,172.533 10.400,172.000 10.400 C 171.467 10.400,171.200 10.667,171.200 11.200 C 171.200 11.733,170.933 12.000,170.400 12.000 C 169.960 12.000,169.600 12.258,169.600 12.573 C 169.600 12.888,169.240 13.260,168.800 13.400 C 168.360 13.540,168.000 13.980,168.000 14.378 C 168.000 14.776,167.737 15.320,167.415 15.587 C 167.094 15.854,166.716 16.434,166.576 16.876 C 166.436 17.317,165.979 18.021,165.561 18.439 C 165.142 18.858,164.800 19.650,164.800 20.200 C 164.800 20.785,164.570 21.200,164.247 21.200 C 163.595 21.200,163.213 22.411,163.205 24.500 C 163.202 25.564,163.026 26.000,162.600 26.000 C 162.087 26.000,162.000 27.133,162.000 33.800 L 162.000 41.600 160.400 41.600 C 159.067 41.600,158.800 41.733,158.800 42.400 C 158.800 43.111,158.533 43.200,156.400 43.200 C 154.267 43.200,154.000 43.289,154.000 44.000 C 154.000 44.704,153.733 44.800,151.787 44.800 C 150.190 44.800,149.511 44.967,149.345 45.400 C 149.205 45.763,148.601 46.000,147.811 46.000 C 147.094 46.000,146.079 46.334,145.554 46.742 C 145.029 47.150,143.925 47.608,143.100 47.760 C 142.181 47.929,141.600 48.261,141.600 48.618 C 141.600 48.967,141.212 49.200,140.633 49.200 C 139.252 49.200,138.400 49.598,138.400 50.243 C 138.400 50.616,137.925 50.800,136.963 50.800 C 135.862 50.800,135.476 50.987,135.316 51.600 C 135.166 52.174,134.770 52.400,133.916 52.400 C 133.062 52.400,132.666 52.626,132.516 53.200 C 132.386 53.698,131.970 54.000,131.415 54.000 C 130.925 54.000,130.198 54.360,129.800 54.800 C 129.402 55.240,128.744 55.600,128.338 55.600 C 127.867 55.600,127.600 55.889,127.600 56.400 C 127.600 57.052,127.333 57.200,126.163 57.200 C 125.062 57.200,124.676 57.387,124.516 58.000 C 124.400 58.443,123.970 58.800,123.553 58.800 C 123.067 58.800,122.800 59.083,122.800 59.600 C 122.800 60.252,122.533 60.400,121.363 60.400 C 120.262 60.400,119.876 60.587,119.716 61.200 C 119.600 61.643,119.170 62.000,118.753 62.000 C 118.339 62.000,118.000 62.270,118.000 62.600 C 118.000 62.930,117.765 63.200,117.478 63.200 C 116.517 63.200,112.000 66.742,112.000 67.496 C 112.000 67.773,111.640 68.000,111.200 68.000 C 110.667 68.000,110.400 68.267,110.400 68.800 C 110.400 69.333,110.133 69.600,109.600 69.600 C 109.067 69.600,108.800 69.867,108.800 70.400 C 108.800 70.933,108.533 71.200,108.000 71.200 C 107.560 71.200,106.840 71.560,106.400 72.000 C 105.960 72.440,105.422 72.800,105.203 72.800 C 104.985 72.800,104.582 73.160,104.307 73.600 C 104.032 74.040,103.593 74.400,103.331 74.400 C 103.068 74.400,102.740 74.760,102.600 75.200 C 102.460 75.640,102.100 76.000,101.800 76.000 C 101.500 76.000,101.140 76.360,101.000 76.800 C 100.860 77.240,100.488 77.600,100.173 77.600 C 99.858 77.600,99.600 77.960,99.600 78.400 C 99.600 78.840,99.396 79.200,99.147 79.200 C 98.417 79.200,96.000 81.987,96.000 82.828 C 96.000 83.253,95.730 83.600,95.400 83.600 C 95.067 83.600,94.800 83.956,94.800 84.400 C 94.800 84.933,94.533 85.200,94.000 85.200 C 93.467 85.200,93.200 85.467,93.200 86.000 C 93.200 86.533,92.933 86.800,92.400 86.800 C 91.867 86.800,91.600 87.067,91.600 87.600 C 91.600 88.052,91.333 88.400,90.987 88.400 C 90.651 88.400,90.262 88.715,90.123 89.100 C 89.985 89.485,89.541 90.122,89.136 90.516 C 88.731 90.909,88.400 91.674,88.400 92.216 C 88.400 92.933,88.183 93.200,87.600 93.200 C 87.083 93.200,86.800 93.467,86.800 93.953 C 86.800 94.370,86.443 94.800,86.000 94.916 C 85.417 95.068,85.200 95.462,85.200 96.363 C 85.200 97.207,85.006 97.600,84.587 97.600 C 84.251 97.600,83.862 97.915,83.723 98.300 C 83.585 98.685,83.141 99.322,82.736 99.716 C 82.331 100.109,82.000 100.853,82.000 101.369 C 82.000 101.970,81.713 102.382,81.200 102.516 C 80.739 102.637,80.400 103.062,80.400 103.520 C 80.400 103.957,80.130 104.418,79.800 104.545 C 79.457 104.676,79.200 105.273,79.200 105.941 C 79.200 106.770,78.969 107.167,78.400 107.316 C 77.787 107.476,77.600 107.862,77.600 108.963 C 77.600 110.133,77.452 110.400,76.800 110.400 C 76.155 110.400,76.000 110.667,76.000 111.773 C 76.000 112.795,75.795 113.211,75.200 113.400 C 74.599 113.591,74.400 114.005,74.400 115.064 C 74.400 116.138,74.209 116.525,73.600 116.684 C 72.985 116.845,72.800 117.230,72.800 118.350 C 72.800 119.374,72.562 119.956,72.000 120.307 C 71.398 120.683,71.200 121.240,71.200 122.557 C 71.200 123.970,71.046 124.347,70.400 124.516 C 69.747 124.687,69.600 125.062,69.600 126.559 C 69.600 127.960,69.411 128.511,68.800 128.893 C 68.192 129.273,68.000 129.826,68.000 131.200 C 68.000 132.574,67.808 133.127,67.200 133.507 C 66.558 133.908,66.400 134.440,66.400 136.203 C 66.400 137.807,66.251 138.400,65.847 138.400 C 65.139 138.400,64.812 139.641,64.805 142.356 C 64.801 143.943,64.615 144.647,64.100 145.023 C 63.527 145.442,63.375 146.300,63.264 149.767 C 63.157 153.077,63.004 154.000,62.564 154.000 C 62.081 154.000,62.000 163.118,62.000 217.304 C 62.000 280.174,61.995 280.611,61.200 281.107 C 60.460 281.569,60.400 282.040,60.400 287.403 C 60.400 292.933,60.363 293.200,59.600 293.200 C 58.899 293.200,58.800 293.467,58.800 295.353 C 58.800 297.170,58.675 297.539,58.000 297.716 C 57.394 297.875,57.200 298.262,57.200 299.316 C 57.200 300.370,57.006 300.757,56.400 300.916 C 55.794 301.075,55.600 301.462,55.600 302.516 C 55.600 303.570,55.406 303.957,54.800 304.116 C 54.187 304.276,54.000 304.662,54.000 305.763 C 54.000 306.933,53.852 307.200,53.200 307.200 C 52.667 307.200,52.400 307.467,52.400 308.000 C 52.400 308.440,52.149 308.800,51.843 308.800 C 51.198 308.800,50.800 309.652,50.800 311.033 C 50.800 311.733,50.579 312.000,50.000 312.000 C 49.560 312.000,49.200 312.249,49.200 312.553 C 49.200 312.858,48.840 313.201,48.400 313.316 C 47.960 313.431,47.600 313.791,47.600 314.116 C 47.600 314.441,47.240 314.801,46.800 314.916 C 46.360 315.031,46.000 315.412,46.000 315.763 C 46.000 316.113,45.730 316.400,45.400 316.400 C 45.067 316.400,44.800 316.756,44.800 317.200 C 44.800 317.733,44.533 318.000,44.000 318.000 C 43.467 318.000,43.200 318.267,43.200 318.800 C 43.200 319.422,42.933 319.600,42.003 319.600 C 41.240 319.600,40.626 319.890,40.307 320.400 C 40.032 320.840,39.491 321.200,39.104 321.200 C 38.667 321.200,38.400 321.503,38.400 322.000 C 38.400 322.652,38.133 322.800,36.963 322.800 C 35.862 322.800,35.476 322.987,35.316 323.600 C 35.161 324.194,34.770 324.400,33.800 324.400 C 32.830 324.400,32.439 324.606,32.284 325.200 C 32.124 325.813,31.738 326.000,30.637 326.000 C 29.467 326.000,29.200 326.148,29.200 326.800 C 29.200 327.511,28.933 327.600,26.800 327.600 C 24.667 327.600,24.400 327.689,24.400 328.400 C 24.400 329.163,24.133 329.200,18.680 329.200 C 14.764 329.200,12.809 329.351,12.480 329.680 C 12.126 330.034,12.000 333.698,12.000 343.680 L 12.000 357.200 77.920 357.200 C 128.658 357.200,143.951 357.311,144.320 357.680 C 144.592 357.952,144.800 359.253,144.800 360.680 C 144.800 362.653,144.930 363.200,145.400 363.200 C 145.829 363.200,146.000 363.638,146.000 364.738 C 146.000 365.735,146.264 366.515,146.752 366.956 C 147.165 367.331,147.617 368.349,147.757 369.218 C 147.920 370.239,148.221 370.800,148.605 370.800 C 148.932 370.800,149.200 371.158,149.200 371.597 C 149.200 372.035,149.560 372.618,150.000 372.893 C 150.486 373.196,150.800 373.826,150.800 374.496 C 150.800 375.312,150.997 375.600,151.555 375.600 C 152.098 375.600,152.383 375.984,152.566 376.961 C 152.707 377.710,153.087 378.424,153.411 378.549 C 153.735 378.673,154.000 379.141,154.000 379.587 C 154.000 380.133,154.263 380.400,154.800 380.400 C 155.333 380.400,155.600 380.667,155.600 381.200 C 155.600 381.733,155.867 382.000,156.400 382.000 C 156.933 382.000,157.200 382.267,157.200 382.800 C 157.200 383.333,157.467 383.600,158.000 383.600 C 158.533 383.600,158.800 383.867,158.800 384.400 C 158.800 384.933,159.067 385.200,159.600 385.200 C 160.133 385.200,160.400 385.467,160.400 386.000 C 160.400 386.533,160.667 386.800,161.200 386.800 C 161.640 386.800,162.003 387.025,162.007 387.300 C 162.020 388.225,164.407 390.169,166.900 391.283 C 167.505 391.554,168.000 392.006,168.000 392.288 C 168.000 392.569,168.407 392.800,168.904 392.800 C 169.401 392.800,170.032 393.160,170.307 393.600 C 170.582 394.040,171.234 394.400,171.757 394.400 C 172.370 394.400,172.781 394.683,172.916 395.200 C 173.068 395.783,173.462 396.000,174.363 396.000 C 175.067 396.000,175.945 396.345,176.400 396.800 C 176.929 397.329,177.733 397.600,178.773 397.600 C 179.995 397.600,180.403 397.779,180.600 398.400 C 180.816 399.082,181.205 399.200,183.227 399.200 C 184.542 399.200,185.600 399.378,185.600 399.600 C 185.600 399.859,190.667 400.000,200.000 400.000 C 209.333 400.000,214.400 399.859,214.400 399.600 C 214.400 399.377,215.479 399.200,216.837 399.200 C 218.938 399.200,219.304 399.090,219.484 398.400 C 219.653 397.754,220.030 397.600,221.443 397.600 C 222.760 397.600,223.317 397.402,223.693 396.800 C 224.031 396.258,224.626 396.000,225.534 396.000 C 226.538 396.000,226.927 395.799,227.084 395.200 C 227.219 394.683,227.630 394.400,228.243 394.400 C 228.766 394.400,229.418 394.040,229.693 393.600 C 229.968 393.160,230.599 392.800,231.096 392.800 C 231.633 392.800,232.000 392.556,232.000 392.200 C 232.000 391.870,232.326 391.600,232.725 391.600 C 233.123 391.600,233.812 391.262,234.255 390.849 C 234.699 390.436,235.453 389.974,235.931 389.822 C 236.409 389.670,236.800 389.309,236.800 389.020 C 236.800 388.730,237.160 388.399,237.600 388.284 C 238.040 388.169,238.400 387.809,238.400 387.484 C 238.400 387.159,238.760 386.799,239.200 386.684 C 239.640 386.569,240.000 386.209,240.000 385.884 C 240.000 385.559,240.360 385.199,240.800 385.084 C 241.240 384.969,241.600 384.588,241.600 384.237 C 241.600 383.887,241.870 383.600,242.200 383.600 C 242.533 383.600,242.800 383.244,242.800 382.800 C 242.800 382.267,243.067 382.000,243.600 382.000 C 244.133 382.000,244.400 381.733,244.400 381.200 C 244.400 380.667,244.667 380.400,245.200 380.400 C 245.644 380.400,246.000 380.133,246.000 379.800 C 246.000 379.470,246.360 378.840,246.800 378.400 C 247.240 377.960,247.600 377.150,247.600 376.600 C 247.600 375.867,247.813 375.600,248.400 375.600 C 248.986 375.600,249.200 375.333,249.200 374.603 C 249.200 374.040,249.548 373.390,250.000 373.107 C 250.440 372.832,250.800 372.201,250.800 371.704 C 250.800 371.170,251.044 370.800,251.395 370.800 C 251.779 370.800,252.080 370.239,252.243 369.218 C 252.383 368.349,252.835 367.331,253.248 366.956 C 253.736 366.515,254.000 365.735,254.000 364.738 C 254.000 363.690,254.178 363.200,254.557 363.200 C 255.308 363.200,255.600 362.310,255.600 360.016 C 255.600 358.895,255.824 357.912,256.140 357.650 C 256.532 357.325,274.643 357.175,322.440 357.101 L 388.200 357.000 388.305 343.892 L 388.411 330.784 387.405 330.402 C 386.852 330.192,386.400 329.835,386.400 329.610 C 386.400 329.350,384.420 329.200,381.000 329.200 C 375.867 329.200,375.600 329.160,375.600 328.400 C 375.600 327.699,375.333 327.600,373.447 327.600 C 371.630 327.600,371.261 327.475,371.084 326.800 C 370.925 326.194,370.538 326.000,369.484 326.000 C 368.430 326.000,368.043 325.806,367.884 325.200 C 367.725 324.594,367.338 324.400,366.284 324.400 C 365.230 324.400,364.843 324.206,364.684 323.600 C 364.524 322.987,364.138 322.800,363.037 322.800 C 361.867 322.800,361.600 322.652,361.600 322.000 C 361.600 321.467,361.333 321.200,360.800 321.200 C 360.360 321.200,360.000 320.949,360.000 320.643 C 360.000 320.031,359.159 319.600,357.967 319.600 C 357.532 319.600,357.200 319.324,357.200 318.963 C 357.200 318.612,356.840 318.231,356.400 318.116 C 355.960 318.001,355.600 317.641,355.600 317.316 C 355.600 316.991,355.240 316.631,354.800 316.516 C 354.360 316.401,354.000 316.041,354.000 315.716 C 354.000 315.391,353.640 315.031,353.200 314.916 C 352.760 314.801,352.400 314.441,352.400 314.116 C 352.400 313.791,352.040 313.431,351.600 313.316 C 351.160 313.201,350.800 312.858,350.800 312.553 C 350.800 312.249,350.440 312.000,350.000 312.000 C 349.348 312.000,349.200 311.733,349.200 310.563 C 349.200 309.462,349.013 309.076,348.400 308.916 C 347.957 308.800,347.600 308.370,347.600 307.953 C 347.600 307.467,347.317 307.200,346.800 307.200 C 346.133 307.200,346.000 306.933,346.000 305.600 C 346.000 304.267,345.867 304.000,345.200 304.000 C 344.548 304.000,344.400 303.733,344.400 302.563 C 344.400 301.462,344.213 301.076,343.600 300.916 C 342.997 300.758,342.800 300.370,342.800 299.341 C 342.800 298.496,342.571 297.887,342.200 297.745 C 341.778 297.583,341.600 296.924,341.600 295.520 C 341.600 293.862,341.465 293.490,340.800 293.316 C 340.066 293.124,340.000 292.770,340.000 289.003 C 340.000 284.208,339.713 282.400,338.950 282.400 C 338.486 282.400,338.400 272.502,338.400 218.833 C 338.400 155.037,338.383 154.000,337.357 154.000 C 336.918 154.000,336.800 153.157,336.800 150.033 C 336.800 145.733,336.614 144.800,335.757 144.800 C 335.330 144.800,335.200 144.092,335.200 141.763 C 335.200 139.062,335.111 138.702,334.400 138.516 C 333.719 138.338,333.600 137.970,333.600 136.050 C 333.600 134.226,333.446 133.697,332.800 133.293 C 332.203 132.920,332.000 132.360,332.000 131.085 C 332.000 129.835,331.785 129.222,331.200 128.800 C 330.592 128.362,330.400 127.765,330.400 126.312 C 330.400 124.667,330.288 124.400,329.600 124.400 C 328.936 124.400,328.800 124.133,328.800 122.833 C 328.800 120.878,328.477 120.000,327.757 120.000 C 327.377 120.000,327.200 119.508,327.200 118.447 C 327.200 117.230,327.027 116.848,326.400 116.684 C 325.786 116.523,325.600 116.138,325.600 115.025 C 325.600 114.105,325.381 113.491,325.000 113.345 C 324.670 113.218,324.400 112.788,324.400 112.390 C 324.400 111.270,323.966 110.400,323.408 110.400 C 323.127 110.400,322.789 109.689,322.646 108.800 C 322.481 107.765,322.180 107.200,321.795 107.200 C 321.467 107.200,321.200 106.842,321.200 106.400 C 321.200 105.960,320.840 105.240,320.400 104.800 C 319.960 104.360,319.600 103.640,319.600 103.200 C 319.600 102.667,319.333 102.400,318.800 102.400 C 318.180 102.400,318.000 102.133,318.000 101.214 C 318.000 100.438,317.724 99.880,317.200 99.600 C 316.760 99.365,316.400 98.818,316.400 98.386 C 316.400 97.867,316.129 97.600,315.600 97.600 C 314.952 97.600,314.800 97.333,314.800 96.200 C 314.800 95.067,314.648 94.800,314.000 94.800 C 313.467 94.800,313.200 94.533,313.200 94.000 C 313.200 93.467,312.933 93.200,312.400 93.200 C 311.780 93.200,311.600 92.933,311.600 92.014 C 311.600 91.238,311.324 90.680,310.800 90.400 C 310.360 90.165,310.000 89.618,310.000 89.186 C 310.000 88.667,309.729 88.400,309.200 88.400 C 308.667 88.400,308.400 88.133,308.400 87.600 C 308.400 87.156,308.133 86.800,307.800 86.800 C 307.470 86.800,307.200 86.513,307.200 86.163 C 307.200 85.812,306.840 85.431,306.400 85.316 C 305.957 85.200,305.600 84.770,305.600 84.353 C 305.600 83.867,305.317 83.600,304.800 83.600 C 304.274 83.600,304.000 83.333,304.000 82.821 C 304.000 82.392,303.550 81.556,303.000 80.962 C 302.450 80.369,302.000 79.729,302.000 79.542 C 302.000 79.354,301.742 79.200,301.427 79.200 C 301.112 79.200,300.740 78.840,300.600 78.400 C 300.460 77.960,300.088 77.600,299.773 77.600 C 299.458 77.600,299.200 77.313,299.200 76.963 C 299.200 76.612,298.840 76.231,298.400 76.116 C 297.960 76.001,297.600 75.641,297.600 75.316 C 297.600 74.991,297.240 74.631,296.800 74.516 C 296.360 74.401,296.000 74.053,296.000 73.743 C 296.000 73.434,295.550 73.009,295.000 72.800 C 294.450 72.591,294.000 72.250,294.000 72.042 C 294.000 71.834,293.460 71.545,292.800 71.400 C 291.975 71.219,291.600 70.897,291.600 70.368 C 291.600 69.883,291.323 69.600,290.847 69.600 C 290.430 69.600,290.000 69.243,289.884 68.800 C 289.769 68.360,289.409 68.000,289.084 68.000 C 288.759 68.000,288.399 67.640,288.284 67.200 C 288.169 66.760,287.788 66.400,287.437 66.400 C 287.087 66.400,286.800 66.133,286.800 65.808 C 286.800 65.482,286.363 65.106,285.829 64.972 C 285.296 64.838,284.548 64.384,284.167 63.964 C 283.787 63.544,283.144 63.200,282.738 63.200 C 282.332 63.200,282.000 62.930,282.000 62.600 C 282.000 62.270,281.661 62.000,281.247 62.000 C 280.830 62.000,280.400 61.643,280.284 61.200 C 280.124 60.587,279.738 60.400,278.637 60.400 C 277.467 60.400,277.200 60.252,277.200 59.600 C 277.200 59.067,276.933 58.800,276.400 58.800 C 275.867 58.800,275.600 58.533,275.600 58.000 C 275.600 57.358,275.333 57.200,274.247 57.200 C 273.230 57.200,272.841 57.001,272.684 56.400 C 272.569 55.960,272.188 55.600,271.837 55.600 C 271.487 55.600,270.840 55.240,270.400 54.800 C 269.960 54.360,269.283 54.000,268.896 54.000 C 268.509 54.000,267.968 53.640,267.693 53.200 C 267.381 52.701,266.760 52.400,266.043 52.400 C 265.230 52.400,264.832 52.166,264.684 51.600 C 264.524 50.987,264.138 50.800,263.037 50.800 C 262.075 50.800,261.600 50.616,261.600 50.243 C 261.600 49.598,260.748 49.200,259.367 49.200 C 258.788 49.200,258.400 48.967,258.400 48.618 C 258.400 48.262,257.817 47.927,256.900 47.756 C 256.075 47.601,255.209 47.215,254.976 46.897 C 254.742 46.579,253.707 46.224,252.676 46.107 C 251.457 45.970,250.800 45.704,250.800 45.348 C 250.800 44.945,250.165 44.800,248.400 44.800 C 246.267 44.800,246.000 44.711,246.000 44.000 C 246.000 43.299,245.733 43.200,243.847 43.200 C 242.030 43.200,241.661 43.075,241.484 42.400 C 241.324 41.787,240.938 41.600,239.837 41.600 L 238.400 41.600 238.400 34.433 C 238.400 26.962,238.281 26.000,237.357 26.000 C 236.947 26.000,236.800 25.408,236.800 23.763 C 236.800 21.862,236.680 21.494,236.000 21.316 C 235.394 21.157,235.200 20.770,235.200 19.716 C 235.200 18.662,235.006 18.275,234.400 18.116 C 233.960 18.001,233.600 17.596,233.600 17.215 C 233.600 16.835,233.240 16.198,232.800 15.800 C 232.360 15.402,232.000 14.756,232.000 14.365 C 232.000 13.974,231.640 13.540,231.200 13.400 C 230.760 13.260,230.400 12.888,230.400 12.573 C 230.400 12.258,230.040 12.000,229.600 12.000 C 229.067 12.000,228.800 11.733,228.800 11.200 C 228.800 10.667,228.533 10.400,228.000 10.400 C 227.467 10.400,227.200 10.133,227.200 9.600 C 227.200 9.067,226.933 8.800,226.400 8.800 C 225.867 8.800,225.600 8.533,225.600 8.000 C 225.600 7.560,225.351 7.200,225.047 7.200 C 224.742 7.200,224.399 6.840,224.284 6.400 C 224.166 5.947,223.738 5.600,223.299 5.600 C 222.873 5.600,222.198 5.240,221.800 4.800 C 221.402 4.360,220.765 4.000,220.385 4.000 C 220.004 4.000,219.599 3.640,219.484 3.200 C 219.324 2.587,218.938 2.400,217.837 2.400 C 216.875 2.400,216.400 2.216,216.400 1.843 C 216.400 1.104,215.514 0.800,213.367 0.800 C 212.395 0.800,211.600 0.620,211.600 0.400 C 211.600 0.143,207.467 0.000,200.000 0.000 C 192.533 0.000,188.400 0.143,188.400 0.400 M204.907 28.000 C 205.284 28.440,205.954 28.800,206.396 28.800 C 206.933 28.800,207.200 29.065,207.200 29.600 C 207.200 30.133,207.467 30.400,208.000 30.400 C 208.535 30.400,208.800 30.667,208.800 31.204 C 208.800 31.646,209.160 32.316,209.600 32.693 C 210.169 33.180,210.400 33.873,210.400 35.089 L 210.400 36.800 200.097 36.800 L 189.794 36.800 189.935 35.035 C 190.016 34.015,190.397 32.925,190.837 32.452 C 191.257 32.002,191.600 31.356,191.600 31.017 C 191.600 30.678,191.870 30.400,192.200 30.400 C 192.530 30.400,192.800 30.063,192.800 29.650 C 192.800 29.135,193.180 28.824,194.009 28.658 C 194.675 28.525,195.324 28.143,195.452 27.808 C 195.850 26.771,203.997 26.937,204.907 28.000 M201.107 64.000 C 201.580 64.757,202.040 64.800,209.757 64.800 C 217.570 64.800,217.915 64.833,218.116 65.600 C 218.307 66.330,218.662 66.400,222.163 66.400 C 225.733 66.400,226.000 66.456,226.000 67.200 C 226.000 67.903,226.267 68.000,228.200 68.000 C 229.867 68.000,230.594 68.194,231.200 68.800 C 231.742 69.342,232.533 69.600,233.656 69.600 C 234.713 69.600,235.481 69.832,235.780 70.241 C 236.043 70.600,237.073 70.974,238.124 71.093 C 239.257 71.220,240.000 71.504,240.000 71.809 C 240.000 72.424,240.895 72.800,242.357 72.800 C 242.958 72.800,243.836 73.160,244.308 73.600 C 244.780 74.040,245.714 74.400,246.383 74.400 C 247.198 74.400,247.600 74.598,247.600 75.000 C 247.600 75.433,248.044 75.600,249.200 75.600 C 250.533 75.600,250.800 75.733,250.800 76.400 C 250.800 77.022,251.067 77.200,251.997 77.200 C 252.760 77.200,253.374 77.490,253.693 78.000 C 253.968 78.440,254.488 78.800,254.850 78.800 C 255.211 78.800,255.601 79.160,255.716 79.600 C 255.876 80.213,256.262 80.400,257.363 80.400 C 258.533 80.400,258.800 80.548,258.800 81.200 C 258.800 81.718,259.067 82.000,259.557 82.000 C 259.974 82.000,260.412 82.253,260.530 82.562 C 260.649 82.872,261.280 83.242,261.932 83.385 C 262.630 83.538,263.202 83.965,263.322 84.423 C 263.441 84.880,263.870 85.200,264.363 85.200 C 264.823 85.200,265.200 85.451,265.200 85.757 C 265.200 86.369,266.041 86.800,267.233 86.800 C 267.668 86.800,268.000 87.076,268.000 87.437 C 268.000 87.788,268.360 88.169,268.800 88.284 C 269.240 88.399,269.600 88.759,269.600 89.084 C 269.600 89.409,269.943 89.765,270.363 89.874 C 270.783 89.984,271.216 90.417,271.326 90.837 C 271.435 91.257,271.812 91.600,272.163 91.600 C 272.513 91.600,272.800 91.870,272.800 92.200 C 272.800 92.530,273.139 92.800,273.553 92.800 C 273.970 92.800,274.400 93.157,274.516 93.600 C 274.631 94.040,275.012 94.400,275.363 94.400 C 275.713 94.400,276.000 94.676,276.000 95.013 C 276.000 95.349,276.290 95.736,276.644 95.872 C 277.538 96.215,279.008 97.660,279.317 98.500 C 279.459 98.885,279.851 99.200,280.187 99.200 C 280.524 99.200,280.800 99.374,280.800 99.587 C 280.800 99.799,281.395 100.568,282.122 101.296 C 282.849 102.023,283.564 102.929,283.710 103.309 C 283.856 103.689,284.230 104.000,284.541 104.000 C 284.852 104.000,285.201 104.360,285.316 104.800 C 285.431 105.240,285.812 105.600,286.163 105.600 C 286.533 105.600,286.800 105.935,286.800 106.400 C 286.800 106.933,287.067 107.200,287.600 107.200 C 288.228 107.200,288.400 107.467,288.400 108.437 C 288.400 109.338,288.617 109.732,289.200 109.884 C 289.643 110.000,290.000 110.430,290.000 110.847 C 290.000 111.333,290.283 111.600,290.800 111.600 C 291.420 111.600,291.600 111.867,291.600 112.786 C 291.600 113.562,291.876 114.120,292.400 114.400 C 292.840 114.635,293.200 115.182,293.200 115.614 C 293.200 116.133,293.471 116.400,294.000 116.400 C 294.649 116.400,294.800 116.667,294.800 117.813 C 294.800 118.699,295.023 119.311,295.400 119.455 C 295.730 119.582,296.000 119.908,296.000 120.181 C 296.000 120.453,296.360 121.002,296.800 121.400 C 297.240 121.798,297.600 122.563,297.600 123.099 C 297.600 123.738,297.876 124.147,298.400 124.284 C 299.001 124.441,299.200 124.830,299.200 125.847 C 299.200 126.933,299.358 127.200,300.000 127.200 C 300.667 127.200,300.800 127.467,300.800 128.800 C 300.800 129.867,301.067 130.667,301.600 131.200 C 302.103 131.703,302.400 132.533,302.400 133.437 C 302.400 134.538,302.587 134.924,303.200 135.084 C 303.827 135.248,304.000 135.630,304.000 136.847 C 304.000 137.867,304.275 138.675,304.800 139.200 C 305.333 139.733,305.600 140.533,305.600 141.600 C 305.600 142.667,305.867 143.467,306.400 144.000 C 307.006 144.606,307.200 145.333,307.200 147.000 C 307.200 148.933,307.297 149.200,308.000 149.200 C 308.743 149.200,308.800 149.467,308.800 152.973 C 308.800 156.395,308.874 156.770,309.600 157.000 C 310.366 157.243,310.400 157.605,310.400 165.464 C 310.400 173.338,310.433 173.683,311.200 173.884 C 311.996 174.092,312.000 174.430,312.000 235.627 C 312.000 287.512,312.087 297.210,312.552 297.480 C 312.906 297.685,313.165 298.784,313.274 300.548 C 313.396 302.527,313.634 303.436,314.122 303.792 C 314.539 304.098,314.800 304.835,314.800 305.711 C 314.800 307.527,315.139 308.400,315.843 308.400 C 316.226 308.400,316.400 308.899,316.400 310.000 C 316.400 311.333,316.533 311.600,317.200 311.600 C 317.867 311.600,318.000 311.867,318.000 313.200 C 318.000 314.267,318.267 315.067,318.800 315.600 C 319.240 316.040,319.600 316.678,319.600 317.017 C 319.600 317.356,319.960 318.020,320.400 318.492 C 320.840 318.964,321.200 319.694,321.200 320.113 C 321.200 320.538,321.553 320.967,322.000 321.084 C 322.601 321.241,322.800 321.630,322.800 322.647 C 322.800 323.618,322.980 324.000,323.437 324.000 C 323.788 324.000,324.169 324.360,324.284 324.800 C 324.400 325.243,324.830 325.600,325.247 325.600 C 325.845 325.600,326.000 325.896,326.000 327.037 C 326.000 328.138,326.187 328.524,326.800 328.684 C 327.243 328.800,327.600 329.230,327.600 329.647 C 327.600 330.383,324.699 330.400,200.000 330.400 C 114.375 330.400,72.400 330.267,72.400 329.996 C 72.400 329.774,72.759 329.285,73.198 328.909 C 73.637 328.533,74.107 327.635,74.243 326.913 C 74.378 326.191,74.718 325.600,74.998 325.600 C 75.278 325.600,75.601 325.240,75.716 324.800 C 75.831 324.360,76.212 324.000,76.563 324.000 C 77.024 324.000,77.200 323.614,77.200 322.600 C 77.200 321.467,77.352 321.200,78.000 321.200 C 78.573 321.200,78.800 320.933,78.800 320.262 C 78.800 319.746,79.160 318.998,79.600 318.600 C 80.040 318.202,80.400 317.584,80.400 317.227 C 80.400 316.870,80.760 316.270,81.200 315.893 C 81.699 315.466,82.000 314.713,82.000 313.892 C 82.000 313.035,82.279 312.375,82.800 312.000 C 83.349 311.604,83.600 310.965,83.600 309.958 C 83.600 308.830,83.784 308.445,84.400 308.284 C 85.061 308.111,85.200 307.738,85.200 306.134 C 85.200 304.626,85.379 304.081,86.000 303.693 C 86.669 303.275,86.800 302.760,86.800 300.541 C 86.800 298.476,86.955 297.775,87.500 297.376 C 88.161 296.893,88.206 293.408,88.304 235.432 C 88.390 184.220,88.497 174.000,88.947 174.000 C 89.670 174.000,90.000 170.621,90.000 163.230 C 90.000 157.873,90.068 157.320,90.800 156.693 C 91.484 156.107,91.600 155.513,91.600 152.604 C 91.600 149.845,91.714 149.200,92.200 149.200 C 92.665 149.200,92.800 148.672,92.800 146.847 C 92.800 144.830,92.914 144.463,93.600 144.284 C 94.274 144.108,94.400 143.738,94.400 141.934 C 94.400 140.226,94.562 139.691,95.200 139.293 C 95.802 138.917,96.000 138.360,96.000 137.043 C 96.000 135.630,96.154 135.253,96.800 135.084 C 97.413 134.924,97.600 134.538,97.600 133.437 C 97.600 132.533,97.897 131.703,98.400 131.200 C 98.933 130.667,99.200 129.867,99.200 128.800 C 99.200 127.467,99.333 127.200,100.000 127.200 C 100.642 127.200,100.800 126.933,100.800 125.847 C 100.800 124.830,100.999 124.441,101.600 124.284 C 102.116 124.149,102.400 123.738,102.400 123.126 C 102.400 122.604,102.760 121.917,103.200 121.600 C 103.640 121.283,104.000 120.722,104.000 120.354 C 104.000 119.987,104.260 119.586,104.578 119.464 C 104.896 119.342,105.273 118.619,105.416 117.858 C 105.582 116.971,105.949 116.402,106.438 116.274 C 106.865 116.163,107.200 115.725,107.200 115.280 C 107.200 114.843,107.470 114.382,107.800 114.255 C 108.151 114.121,108.400 113.521,108.400 112.813 C 108.400 111.867,108.576 111.600,109.200 111.600 C 109.733 111.600,110.000 111.333,110.000 110.800 C 110.000 110.267,110.267 110.000,110.800 110.000 C 111.448 110.000,111.600 109.733,111.600 108.600 C 111.600 107.467,111.752 107.200,112.400 107.200 C 112.933 107.200,113.200 106.933,113.200 106.400 C 113.200 105.935,113.467 105.600,113.837 105.600 C 114.188 105.600,114.569 105.240,114.684 104.800 C 114.800 104.357,115.230 104.000,115.647 104.000 C 116.061 104.000,116.400 103.738,116.400 103.417 C 116.400 103.096,117.390 101.867,118.600 100.686 C 119.810 99.505,120.800 98.393,120.800 98.215 C 120.800 97.784,122.547 96.183,123.356 95.872 C 123.710 95.736,124.000 95.349,124.000 95.013 C 124.000 94.676,124.287 94.400,124.637 94.400 C 124.988 94.400,125.369 94.040,125.484 93.600 C 125.600 93.157,126.030 92.800,126.447 92.800 C 126.861 92.800,127.200 92.551,127.200 92.247 C 127.200 91.942,127.560 91.599,128.000 91.484 C 128.440 91.369,128.800 91.009,128.800 90.684 C 128.800 90.359,129.160 89.999,129.600 89.884 C 130.040 89.769,130.400 89.388,130.400 89.037 C 130.400 88.667,130.735 88.400,131.200 88.400 C 131.733 88.400,132.000 88.133,132.000 87.600 C 132.000 86.981,132.267 86.800,133.177 86.800 C 133.856 86.800,134.576 86.493,134.877 86.074 C 135.165 85.674,135.715 85.230,136.100 85.086 C 136.485 84.943,136.800 84.549,136.800 84.213 C 136.800 83.867,137.148 83.600,137.600 83.600 C 138.040 83.600,138.760 83.240,139.200 82.800 C 139.640 82.360,140.287 82.000,140.637 82.000 C 140.988 82.000,141.369 81.640,141.484 81.200 C 141.634 80.626,142.030 80.400,142.884 80.400 C 143.738 80.400,144.134 80.174,144.284 79.600 C 144.399 79.160,144.793 78.800,145.158 78.800 C 145.524 78.800,146.083 78.440,146.400 78.000 C 146.739 77.530,147.435 77.200,148.088 77.200 C 148.933 77.200,149.200 77.008,149.200 76.400 C 149.200 75.733,149.467 75.600,150.800 75.600 C 151.956 75.600,152.400 75.433,152.400 75.000 C 152.400 74.586,152.815 74.400,153.738 74.400 C 154.568 74.400,155.351 74.096,155.800 73.600 C 156.198 73.160,157.021 72.800,157.629 72.800 C 159.105 72.800,160.000 72.426,160.000 71.808 C 160.000 71.491,160.768 71.228,162.054 71.104 C 163.383 70.977,164.238 70.676,164.474 70.254 C 164.692 69.863,165.356 69.598,166.120 69.595 C 168.001 69.587,169.200 69.181,169.200 68.553 C 169.200 68.143,169.829 68.000,171.637 68.000 C 173.738 68.000,174.104 67.890,174.284 67.200 C 174.474 66.475,174.830 66.400,178.084 66.400 C 181.338 66.400,181.694 66.325,181.884 65.600 C 182.085 64.832,182.430 64.800,190.484 64.800 C 198.538 64.800,198.883 64.768,199.084 64.000 C 199.199 63.560,199.589 63.200,199.950 63.200 C 200.312 63.200,200.832 63.560,201.107 64.000 M226.000 358.000 C 226.000 358.533,225.733 358.800,225.200 358.800 C 224.533 358.800,224.400 359.067,224.400 360.400 C 224.400 361.733,224.267 362.000,223.600 362.000 C 223.156 362.000,222.800 362.267,222.800 362.600 C 222.800 362.930,222.513 363.200,222.163 363.200 C 221.812 363.200,221.431 363.560,221.316 364.000 C 221.201 364.440,220.841 364.800,220.516 364.800 C 220.191 364.800,219.831 365.160,219.716 365.600 C 219.600 366.043,219.170 366.400,218.753 366.400 C 218.267 366.400,218.000 366.683,218.000 367.200 C 218.000 367.820,217.733 368.000,216.814 368.000 C 216.038 368.000,215.480 368.276,215.200 368.800 C 214.965 369.240,214.416 369.600,213.982 369.600 C 213.548 369.600,212.884 369.960,212.507 370.400 C 212.047 370.938,211.327 371.200,210.311 371.200 C 209.067 371.200,208.800 371.341,208.800 372.000 C 208.800 372.744,208.533 372.800,204.963 372.800 C 201.462 372.800,201.107 372.870,200.916 373.600 C 200.801 374.040,200.389 374.400,200.000 374.400 C 199.611 374.400,199.199 374.040,199.084 373.600 C 198.894 372.875,198.538 372.800,195.264 372.800 C 192.005 372.800,191.629 372.722,191.400 372.000 C 191.211 371.405,190.795 371.200,189.773 371.200 C 188.933 371.200,188.089 370.889,187.600 370.400 C 187.160 369.960,186.483 369.600,186.096 369.600 C 185.709 369.600,185.168 369.240,184.893 368.800 C 184.574 368.290,183.960 368.000,183.197 368.000 C 182.267 368.000,182.000 367.822,182.000 367.200 C 182.000 366.683,181.733 366.400,181.247 366.400 C 180.830 366.400,180.400 366.043,180.284 365.600 C 180.169 365.160,179.788 364.800,179.437 364.800 C 179.067 364.800,178.800 364.465,178.800 364.000 C 178.800 363.467,178.533 363.200,178.000 363.200 C 177.556 363.200,177.200 362.933,177.200 362.600 C 177.200 362.267,176.844 362.000,176.400 362.000 C 175.733 362.000,175.600 361.733,175.600 360.400 C 175.600 359.244,175.433 358.800,175.000 358.800 C 174.667 358.800,174.400 358.444,174.400 358.000 C 174.400 357.208,174.667 357.200,200.200 357.200 C 225.733 357.200,226.000 357.208,226.000 358.000 " stroke="none" fill="#040404" fill-rule="evenodd"></path><path id="path1" d="" stroke="none" fill="#080404" fill-rule="evenodd"></path><path id="path2" d="" stroke="none" fill="#080404" fill-rule="evenodd"></path><path id="path3" d="" stroke="none" fill="#080404" fill-rule="evenodd"></path><path id="path4" d="" stroke="none" fill="#080404" fill-rule="evenodd"></path></g></svg>