<?xml version="1.0" standalone="no"?>
<!DOCTYPE svg PUBLIC "-//W3C//DTD SVG 20010904//EN"
 "http://www.w3.org/TR/2001/REC-SVG-20010904/DTD/svg10.dtd">
<svg version="1.0" xmlns="http://www.w3.org/2000/svg"
 width="142.000000pt" height="40.000000pt" viewBox="0 0 142.000000 40.000000"
 preserveAspectRatio="xMidYMid meet">

<g transform="translate(0.000000,40.000000) scale(0.100000,-0.100000)"
fill="#000000" stroke="none">
<path d="M1295 320 c-11 -5 -14 -9 -7 -9 17 -1 17 -197 0 -204 -7 -3 12 -5 42
-5 30 0 49 2 43 5 -9 3 -13 36 -13 114 0 107 0 109 -22 108 -13 0 -32 -4 -43
-9z"/>
<path d="M43 303 c15 -4 17 -17 17 -98 0 -81 -2 -94 -17 -98 -10 -3 11 -5 47
-5 36 0 57 2 48 5 -13 3 -18 15 -18 43 0 36 2 38 38 45 45 8 72 31 72 61 0 43
-24 54 -118 53 -48 -1 -79 -3 -69 -6z m122 -48 c0 -34 -3 -40 -22 -43 -21 -3
-23 1 -23 43 0 42 2 46 23 43 19 -3 22 -9 22 -43z"/>
<path d="M630 275 c0 -16 -6 -25 -15 -25 -8 0 -15 -4 -15 -10 0 -5 7 -10 15
-10 12 0 15 -13 15 -60 0 -66 17 -86 65 -74 30 7 33 24 5 24 -18 0 -20 7 -20
55 0 48 2 55 20 55 11 0 20 5 20 10 0 6 -9 10 -20 10 -15 0 -20 7 -20 25 0 20
-5 25 -25 25 -20 0 -25 -5 -25 -25z"/>
<path d="M459 242 c-41 -21 -56 -60 -37 -99 44 -93 190 -38 156 59 -11 32 -17
36 -58 48 -20 6 -38 3 -61 -8z m69 -63 c4 -68 -15 -94 -48 -64 -38 34 -20 129
23 123 19 -3 22 -10 25 -59z"/>
<path d="M778 242 c-92 -47 -31 -174 69 -141 37 12 53 34 53 76 0 61 -62 94
-122 65z m70 -60 c3 -50 -8 -82 -29 -82 -19 0 -39 35 -39 70 0 57 8 72 39 68
24 -3 26 -7 29 -56z"/>
<path d="M990 248 c-60 -22 -79 -82 -42 -128 30 -36 122 -27 122 13 0 7 -4 7
-12 -1 -15 -15 -51 -15 -66 0 -13 13 -16 66 -6 92 9 23 43 21 37 -3 -5 -21 25
-37 41 -21 26 26 -31 64 -74 48z"/>
<path d="M1138 242 c-92 -47 -31 -174 67 -142 39 13 55 35 55 77 0 62 -62 94
-122 65z m67 -66 c0 -46 -4 -61 -18 -70 -25 -15 -47 16 -47 65 0 56 9 71 39
67 25 -3 26 -6 26 -62z"/>
<path d="M253 239 c13 -8 17 -23 17 -64 0 -41 -4 -56 -17 -64 -14 -8 -3 -10
42 -10 33 1 52 3 42 6 -15 4 -18 14 -17 61 1 32 1 63 1 70 -1 7 -16 12 -43 12
-34 -1 -39 -3 -25 -11z"/>
<path d="M335 241 c-3 -6 -1 -11 4 -11 6 0 11 -7 11 -16 0 -10 7 -14 23 -12
33 5 30 42 -5 46 -14 2 -29 -2 -33 -7z"/>
</g>
</svg>
