<svg id="svg" xmlns="http://www.w3.org/2000/svg" xmlns:xlink="http://www.w3.org/1999/xlink" width="400" height="400" viewBox="0, 0, 400,400"><g id="svgg"><path id="path0" d="M0.000 188.800 C 0.000 189.066,66.933 189.200,200.000 189.200 C 333.067 189.200,400.000 189.066,400.000 188.800 C 400.000 188.534,333.067 188.400,200.000 188.400 C 66.933 188.400,0.000 188.534,0.000 188.800 M0.000 200.200 L 0.000 209.600 200.000 209.600 L 400.000 209.600 400.000 200.200 L 400.000 190.800 200.000 190.800 L 0.000 190.800 0.000 200.200 M0.000 211.200 C 0.000 211.466,66.933 211.600,200.000 211.600 C 333.067 211.600,400.000 211.466,400.000 211.200 C 400.000 210.934,333.067 210.800,200.000 210.800 C 66.933 210.800,0.000 210.934,0.000 211.200 " stroke="none" fill="#141414" fill-rule="evenodd"></path><path id="path1" d="M0.000 93.400 L 0.000 186.800 200.000 186.800 L 400.000 186.800 400.000 93.400 L 400.000 0.000 200.000 0.000 L 0.000 0.000 0.000 93.400 M0.000 306.800 L 0.000 400.000 200.000 400.000 L 400.000 400.000 400.000 306.800 L 400.000 213.600 200.000 213.600 L 0.000 213.600 0.000 306.800 " stroke="none" fill="#fcfcfc" fill-rule="evenodd"></path><path id="path2" d="M0.000 188.000 C 0.000 188.266,66.933 188.400,200.000 188.400 C 333.067 188.400,400.000 188.266,400.000 188.000 C 400.000 187.734,333.067 187.600,200.000 187.600 C 66.933 187.600,0.000 187.734,0.000 188.000 M0.000 212.200 C 0.000 212.733,22.489 212.800,200.000 212.800 C 377.511 212.800,400.000 212.733,400.000 212.200 C 400.000 211.667,377.511 211.600,200.000 211.600 C 22.489 211.600,0.000 211.667,0.000 212.200 " stroke="none" fill="#dcdcdc" fill-rule="evenodd"></path><path id="path3" d="M0.000 190.000 C 0.000 190.799,0.267 190.800,200.000 190.800 C 399.733 190.800,400.000 190.799,400.000 190.000 C 400.000 189.201,399.733 189.200,200.000 189.200 C 0.267 189.200,0.000 189.201,0.000 190.000 M0.000 210.200 C 0.000 210.733,22.489 210.800,200.000 210.800 C 377.511 210.800,400.000 210.733,400.000 210.200 C 400.000 209.667,377.511 209.600,200.000 209.600 C 22.489 209.600,0.000 209.667,0.000 210.200 " stroke="none" fill="#040404" fill-rule="evenodd"></path><path id="path4" d="M0.000 187.200 C 0.000 187.466,66.933 187.600,200.000 187.600 C 333.067 187.600,400.000 187.466,400.000 187.200 C 400.000 186.934,333.067 186.800,200.000 186.800 C 66.933 186.800,0.000 186.934,0.000 187.200 M0.000 213.200 C 0.000 213.466,66.933 213.600,200.000 213.600 C 333.067 213.600,400.000 213.466,400.000 213.200 C 400.000 212.934,333.067 212.800,200.000 212.800 C 66.933 212.800,0.000 212.934,0.000 213.200 " stroke="none" fill="#e4e4e4" fill-rule="evenodd"></path></g></svg>