<?xml version="1.0" standalone="no"?>
<!DOCTYPE svg PUBLIC "-//W3C//DTD SVG 20010904//EN"
 "http://www.w3.org/TR/2001/REC-SVG-20010904/DTD/svg10.dtd">
<svg version="1.0" xmlns="http://www.w3.org/2000/svg"
 width="60.000000pt" height="60.000000pt" viewBox="0 0 60.000000 60.000000"
 preserveAspectRatio="xMidYMid meet">

<g transform="translate(0.000000,60.000000) scale(0.100000,-0.100000)"
fill="#000000" stroke="none">
<path d="M121 587 c-21 -7 -35 -20 -37 -31 -4 -27 19 -79 46 -104 l22 -21 -21
-27 c-11 -15 -21 -37 -21 -49 0 -12 -9 -30 -19 -39 -31 -28 -35 -68 -12 -120
12 -25 21 -51 21 -58 0 -7 8 -23 18 -34 24 -30 154 -104 182 -104 28 0 158 74
182 104 10 11 18 27 18 34 0 7 9 33 21 58 23 52 19 92 -12 120 -10 9 -19 27
-19 39 0 12 -10 34 -21 49 l-21 27 22 21 c27 25 50 77 46 104 -3 21 -52 42
-99 43 -37 1 -92 -23 -106 -46 -11 -17 -11 -17 -22 0 -14 23 -69 47 -106 46
-15 0 -43 -5 -62 -12z m112 -18 c45 -12 68 -49 47 -74 -11 -13 -15 -12 -40 5
-40 29 -47 25 -11 -6 34 -28 32 -40 -5 -54 -34 -13 -70 3 -94 42 -47 78 -1
116 103 87z m235 0 c16 -5 29 -16 28 -22 -14 -80 -68 -127 -121 -107 -32 12
-32 35 0 56 14 9 23 19 21 21 -3 3 -18 -4 -34 -16 -25 -17 -32 -19 -41 -7 -9
10 -9 20 0 40 19 41 85 57 147 35z m-127 -149 c23 -13 25 -46 3 -54 -41 -16
-104 2 -104 29 0 30 62 45 101 25z m-118 -14 c-12 -20 -69 -66 -82 -66 -19 0
-12 30 14 55 26 27 82 36 68 11z m222 -11 c26 -26 33 -55 13 -55 -14 0 -78 59
-78 72 0 17 42 7 65 -17z m-32 -55 c52 -41 38 -120 -21 -120 -62 0 -98 85 -52
122 28 23 41 23 73 -2z m-139 -12 c21 -30 20 -50 -5 -82 -14 -18 -30 -26 -53
-26 -40 0 -56 15 -56 54 0 64 81 102 114 54z m241 -58 c7 -21 -10 -70 -24 -70
-14 0 -33 77 -26 101 6 19 8 20 26 3 10 -9 21 -24 24 -34z m-379 26 c7 -19
-14 -96 -27 -96 -14 0 -30 47 -22 67 14 41 39 55 49 29z m197 -77 c28 -15 37
-28 37 -56 0 -25 -43 -63 -72 -63 -23 0 -68 43 -68 65 0 21 44 65 65 65 9 0
26 -5 38 -11z m145 -56 c4 -40 -34 -83 -73 -83 -21 0 -25 5 -25 29 0 39 45 93
74 89 16 -2 22 -11 24 -35z m-282 2 c32 -32 30 -78 -3 -83 -32 -5 -73 39 -73
78 0 26 4 30 25 30 14 0 37 -11 51 -25z m164 -95 c13 -9 12 -13 -9 -30 -26
-22 -62 -26 -92 -10 -22 12 -25 36 -6 43 22 9 92 7 107 -3z"/>
</g>
</svg>
