<svg id="svg" xmlns="http://www.w3.org/2000/svg" xmlns:xlink="http://www.w3.org/1999/xlink" width="400" height="400" viewBox="0, 0, 400,400"><g id="svgg"><path id="path0" d="M229.680 35.680 C 229.416 35.944,229.200 36.394,229.200 36.680 C 229.200 37.060,228.395 37.200,226.200 37.200 C 223.285 37.200,223.200 37.228,223.200 38.178 C 223.200 39.061,223.015 39.168,221.300 39.278 C 219.679 39.382,219.381 39.532,219.272 40.300 C 219.180 40.951,218.876 41.200,218.172 41.200 C 217.402 41.200,217.200 41.408,217.200 42.200 C 217.200 43.000,217.000 43.200,216.200 43.200 C 215.428 43.200,215.200 43.406,215.200 44.105 C 215.200 44.660,214.852 45.163,214.300 45.405 C 213.608 45.709,213.372 46.188,213.278 47.475 C 213.178 48.849,212.999 49.173,212.278 49.275 C 211.479 49.389,211.389 49.661,211.282 52.300 C 211.218 53.895,211.006 55.200,210.811 55.200 C 209.203 55.200,209.200 55.252,209.200 82.819 L 209.200 109.181 202.300 109.291 C 195.487 109.399,195.398 109.411,195.272 110.300 C 195.145 111.193,195.090 111.200,188.398 111.200 C 181.546 111.200,179.600 111.505,179.600 112.578 C 179.600 113.069,178.730 113.195,174.700 113.288 C 170.077 113.394,169.778 113.450,169.411 114.287 C 169.054 115.100,168.707 115.183,165.211 115.287 C 161.623 115.393,161.393 115.452,161.274 116.285 C 161.156 117.116,160.921 117.178,157.474 117.285 C 154.123 117.390,153.766 117.478,153.412 118.284 C 153.073 119.058,152.671 119.183,150.212 119.284 C 147.658 119.389,147.388 119.481,147.274 120.283 C 147.160 121.087,146.892 121.176,144.274 121.283 C 141.640 121.390,141.389 121.475,141.272 122.300 C 141.157 123.108,140.921 123.200,138.953 123.200 C 137.130 123.200,136.606 123.368,135.835 124.200 C 135.103 124.990,134.518 125.200,133.054 125.200 C 131.343 125.200,131.200 125.277,131.200 126.200 C 131.200 127.133,131.067 127.200,129.200 127.200 C 127.333 127.200,127.200 127.267,127.200 128.200 C 127.200 129.116,127.052 129.200,125.426 129.200 C 123.220 129.200,121.600 129.788,121.600 130.590 C 121.600 131.022,121.186 131.200,120.181 131.200 C 119.181 131.200,118.488 131.495,117.835 132.200 C 117.325 132.750,116.516 133.200,116.036 133.200 C 115.556 133.200,114.714 133.650,114.164 134.200 C 113.614 134.750,112.722 135.200,112.182 135.200 C 111.401 135.200,111.200 135.405,111.200 136.200 C 111.200 137.133,111.067 137.200,109.200 137.200 C 107.345 137.200,107.200 137.271,107.200 138.178 C 107.200 139.061,107.015 139.168,105.300 139.278 C 103.679 139.382,103.381 139.532,103.272 140.300 C 103.180 140.951,102.876 141.200,102.172 141.200 C 101.402 141.200,101.200 141.408,101.200 142.200 C 101.200 143.133,101.067 143.200,99.200 143.200 C 97.333 143.200,97.200 143.267,97.200 144.200 C 97.200 145.000,97.000 145.200,96.200 145.200 C 95.406 145.200,95.200 145.401,95.200 146.178 C 95.200 147.061,95.015 147.168,93.300 147.278 C 91.679 147.382,91.381 147.532,91.272 148.300 C 91.180 148.951,90.876 149.200,90.172 149.200 C 89.402 149.200,89.200 149.408,89.200 150.200 C 89.200 151.005,89.001 151.200,88.182 151.200 C 87.622 151.200,86.727 151.637,86.193 152.171 C 85.659 152.705,84.812 153.200,84.311 153.271 C 83.722 153.354,83.355 153.718,83.272 154.300 C 83.180 154.951,82.876 155.200,82.172 155.200 C 81.402 155.200,81.200 155.408,81.200 156.200 C 81.200 157.000,81.000 157.200,80.200 157.200 C 79.400 157.200,79.200 157.400,79.200 158.200 C 79.200 159.000,79.000 159.200,78.200 159.200 C 77.400 159.200,77.200 159.400,77.200 160.200 C 77.200 161.005,77.001 161.200,76.182 161.200 C 75.622 161.200,74.728 161.636,74.195 162.169 C 73.662 162.702,72.869 163.251,72.433 163.389 C 71.997 163.528,71.533 163.980,71.402 164.395 C 71.270 164.810,70.766 165.206,70.281 165.275 C 69.730 165.353,69.353 165.728,69.275 166.275 C 69.198 166.821,68.821 167.198,68.275 167.275 C 67.730 167.353,67.353 167.730,67.275 168.275 C 67.198 168.821,66.821 169.198,66.275 169.275 C 65.730 169.353,65.353 169.730,65.275 170.275 C 65.198 170.821,64.821 171.198,64.275 171.275 C 63.736 171.352,63.353 171.730,63.278 172.259 C 63.210 172.732,62.807 173.209,62.382 173.321 C 61.957 173.432,61.432 173.990,61.215 174.561 C 60.998 175.133,60.626 175.600,60.389 175.600 C 60.153 175.600,59.696 176.230,59.374 177.000 C 59.053 177.770,58.432 178.623,57.995 178.896 C 57.558 179.169,57.200 179.799,57.200 180.296 C 57.200 180.994,56.972 181.200,56.200 181.200 C 55.400 181.200,55.200 181.400,55.200 182.200 C 55.200 183.000,55.000 183.200,54.200 183.200 C 53.400 183.200,53.200 183.400,53.200 184.200 C 53.200 185.000,53.000 185.200,52.200 185.200 C 51.428 185.200,51.200 185.406,51.200 186.105 C 51.200 186.660,50.852 187.163,50.300 187.405 C 49.605 187.710,49.372 188.187,49.277 189.500 C 49.168 191.002,49.040 191.200,48.177 191.200 C 47.402 191.200,47.200 191.406,47.200 192.200 C 47.200 193.000,47.000 193.200,46.200 193.200 C 45.428 193.200,45.200 193.406,45.200 194.105 C 45.200 194.660,44.852 195.163,44.300 195.405 C 43.605 195.710,43.372 196.187,43.277 197.500 C 43.168 199.002,43.040 199.200,42.177 199.200 C 41.429 199.200,41.200 199.412,41.200 200.105 C 41.200 200.660,40.852 201.163,40.300 201.405 C 39.605 201.710,39.372 202.187,39.277 203.500 C 39.168 205.002,39.040 205.200,38.177 205.200 C 37.367 205.200,37.200 205.397,37.200 206.353 C 37.200 207.165,36.966 207.568,36.411 207.713 C 35.853 207.859,35.547 208.393,35.364 209.538 C 35.164 210.783,34.908 211.185,34.252 211.278 C 33.540 211.380,33.380 211.713,33.278 213.300 C 33.168 215.015,33.061 215.200,32.178 215.200 C 31.271 215.200,31.200 215.345,31.200 217.200 C 31.200 219.067,31.133 219.200,30.200 219.200 C 29.267 219.200,29.200 219.333,29.200 221.200 C 29.200 223.067,29.133 223.200,28.200 223.200 C 27.267 223.200,27.200 223.333,27.200 225.200 C 27.200 227.067,27.133 227.200,26.200 227.200 C 25.267 227.200,25.200 227.333,25.200 229.200 C 25.200 231.067,25.133 231.200,24.200 231.200 C 23.267 231.200,23.200 231.333,23.200 233.200 C 23.200 235.067,23.133 235.200,22.200 235.200 C 21.277 235.200,21.200 235.343,21.200 237.054 C 21.200 238.518,20.990 239.103,20.200 239.835 C 19.365 240.609,19.200 241.128,19.200 242.981 C 19.200 245.081,19.146 245.200,18.200 245.200 C 17.222 245.200,17.200 245.267,17.200 248.200 C 17.200 251.133,17.178 251.200,16.200 251.200 C 15.222 251.200,15.200 251.267,15.200 254.200 C 15.200 257.133,15.178 257.200,14.200 257.200 C 13.222 257.200,13.200 257.267,13.200 260.200 C 13.200 263.133,13.178 263.200,12.200 263.200 C 11.219 263.200,11.200 263.258,11.200 266.330 C 11.200 269.152,11.101 269.553,10.200 270.400 C 9.265 271.278,9.200 271.595,9.200 275.270 C 9.200 279.195,9.199 279.200,8.200 279.200 L 7.200 279.200 7.200 284.172 C 7.200 289.024,7.178 289.147,6.300 289.272 L 5.400 289.400 5.296 307.314 L 5.192 325.228 6.173 326.209 C 6.842 326.878,7.193 327.732,7.277 328.895 C 7.379 330.313,7.551 330.621,8.300 330.728 C 8.951 330.820,9.200 331.124,9.200 331.828 C 9.200 332.598,9.408 332.800,10.200 332.800 C 11.000 332.800,11.200 333.000,11.200 333.800 C 11.200 334.572,11.406 334.800,12.105 334.800 C 12.660 334.800,13.163 335.148,13.405 335.700 C 13.797 336.592,13.880 336.601,23.291 336.707 L 32.781 336.814 33.029 335.828 C 33.242 334.980,33.539 334.824,35.138 334.720 C 36.720 334.618,37.019 334.465,37.128 333.700 C 37.220 333.049,37.524 332.800,38.228 332.800 C 38.998 332.800,39.200 332.592,39.200 331.800 C 39.200 331.000,39.400 330.800,40.200 330.800 C 40.992 330.800,41.200 330.598,41.200 329.828 C 41.200 329.124,41.449 328.820,42.100 328.728 C 42.678 328.646,43.046 328.278,43.128 327.700 C 43.210 327.122,43.532 326.800,44.028 326.800 C 44.469 326.800,44.800 326.526,44.800 326.160 C 44.800 325.088,46.056 322.800,46.646 322.800 C 46.970 322.800,47.200 322.386,47.200 321.800 C 47.200 321.000,47.400 320.800,48.200 320.800 C 49.000 320.800,49.200 320.600,49.200 319.800 C 49.200 319.067,49.413 318.800,50.000 318.800 C 50.543 318.800,50.800 318.533,50.800 317.969 C 50.800 317.512,51.340 316.598,52.000 315.938 C 52.673 315.265,53.200 314.313,53.200 313.769 C 53.200 313.002,53.408 312.800,54.200 312.800 C 55.000 312.800,55.200 312.600,55.200 311.800 C 55.200 311.000,55.400 310.800,56.200 310.800 C 56.992 310.800,57.200 310.598,57.200 309.828 C 57.200 309.124,57.449 308.820,58.100 308.728 C 58.670 308.647,59.046 308.279,59.125 307.725 C 59.202 307.179,59.579 306.802,60.125 306.725 C 60.679 306.646,61.047 306.270,61.128 305.700 C 61.207 305.143,61.533 304.800,61.984 304.800 C 62.428 304.800,62.811 304.409,62.964 303.800 C 63.122 303.170,63.498 302.800,63.980 302.800 C 64.468 302.800,64.791 302.475,64.872 301.900 C 64.953 301.330,65.321 300.954,65.875 300.875 C 66.421 300.798,66.798 300.421,66.875 299.875 C 66.953 299.330,67.330 298.953,67.875 298.875 C 68.421 298.798,68.798 298.421,68.875 297.875 C 68.953 297.330,69.330 296.953,69.875 296.875 C 70.421 296.798,70.798 296.421,70.875 295.875 C 70.952 295.335,71.330 294.953,71.862 294.877 C 72.387 294.802,72.821 294.372,72.970 293.777 C 73.121 293.176,73.504 292.800,73.964 292.800 C 74.424 292.800,74.808 292.424,74.957 291.828 C 75.110 291.221,75.540 290.807,76.101 290.728 C 76.678 290.646,77.046 290.278,77.128 289.700 C 77.220 289.049,77.524 288.800,78.228 288.800 C 78.998 288.800,79.200 288.592,79.200 287.800 C 79.200 287.000,79.400 286.800,80.200 286.800 C 81.000 286.800,81.200 286.600,81.200 285.800 C 81.200 285.019,81.405 284.800,82.132 284.800 C 82.712 284.800,83.263 284.430,83.589 283.821 C 83.940 283.165,84.522 282.802,85.356 282.721 C 86.284 282.631,86.632 282.378,86.725 281.724 C 86.812 281.111,87.172 280.811,87.925 280.724 C 88.687 280.636,89.037 280.338,89.128 279.700 C 89.221 279.043,89.523 278.800,90.247 278.800 C 90.792 278.800,91.655 278.350,92.165 277.800 C 92.675 277.250,93.473 276.800,93.938 276.800 C 94.508 276.800,94.867 276.473,95.036 275.800 C 95.216 275.082,95.557 274.800,96.243 274.800 C 96.991 274.800,97.200 274.587,97.200 273.822 C 97.200 272.939,97.385 272.832,99.100 272.722 C 100.721 272.618,101.019 272.468,101.128 271.700 C 101.238 270.924,101.496 270.800,103.000 270.800 C 104.495 270.800,104.763 270.674,104.872 269.915 C 104.966 269.268,105.369 268.954,106.371 268.751 C 107.125 268.597,108.025 268.106,108.371 267.659 C 108.776 267.135,109.570 266.802,110.600 266.723 C 111.797 266.631,112.297 266.378,112.587 265.718 C 112.890 265.027,113.366 264.811,114.787 264.718 C 116.319 264.618,116.620 264.461,116.728 263.700 C 116.841 262.906,117.087 262.800,118.820 262.800 C 120.573 262.800,120.811 262.694,121.031 261.817 C 121.258 260.913,121.491 260.825,123.939 260.717 C 126.352 260.611,126.612 260.516,126.728 259.700 C 126.844 258.884,127.073 258.800,129.199 258.800 C 131.435 258.800,132.800 258.189,132.800 257.188 C 132.800 256.993,134.195 256.781,135.900 256.717 C 138.755 256.609,139.010 256.530,139.126 255.713 C 139.247 254.865,139.450 254.821,143.726 254.713 C 147.913 254.607,148.225 254.543,148.590 253.710 C 148.964 252.860,149.228 252.816,154.590 252.710 C 159.973 252.604,160.216 252.564,160.595 251.700 L 160.990 250.800 172.266 250.800 L 183.542 250.800 184.329 249.800 L 185.115 248.800 197.158 248.800 L 209.200 248.800 209.200 275.800 L 209.200 302.800 210.200 302.800 C 211.178 302.800,211.200 302.867,211.200 305.800 C 211.200 308.715,211.228 308.800,212.178 308.800 C 213.061 308.800,213.168 308.985,213.278 310.700 C 213.382 312.321,213.532 312.619,214.300 312.728 C 214.951 312.820,215.200 313.124,215.200 313.828 C 215.200 314.598,215.408 314.800,216.200 314.800 C 217.000 314.800,217.200 315.000,217.200 315.800 C 217.200 316.592,217.402 316.800,218.172 316.800 C 218.876 316.800,219.180 317.049,219.272 317.700 C 219.381 318.468,219.679 318.618,221.300 318.722 C 223.015 318.832,223.200 318.939,223.200 319.822 C 223.200 320.727,223.347 320.800,225.172 320.800 C 226.913 320.800,227.159 320.906,227.272 321.700 L 227.400 322.600 237.000 322.600 C 246.586 322.600,246.600 322.599,246.725 321.720 C 246.833 320.961,247.137 320.824,248.925 320.720 C 250.712 320.617,251.017 320.478,251.125 319.722 C 251.227 319.001,251.551 318.822,252.925 318.722 C 254.298 318.622,254.622 318.442,254.725 317.724 C 254.812 317.111,255.172 316.811,255.925 316.724 C 256.687 316.636,257.037 316.338,257.128 315.700 C 257.220 315.049,257.524 314.800,258.228 314.800 C 258.998 314.800,259.200 314.592,259.200 313.800 C 259.200 313.000,259.400 312.800,260.200 312.800 C 261.000 312.800,261.200 312.600,261.200 311.800 C 261.200 311.000,261.400 310.800,262.200 310.800 C 263.000 310.800,263.200 310.600,263.200 309.800 C 263.200 309.019,263.405 308.800,264.132 308.800 C 264.707 308.800,265.262 308.432,265.578 307.841 C 265.861 307.312,266.595 306.781,267.214 306.657 C 267.850 306.530,268.444 306.090,268.587 305.642 C 268.725 305.207,269.234 304.794,269.719 304.725 C 270.279 304.646,270.647 304.272,270.728 303.700 C 270.820 303.051,271.124 302.800,271.820 302.800 C 272.509 302.800,272.855 302.521,273.030 301.823 C 273.179 301.228,273.613 300.798,274.138 300.723 C 274.670 300.647,275.048 300.265,275.125 299.725 C 275.202 299.179,275.579 298.802,276.125 298.725 C 276.679 298.646,277.047 298.270,277.128 297.700 C 277.220 297.049,277.524 296.800,278.228 296.800 C 278.998 296.800,279.200 296.592,279.200 295.800 C 279.200 295.000,279.400 294.800,280.200 294.800 C 281.000 294.800,281.200 294.600,281.200 293.800 C 281.200 293.000,281.400 292.800,282.200 292.800 C 283.000 292.800,283.200 292.600,283.200 291.800 C 283.200 290.995,283.399 290.800,284.219 290.800 C 284.780 290.800,285.635 290.372,286.120 289.848 C 286.605 289.325,287.362 288.828,287.801 288.744 C 288.262 288.656,288.654 288.213,288.728 287.696 C 288.818 287.062,289.127 286.800,289.784 286.800 C 290.442 286.800,290.787 286.508,290.964 285.800 C 291.125 285.158,291.497 284.800,292.000 284.800 C 292.499 284.800,292.874 284.444,293.030 283.823 C 293.179 283.228,293.613 282.798,294.138 282.723 C 294.679 282.646,295.048 282.265,295.128 281.700 C 295.220 281.049,295.524 280.800,296.228 280.800 C 296.998 280.800,297.200 280.592,297.200 279.800 C 297.200 279.000,297.400 278.800,298.200 278.800 C 299.000 278.800,299.200 278.600,299.200 277.800 C 299.200 277.000,299.400 276.800,300.200 276.800 C 301.000 276.800,301.200 276.600,301.200 275.800 C 301.200 275.019,301.405 274.800,302.132 274.800 C 302.712 274.800,303.263 274.430,303.589 273.821 C 303.898 273.243,304.540 272.793,305.156 272.721 C 305.773 272.650,306.359 272.239,306.588 271.716 C 306.801 271.230,307.341 270.780,307.788 270.716 C 308.279 270.646,308.651 270.244,308.728 269.700 C 308.820 269.051,309.124 268.800,309.820 268.800 C 310.509 268.800,310.855 268.521,311.030 267.823 C 311.179 267.228,311.613 266.798,312.138 266.723 C 312.670 266.647,313.048 266.265,313.125 265.725 C 313.202 265.179,313.579 264.802,314.125 264.725 C 314.679 264.646,315.047 264.270,315.128 263.700 C 315.220 263.049,315.524 262.800,316.228 262.800 C 316.998 262.800,317.200 262.592,317.200 261.800 C 317.200 261.000,317.400 260.800,318.200 260.800 C 319.000 260.800,319.200 260.600,319.200 259.800 C 319.200 259.000,319.400 258.800,320.200 258.800 C 321.000 258.800,321.200 258.600,321.200 257.800 C 321.200 256.995,321.399 256.800,322.219 256.800 C 322.780 256.800,323.635 256.372,324.120 255.848 C 324.605 255.325,325.362 254.828,325.801 254.744 C 326.262 254.656,326.654 254.213,326.728 253.696 C 326.818 253.062,327.127 252.800,327.784 252.800 C 328.442 252.800,328.787 252.508,328.964 251.800 C 329.125 251.158,329.497 250.800,330.000 250.800 C 330.499 250.800,330.874 250.444,331.030 249.823 C 331.179 249.228,331.613 248.798,332.138 248.723 C 332.679 248.646,333.048 248.265,333.128 247.700 C 333.220 247.049,333.524 246.800,334.228 246.800 C 334.998 246.800,335.200 246.592,335.200 245.800 C 335.200 245.000,335.400 244.800,336.200 244.800 C 337.000 244.800,337.200 244.600,337.200 243.800 C 337.200 243.000,337.400 242.800,338.200 242.800 C 339.000 242.800,339.200 242.600,339.200 241.800 C 339.200 241.008,339.402 240.800,340.171 240.800 C 340.718 240.800,341.470 240.383,341.894 239.844 C 342.307 239.319,342.995 238.822,343.423 238.742 C 343.850 238.661,344.378 238.191,344.595 237.698 C 344.831 237.160,345.342 236.800,345.867 236.800 C 346.472 236.800,346.784 236.521,346.872 235.900 C 346.954 235.322,347.322 234.954,347.899 234.872 C 348.453 234.794,348.890 234.380,349.037 233.795 C 349.180 233.226,349.621 232.797,350.138 232.723 C 350.670 232.647,351.048 232.265,351.125 231.725 C 351.202 231.179,351.579 230.802,352.125 230.725 C 352.679 230.646,353.047 230.270,353.128 229.700 C 353.220 229.049,353.524 228.800,354.228 228.800 C 354.998 228.800,355.200 228.592,355.200 227.800 C 355.200 227.067,355.413 226.800,356.000 226.800 C 356.587 226.800,356.800 226.533,356.800 225.800 C 356.800 224.956,356.987 224.800,358.000 224.800 C 359.013 224.800,359.200 224.644,359.200 223.800 C 359.200 222.961,359.389 222.800,360.371 222.800 C 361.129 222.800,361.807 222.463,362.294 221.844 C 362.707 221.319,363.395 220.822,363.823 220.740 C 364.263 220.656,364.655 220.203,364.728 219.696 C 364.818 219.062,365.127 218.800,365.784 218.800 C 366.442 218.800,366.787 218.508,366.964 217.800 C 367.125 217.158,367.497 216.800,368.000 216.800 C 368.499 216.800,368.874 216.444,369.030 215.823 C 369.179 215.228,369.613 214.798,370.138 214.723 C 370.679 214.646,371.048 214.265,371.128 213.700 C 371.220 213.049,371.524 212.800,372.228 212.800 C 372.998 212.800,373.200 212.592,373.200 211.800 C 373.200 211.000,373.400 210.800,374.200 210.800 C 375.000 210.800,375.200 210.600,375.200 209.800 C 375.200 209.000,375.400 208.800,376.200 208.800 C 377.000 208.800,377.200 208.600,377.200 207.800 C 377.200 207.008,377.402 206.800,378.171 206.800 C 378.718 206.800,379.470 206.383,379.894 205.844 C 380.307 205.319,380.995 204.822,381.423 204.742 C 381.850 204.661,382.378 204.191,382.595 203.698 C 382.831 203.160,383.342 202.800,383.867 202.800 C 384.472 202.800,384.784 202.521,384.872 201.900 C 384.954 201.322,385.322 200.954,385.899 200.872 C 386.460 200.793,386.890 200.379,387.043 199.772 C 387.189 199.190,387.578 198.800,388.012 198.800 C 388.480 198.800,388.823 198.404,388.982 197.681 C 389.117 197.065,389.672 196.083,390.214 195.498 C 390.756 194.913,391.200 194.088,391.200 193.664 C 391.200 193.240,391.533 192.806,391.939 192.700 C 392.742 192.490,393.200 190.909,393.200 188.350 C 393.200 187.099,393.345 186.800,393.953 186.800 C 395.050 186.800,395.189 185.807,395.189 178.000 C 395.189 170.284,395.043 169.200,394.001 169.200 C 393.423 169.200,393.264 168.756,393.118 166.741 C 392.980 164.832,392.745 164.123,392.070 163.576 C 391.592 163.189,391.200 162.496,391.200 162.036 C 391.200 161.422,390.947 161.200,390.245 161.200 C 389.421 161.200,389.254 160.955,389.021 159.402 C 388.803 157.946,388.568 157.557,387.790 157.362 C 387.261 157.229,386.721 156.781,386.589 156.365 C 386.457 155.948,385.778 155.464,385.075 155.285 C 384.358 155.103,383.627 154.576,383.405 154.081 C 383.167 153.549,382.652 153.200,382.105 153.200 C 381.406 153.200,381.200 152.972,381.200 152.200 C 381.200 151.400,381.000 151.200,380.200 151.200 C 379.400 151.200,379.200 151.000,379.200 150.200 C 379.200 149.408,378.998 149.200,378.228 149.200 C 377.524 149.200,377.220 148.951,377.128 148.300 C 377.047 147.730,376.679 147.354,376.125 147.275 C 375.579 147.198,375.202 146.821,375.125 146.275 C 375.048 145.735,374.670 145.353,374.138 145.277 C 373.613 145.202,373.179 144.772,373.030 144.177 C 372.872 143.547,372.500 143.200,371.982 143.200 C 371.495 143.200,371.031 142.808,370.800 142.200 C 370.590 141.648,370.099 141.200,369.705 141.200 C 369.311 141.200,368.812 140.796,368.595 140.302 C 368.378 139.809,367.840 139.341,367.400 139.264 C 366.960 139.187,366.219 138.691,365.753 138.162 C 365.288 137.633,364.523 137.200,364.053 137.200 C 363.410 137.200,363.200 136.954,363.200 136.200 C 363.200 135.400,363.000 135.200,362.200 135.200 C 361.400 135.200,361.200 135.000,361.200 134.200 C 361.200 133.408,360.998 133.200,360.228 133.200 C 359.524 133.200,359.220 132.951,359.128 132.300 C 359.036 131.656,358.688 131.364,357.900 131.273 C 357.036 131.174,356.800 130.938,356.800 130.173 C 356.800 129.485,356.578 129.200,356.043 129.200 C 355.570 129.200,355.193 128.826,355.036 128.200 C 354.872 127.549,354.505 127.200,353.982 127.200 C 353.495 127.200,353.031 126.808,352.800 126.200 C 352.567 125.588,352.106 125.200,351.610 125.200 C 351.069 125.200,350.800 124.937,350.800 124.408 C 350.800 123.904,350.449 123.527,349.838 123.374 C 349.309 123.241,348.467 122.698,347.968 122.166 C 347.469 121.635,346.642 121.200,346.130 121.200 C 345.405 121.200,345.200 120.980,345.200 120.200 C 345.200 119.400,345.000 119.200,344.200 119.200 C 343.400 119.200,343.200 119.000,343.200 118.200 C 343.200 117.408,342.998 117.200,342.228 117.200 C 341.524 117.200,341.220 116.951,341.128 116.300 C 341.047 115.730,340.679 115.354,340.125 115.275 C 339.579 115.198,339.202 114.821,339.125 114.275 C 339.048 113.735,338.670 113.353,338.138 113.277 C 337.613 113.202,337.179 112.772,337.030 112.177 C 336.874 111.556,336.499 111.200,336.000 111.200 C 335.497 111.200,335.125 110.842,334.964 110.200 C 334.787 109.492,334.442 109.200,333.784 109.200 C 333.127 109.200,332.818 108.938,332.728 108.304 C 332.654 107.785,332.264 107.346,331.800 107.259 C 331.360 107.178,330.847 106.844,330.659 106.518 C 330.472 106.192,329.687 105.661,328.916 105.339 C 328.144 105.017,327.421 104.403,327.310 103.976 C 327.180 103.482,326.761 103.200,326.153 103.200 C 325.403 103.200,325.200 102.987,325.200 102.200 C 325.200 101.408,324.998 101.200,324.228 101.200 C 323.524 101.200,323.220 100.951,323.128 100.300 C 323.047 99.730,322.679 99.354,322.125 99.275 C 321.579 99.198,321.202 98.821,321.125 98.275 C 321.047 97.730,320.670 97.353,320.125 97.275 C 319.579 97.198,319.202 96.821,319.125 96.275 C 319.046 95.722,318.670 95.353,318.101 95.272 C 317.540 95.193,317.110 94.779,316.957 94.172 C 316.805 93.566,316.425 93.200,315.947 93.200 C 315.497 93.200,315.023 92.787,314.800 92.200 C 314.578 91.616,314.103 91.200,313.657 91.200 C 313.237 91.200,312.802 90.850,312.690 90.423 C 312.567 89.953,311.955 89.510,311.143 89.303 C 310.364 89.105,309.634 88.591,309.405 88.081 C 309.167 87.549,308.652 87.200,308.105 87.200 C 307.406 87.200,307.200 86.972,307.200 86.200 C 307.200 85.356,307.013 85.200,306.000 85.200 C 304.987 85.200,304.800 85.044,304.800 84.200 C 304.800 83.479,304.585 83.200,304.028 83.200 C 303.532 83.200,303.210 82.878,303.128 82.300 C 303.047 81.730,302.679 81.354,302.125 81.275 C 301.579 81.198,301.202 80.821,301.125 80.275 C 301.048 79.735,300.670 79.353,300.138 79.277 C 299.613 79.202,299.179 78.772,299.030 78.177 C 298.872 77.547,298.500 77.200,297.982 77.200 C 297.495 77.200,297.031 76.808,296.800 76.200 C 296.590 75.648,296.099 75.200,295.705 75.200 C 295.311 75.200,294.812 74.796,294.595 74.302 C 294.378 73.809,293.840 73.341,293.400 73.264 C 292.960 73.187,292.219 72.691,291.753 72.162 C 291.288 71.633,290.523 71.200,290.053 71.200 C 289.410 71.200,289.200 70.954,289.200 70.200 C 289.200 69.400,289.000 69.200,288.200 69.200 C 287.400 69.200,287.200 69.000,287.200 68.200 C 287.200 67.408,286.998 67.200,286.228 67.200 C 285.524 67.200,285.220 66.951,285.128 66.300 C 285.047 65.730,284.679 65.354,284.125 65.275 C 283.579 65.198,283.202 64.821,283.125 64.275 C 283.048 63.735,282.670 63.353,282.138 63.277 C 281.613 63.202,281.179 62.772,281.030 62.177 C 280.874 61.556,280.499 61.200,280.000 61.200 C 279.497 61.200,279.125 60.842,278.964 60.200 C 278.784 59.482,278.443 59.200,277.757 59.200 C 277.078 59.200,276.800 58.976,276.800 58.427 C 276.800 57.976,276.425 57.536,275.900 57.371 C 275.405 57.216,274.604 56.664,274.119 56.144 C 273.635 55.625,272.780 55.200,272.219 55.200 C 271.399 55.200,271.200 55.005,271.200 54.200 C 271.200 53.400,271.000 53.200,270.200 53.200 C 269.400 53.200,269.200 53.000,269.200 52.200 C 269.200 51.408,268.998 51.200,268.228 51.200 C 267.524 51.200,267.220 50.951,267.128 50.300 C 267.047 49.730,266.679 49.354,266.125 49.275 C 265.579 49.198,265.202 48.821,265.125 48.275 C 265.048 47.735,264.670 47.353,264.138 47.277 C 263.613 47.202,263.179 46.772,263.030 46.177 C 262.874 45.556,262.499 45.200,262.000 45.200 C 261.497 45.200,261.125 44.842,260.964 44.200 C 260.808 43.579,260.430 43.200,259.964 43.200 C 259.503 43.200,259.121 42.824,258.970 42.222 C 258.774 41.441,258.430 41.219,257.262 41.122 C 256.198 41.033,255.693 40.755,255.405 40.100 C 255.146 39.508,254.664 39.200,254.000 39.200 C 253.336 39.200,252.854 38.892,252.595 38.300 C 252.248 37.510,251.860 37.385,249.425 37.280 C 247.107 37.180,246.490 36.999,245.671 36.180 C 244.538 35.047,230.744 34.616,229.680 35.680 M247.200 81.800 C 247.200 82.592,247.402 82.800,248.172 82.800 C 248.876 82.800,249.180 83.049,249.272 83.700 C 249.349 84.244,249.721 84.646,250.212 84.716 C 250.659 84.780,251.199 85.229,251.412 85.714 C 251.625 86.199,252.160 86.663,252.600 86.745 C 253.040 86.828,253.830 87.324,254.355 87.848 C 254.880 88.371,255.735 88.800,256.255 88.800 C 256.996 88.800,257.200 89.015,257.200 89.800 C 257.200 90.600,257.400 90.800,258.200 90.800 C 259.000 90.800,259.200 91.000,259.200 91.800 C 259.200 92.600,259.400 92.800,260.200 92.800 C 261.000 92.800,261.200 93.000,261.200 93.800 C 261.200 94.600,261.400 94.800,262.200 94.800 C 263.000 94.800,263.200 95.000,263.200 95.800 C 263.200 96.600,263.400 96.800,264.200 96.800 C 265.000 96.800,265.200 97.000,265.200 97.800 C 265.200 98.600,265.400 98.800,266.200 98.800 C 267.000 98.800,267.200 99.000,267.200 99.800 C 267.200 100.588,267.403 100.800,268.157 100.800 C 268.843 100.800,269.184 101.082,269.364 101.800 C 269.524 102.436,269.897 102.800,270.389 102.800 C 270.815 102.800,271.614 103.250,272.164 103.800 C 272.714 104.350,273.622 104.800,274.182 104.800 C 275.001 104.800,275.200 104.995,275.200 105.800 C 275.200 106.600,275.400 106.800,276.200 106.800 C 277.000 106.800,277.200 107.000,277.200 107.800 C 277.200 108.600,277.400 108.800,278.200 108.800 C 279.000 108.800,279.200 109.000,279.200 109.800 C 279.200 110.600,279.400 110.800,280.200 110.800 C 281.000 110.800,281.200 111.000,281.200 111.800 C 281.200 112.600,281.400 112.800,282.200 112.800 C 283.000 112.800,283.200 113.000,283.200 113.800 C 283.200 114.600,283.400 114.800,284.200 114.800 C 285.000 114.800,285.200 115.000,285.200 115.800 C 285.200 116.592,285.402 116.800,286.172 116.800 C 286.876 116.800,287.180 117.049,287.272 117.700 C 287.353 118.267,287.721 118.646,288.270 118.724 C 288.748 118.792,289.427 119.287,289.779 119.824 C 290.131 120.361,290.761 120.800,291.180 120.800 C 291.599 120.800,292.296 121.250,292.729 121.800 C 293.161 122.350,293.894 122.800,294.358 122.800 C 294.989 122.800,295.200 123.050,295.200 123.800 C 295.200 124.600,295.400 124.800,296.200 124.800 C 297.000 124.800,297.200 125.000,297.200 125.800 C 297.200 126.600,297.400 126.800,298.200 126.800 C 299.000 126.800,299.200 127.000,299.200 127.800 C 299.200 128.600,299.400 128.800,300.200 128.800 C 301.000 128.800,301.200 129.000,301.200 129.800 C 301.200 130.600,301.400 130.800,302.200 130.800 C 303.000 130.800,303.200 131.000,303.200 131.800 C 303.200 132.592,303.402 132.800,304.172 132.800 C 304.876 132.800,305.180 133.049,305.272 133.700 C 305.351 134.258,305.721 134.646,306.245 134.721 C 306.710 134.787,307.291 135.282,307.537 135.821 C 307.833 136.472,308.311 136.800,308.962 136.800 C 309.531 136.800,310.272 137.220,310.729 137.800 C 311.161 138.350,311.894 138.800,312.358 138.800 C 312.989 138.800,313.200 139.050,313.200 139.800 C 313.200 140.600,313.400 140.800,314.200 140.800 C 315.000 140.800,315.200 141.000,315.200 141.800 C 315.200 142.600,315.400 142.800,316.200 142.800 C 317.000 142.800,317.200 143.000,317.200 143.800 C 317.200 144.600,317.400 144.800,318.200 144.800 C 319.000 144.800,319.200 145.000,319.200 145.800 C 319.200 146.600,319.400 146.800,320.200 146.800 C 321.000 146.800,321.200 147.000,321.200 147.800 C 321.200 148.592,321.402 148.800,322.172 148.800 C 322.876 148.800,323.180 149.049,323.272 149.700 C 323.349 150.244,323.721 150.646,324.212 150.716 C 324.659 150.780,325.199 151.229,325.412 151.714 C 325.625 152.199,326.160 152.663,326.600 152.745 C 327.040 152.828,327.830 153.324,328.355 153.848 C 328.880 154.371,329.735 154.800,330.255 154.800 C 330.996 154.800,331.200 155.015,331.200 155.800 C 331.200 156.600,331.400 156.800,332.200 156.800 C 333.000 156.800,333.200 157.000,333.200 157.800 C 333.200 158.600,333.400 158.800,334.200 158.800 C 335.000 158.800,335.200 159.000,335.200 159.800 C 335.200 160.600,335.400 160.800,336.200 160.800 C 337.000 160.800,337.200 161.000,337.200 161.800 C 337.200 162.600,337.400 162.800,338.200 162.800 C 339.000 162.800,339.200 163.000,339.200 163.800 C 339.200 164.600,339.400 164.800,340.200 164.800 C 341.000 164.800,341.200 165.000,341.200 165.800 C 341.200 166.588,341.403 166.800,342.157 166.800 C 342.843 166.800,343.184 167.082,343.364 167.800 C 343.548 168.531,343.883 168.800,344.608 168.800 C 345.212 168.800,345.600 169.029,345.600 169.386 C 345.600 170.123,346.832 170.800,348.174 170.800 C 349.002 170.800,349.200 170.993,349.200 171.800 C 349.200 172.600,349.400 172.800,350.200 172.800 C 351.000 172.800,351.200 173.000,351.200 173.800 C 351.200 174.600,351.400 174.800,352.200 174.800 C 353.000 174.800,353.200 175.000,353.200 175.800 C 353.200 176.600,353.400 176.800,354.200 176.800 C 355.044 176.800,355.200 176.987,355.200 178.000 C 355.200 179.013,355.044 179.200,354.200 179.200 C 353.400 179.200,353.200 179.400,353.200 180.200 C 353.200 181.000,353.000 181.200,352.200 181.200 C 351.400 181.200,351.200 181.400,351.200 182.200 C 351.200 183.000,351.000 183.200,350.200 183.200 C 349.400 183.200,349.200 183.400,349.200 184.200 C 349.200 185.000,349.000 185.200,348.200 185.200 C 347.400 185.200,347.200 185.400,347.200 186.200 C 347.200 187.000,347.000 187.200,346.200 187.200 C 345.400 187.200,345.200 187.400,345.200 188.200 C 345.200 188.980,344.995 189.200,344.270 189.200 C 343.758 189.200,342.931 189.635,342.432 190.166 C 341.933 190.698,341.103 191.238,340.589 191.367 C 340.074 191.496,339.543 191.950,339.408 192.376 C 339.273 192.801,338.766 193.206,338.281 193.275 C 337.721 193.354,337.353 193.728,337.272 194.300 C 337.180 194.951,336.876 195.200,336.172 195.200 C 335.402 195.200,335.200 195.408,335.200 196.200 C 335.200 197.000,335.000 197.200,334.200 197.200 C 333.400 197.200,333.200 197.400,333.200 198.200 C 333.200 199.000,333.000 199.200,332.200 199.200 C 331.400 199.200,331.200 199.400,331.200 200.200 C 331.200 201.000,331.000 201.200,330.200 201.200 C 329.400 201.200,329.200 201.400,329.200 202.200 C 329.200 203.000,329.000 203.200,328.200 203.200 C 327.400 203.200,327.200 203.400,327.200 204.200 C 327.200 205.000,327.000 205.200,326.200 205.200 C 325.414 205.200,325.200 205.403,325.200 206.149 C 325.200 206.950,324.945 207.138,323.560 207.360 C 322.415 207.543,321.859 207.854,321.719 208.389 C 321.609 208.810,321.132 209.210,320.659 209.278 C 320.187 209.345,319.625 209.798,319.412 210.284 C 319.199 210.770,318.659 211.220,318.212 211.284 C 317.721 211.354,317.349 211.756,317.272 212.300 C 317.180 212.951,316.876 213.200,316.172 213.200 C 315.402 213.200,315.200 213.408,315.200 214.200 C 315.200 215.000,315.000 215.200,314.200 215.200 C 313.400 215.200,313.200 215.400,313.200 216.200 C 313.200 217.000,313.000 217.200,312.200 217.200 C 311.400 217.200,311.200 217.400,311.200 218.200 C 311.200 219.000,311.000 219.200,310.200 219.200 C 309.400 219.200,309.200 219.400,309.200 220.200 C 309.200 221.000,309.000 221.200,308.200 221.200 C 307.400 221.200,307.200 221.400,307.200 222.200 C 307.200 222.980,306.995 223.200,306.270 223.200 C 305.758 223.200,304.931 223.635,304.432 224.166 C 303.933 224.698,303.103 225.238,302.589 225.367 C 302.074 225.496,301.543 225.950,301.408 226.376 C 301.273 226.801,300.766 227.206,300.281 227.275 C 299.721 227.354,299.353 227.728,299.272 228.300 C 299.180 228.951,298.876 229.200,298.172 229.200 C 297.402 229.200,297.200 229.408,297.200 230.200 C 297.200 231.000,297.000 231.200,296.200 231.200 C 295.400 231.200,295.200 231.400,295.200 232.200 C 295.200 233.000,295.000 233.200,294.200 233.200 C 293.400 233.200,293.200 233.400,293.200 234.200 C 293.200 235.000,293.000 235.200,292.200 235.200 C 291.400 235.200,291.200 235.400,291.200 236.200 C 291.200 237.000,291.000 237.200,290.200 237.200 C 289.400 237.200,289.200 237.400,289.200 238.200 C 289.200 238.972,288.994 239.200,288.296 239.200 C 287.799 239.200,287.169 239.558,286.896 239.995 C 286.623 240.432,285.770 241.053,285.000 241.374 C 284.230 241.696,283.600 242.153,283.600 242.389 C 283.600 242.626,283.133 242.998,282.561 243.215 C 281.990 243.432,281.432 243.957,281.321 244.382 C 281.209 244.807,280.732 245.210,280.259 245.278 C 279.721 245.354,279.352 245.737,279.272 246.300 C 279.180 246.951,278.876 247.200,278.172 247.200 C 277.402 247.200,277.200 247.408,277.200 248.200 C 277.200 249.000,277.000 249.200,276.200 249.200 C 275.400 249.200,275.200 249.400,275.200 250.200 C 275.200 251.000,275.000 251.200,274.200 251.200 C 273.400 251.200,273.200 251.400,273.200 252.200 C 273.200 253.000,273.000 253.200,272.200 253.200 C 271.400 253.200,271.200 253.400,271.200 254.200 C 271.200 255.000,271.000 255.200,270.200 255.200 C 269.400 255.200,269.200 255.400,269.200 256.200 C 269.200 256.980,268.995 257.200,268.270 257.200 C 267.758 257.200,266.931 257.635,266.432 258.166 C 265.933 258.698,265.103 259.238,264.589 259.367 C 264.074 259.496,263.543 259.950,263.408 260.376 C 263.273 260.801,262.766 261.206,262.281 261.275 C 261.721 261.354,261.353 261.728,261.272 262.300 C 261.180 262.951,260.876 263.200,260.172 263.200 C 259.402 263.200,259.200 263.408,259.200 264.200 C 259.200 265.000,259.000 265.200,258.200 265.200 C 257.400 265.200,257.200 265.400,257.200 266.200 C 257.200 267.000,257.000 267.200,256.200 267.200 C 255.400 267.200,255.200 267.400,255.200 268.200 C 255.200 269.000,255.000 269.200,254.200 269.200 C 253.400 269.200,253.200 269.400,253.200 270.200 C 253.200 271.000,253.000 271.200,252.200 271.200 C 251.400 271.200,251.200 271.400,251.200 272.200 C 251.200 272.950,250.989 273.200,250.358 273.200 C 249.894 273.200,249.161 273.650,248.729 274.200 C 248.296 274.750,247.685 275.200,247.371 275.200 C 247.057 275.200,246.440 275.560,246.000 276.000 C 245.200 276.800,245.200 276.800,245.200 252.026 C 245.200 227.283,245.092 225.200,243.810 225.200 C 243.382 225.200,243.200 224.791,243.200 223.833 C 243.200 221.948,242.847 221.200,241.957 221.200 C 241.416 221.200,241.200 220.914,241.200 220.200 C 241.200 219.400,241.000 219.200,240.200 219.200 C 239.400 219.200,239.200 219.000,239.200 218.200 C 239.200 217.402,238.999 217.200,238.208 217.200 C 237.483 217.200,237.148 216.931,236.964 216.200 C 236.727 215.256,236.562 215.200,233.984 215.200 C 231.459 215.200,231.246 215.133,231.128 214.300 L 231.000 213.400 207.334 213.297 L 183.669 213.194 182.477 214.197 L 181.285 215.200 169.224 215.200 L 157.164 215.200 156.174 216.189 C 155.223 217.140,154.957 217.183,149.292 217.289 C 143.549 217.397,143.397 217.422,143.274 218.288 C 143.152 219.142,142.964 219.180,138.274 219.288 C 133.587 219.396,133.395 219.434,133.274 220.286 C 133.155 221.121,132.928 221.178,129.274 221.286 C 125.601 221.394,125.393 221.447,125.272 222.300 C 125.153 223.136,124.944 223.200,122.330 223.200 C 119.804 223.200,119.434 223.303,118.729 224.200 C 118.048 225.066,117.624 225.200,115.571 225.200 C 113.320 225.200,113.200 225.250,113.200 226.182 C 113.200 227.125,113.081 227.170,110.300 227.282 C 107.639 227.390,107.389 227.474,107.272 228.300 C 107.159 229.094,106.913 229.200,105.172 229.200 C 103.335 229.200,103.200 229.269,103.200 230.200 C 103.200 231.135,103.068 231.200,101.182 231.200 C 99.575 231.200,98.964 231.399,98.187 232.177 C 97.522 232.842,96.666 233.193,95.505 233.277 C 94.187 233.372,93.710 233.604,93.405 234.300 C 93.114 234.963,92.674 235.200,91.734 235.200 C 90.512 235.200,89.200 236.043,89.200 236.829 C 89.200 237.033,88.750 237.200,88.200 237.200 C 87.400 237.200,87.200 237.400,87.200 238.200 C 87.200 239.133,87.067 239.200,85.200 239.200 C 83.333 239.200,83.200 239.267,83.200 240.200 C 83.200 241.133,83.067 241.200,81.200 241.200 C 79.333 241.200,79.200 241.267,79.200 242.200 C 79.200 242.950,78.989 243.200,78.358 243.200 C 77.894 243.200,77.161 243.650,76.729 244.200 C 76.163 244.919,75.557 245.200,74.571 245.200 C 73.375 245.200,73.200 245.328,73.200 246.200 C 73.200 247.000,73.000 247.200,72.200 247.200 C 71.406 247.200,71.200 247.401,71.200 248.178 C 71.200 249.061,71.015 249.168,69.300 249.278 C 67.679 249.382,67.381 249.532,67.272 250.300 C 67.180 250.951,66.876 251.200,66.172 251.200 C 65.402 251.200,65.200 251.408,65.200 252.200 C 65.200 252.950,64.989 253.200,64.358 253.200 C 63.894 253.200,63.170 253.638,62.749 254.174 C 62.327 254.710,61.491 255.205,60.891 255.274 C 60.220 255.352,59.648 255.747,59.405 256.300 C 59.163 256.852,58.660 257.200,58.105 257.200 C 57.406 257.200,57.200 257.428,57.200 258.200 C 57.200 259.000,57.000 259.200,56.200 259.200 C 55.400 259.200,55.200 259.400,55.200 260.200 C 55.200 261.000,55.000 261.200,54.200 261.200 C 53.400 261.200,53.200 261.400,53.200 262.200 C 53.200 262.992,52.998 263.200,52.228 263.200 C 51.524 263.200,51.220 263.449,51.128 264.100 C 51.039 264.726,50.695 265.029,50.000 265.096 C 49.015 265.191,49.013 265.186,49.900 264.809 C 50.712 264.463,50.800 264.150,50.800 261.613 C 50.800 258.916,50.839 258.800,51.753 258.800 C 52.802 258.800,53.176 257.976,53.207 255.600 C 53.226 254.140,53.962 252.800,54.744 252.800 C 55.024 252.800,55.200 252.037,55.200 250.828 C 55.200 249.087,55.306 248.841,56.100 248.728 C 56.868 248.619,57.018 248.321,57.122 246.700 C 57.220 245.167,57.386 244.800,57.979 244.800 C 58.848 244.800,59.200 244.041,59.200 242.167 C 59.200 241.092,59.362 240.800,59.957 240.800 C 60.843 240.800,61.200 240.053,61.200 238.195 C 61.200 237.111,61.371 236.831,62.100 236.728 C 62.868 236.619,63.018 236.321,63.122 234.700 C 63.232 232.985,63.339 232.800,64.222 232.800 C 65.056 232.800,65.202 232.609,65.213 231.500 C 65.226 230.128,65.979 228.800,66.744 228.800 C 66.995 228.800,67.200 228.350,67.200 227.800 C 67.200 227.073,67.414 226.800,67.986 226.800 C 68.627 226.800,68.821 226.433,69.035 224.821 C 69.248 223.213,69.456 222.820,70.145 222.721 C 70.614 222.654,71.060 222.245,71.144 221.804 C 71.227 221.367,71.634 220.772,72.047 220.482 C 72.460 220.193,72.911 219.246,73.050 218.378 C 73.261 217.055,73.456 216.800,74.251 216.800 C 74.997 216.800,75.200 216.586,75.200 215.800 C 75.200 215.073,75.414 214.800,75.986 214.800 C 76.628 214.800,76.821 214.432,77.038 212.800 C 77.272 211.037,77.415 210.800,78.252 210.800 C 78.989 210.800,79.200 210.584,79.200 209.828 C 79.200 209.124,79.449 208.820,80.100 208.728 C 80.678 208.646,81.046 208.278,81.128 207.700 C 81.210 207.122,81.532 206.800,82.028 206.800 C 82.453 206.800,82.800 206.555,82.800 206.255 C 82.800 205.955,83.340 205.031,84.000 204.200 C 84.660 203.369,85.200 202.265,85.200 201.745 C 85.200 201.004,85.416 200.800,86.200 200.800 C 87.000 200.800,87.200 200.600,87.200 199.800 C 87.200 199.000,87.400 198.800,88.200 198.800 C 89.000 198.800,89.200 198.600,89.200 197.800 C 89.200 197.000,89.400 196.800,90.200 196.800 C 91.000 196.800,91.200 196.600,91.200 195.800 C 91.200 195.000,91.400 194.800,92.200 194.800 C 93.000 194.800,93.200 194.600,93.200 193.800 C 93.200 193.000,93.400 192.800,94.200 192.800 C 95.000 192.800,95.200 192.600,95.200 191.800 C 95.200 191.000,95.400 190.800,96.200 190.800 C 97.000 190.800,97.200 190.600,97.200 189.800 C 97.200 189.000,97.400 188.800,98.200 188.800 C 99.000 188.800,99.200 188.600,99.200 187.800 C 99.200 187.000,99.400 186.800,100.200 186.800 C 101.000 186.800,101.200 186.600,101.200 185.800 C 101.200 184.961,101.389 184.800,102.371 184.800 C 103.144 184.800,103.810 184.460,104.329 183.800 C 104.761 183.250,105.482 182.800,105.930 182.800 C 106.465 182.800,106.788 182.497,106.872 181.916 C 106.953 181.358,107.368 180.947,108.000 180.800 C 108.632 180.653,109.047 180.242,109.128 179.684 C 109.220 179.050,109.530 178.800,110.228 178.800 C 110.998 178.800,111.200 178.592,111.200 177.800 C 111.200 176.884,111.349 176.800,112.972 176.800 C 114.505 176.800,114.762 176.679,114.872 175.900 C 114.964 175.256,115.312 174.964,116.100 174.873 C 116.956 174.775,117.200 174.536,117.200 173.796 C 117.200 172.964,117.411 172.831,118.900 172.723 C 120.313 172.621,120.622 172.448,120.728 171.700 C 120.827 171.000,121.117 170.800,122.028 170.800 C 123.004 170.800,123.200 170.637,123.200 169.822 C 123.200 168.939,123.385 168.832,125.100 168.722 C 126.721 168.618,127.019 168.468,127.128 167.700 C 127.238 166.924,127.496 166.800,129.000 166.800 C 130.504 166.800,130.762 166.676,130.872 165.900 C 130.981 165.134,131.279 164.982,132.875 164.879 C 134.456 164.777,134.769 164.621,134.875 163.879 C 134.980 163.138,135.293 162.981,136.875 162.879 C 138.456 162.777,138.769 162.621,138.875 161.879 C 138.981 161.136,139.293 160.981,140.898 160.878 C 142.530 160.773,142.830 160.619,143.041 159.778 C 143.263 158.894,143.491 158.800,145.414 158.800 C 147.207 158.800,147.666 158.643,148.329 157.800 C 148.964 156.992,149.469 156.800,150.958 156.800 C 152.648 156.800,152.800 156.719,152.800 155.817 C 152.800 154.867,152.906 154.830,155.900 154.717 C 158.769 154.609,159.010 154.533,159.128 153.700 C 159.247 152.861,159.453 152.800,162.160 152.800 C 164.849 152.800,165.105 152.726,165.600 151.800 C 166.112 150.844,166.298 150.800,169.839 150.800 C 173.471 150.800,174.800 150.364,174.800 149.171 C 174.800 148.967,176.671 148.800,178.971 148.800 C 182.944 148.800,183.179 148.752,183.929 147.800 C 184.705 146.812,184.789 146.800,190.750 146.800 L 196.785 146.800 197.036 145.800 L 197.287 144.800 214.214 144.800 L 231.142 144.800 231.910 143.823 C 232.526 143.041,233.110 142.821,234.839 142.723 C 236.731 142.615,237.016 142.488,237.128 141.700 C 237.220 141.049,237.524 140.800,238.228 140.800 C 238.998 140.800,239.200 140.592,239.200 139.800 C 239.200 139.000,239.400 138.800,240.200 138.800 C 241.000 138.800,241.200 138.600,241.200 137.800 C 241.200 137.000,241.400 136.800,242.200 136.800 C 243.059 136.800,243.202 136.617,243.213 135.500 C 243.226 134.128,243.979 132.800,244.744 132.800 C 245.081 132.800,245.200 125.992,245.200 106.800 L 245.200 80.800 246.200 80.800 C 247.000 80.800,247.200 81.000,247.200 81.800 " stroke="none" fill="#040404" fill-rule="evenodd"></path><path id="path1" d="" stroke="none" fill="#080404" fill-rule="evenodd"></path><path id="path2" d="" stroke="none" fill="#080404" fill-rule="evenodd"></path><path id="path3" d="" stroke="none" fill="#080404" fill-rule="evenodd"></path><path id="path4" d="" stroke="none" fill="#080404" fill-rule="evenodd"></path></g></svg>