<?xml version="1.0" standalone="no"?>
<!DOCTYPE svg PUBLIC "-//W3C//DTD SVG 20010904//EN"
 "http://www.w3.org/TR/2001/REC-SVG-20010904/DTD/svg10.dtd">
<svg version="1.0" xmlns="http://www.w3.org/2000/svg"
 width="40.000000pt" height="40.000000pt" viewBox="0 0 40.000000 40.000000"
 preserveAspectRatio="xMidYMid meet">

<g transform="translate(0.000000,40.000000) scale(0.100000,-0.100000)"
fill="#000000" stroke="none">
<path d="M32 367 l-32 -33 168 -167 168 -167 32 33 32 33 -168 167 -168 167
-32 -33z m30 1 c-7 -7 -12 -16 -12 -22 0 -6 5 -5 12 2 17 17 31 15 24 -4 -5
-12 -2 -15 10 -10 13 5 15 2 11 -14 -4 -16 -2 -19 7 -11 16 13 27 4 19 -15 -4
-10 0 -12 11 -8 19 7 21 -7 4 -24 -9 -9 -9 -12 -1 -12 7 0 15 5 18 10 12 19
26 10 19 -12 -6 -20 -5 -21 10 -9 14 11 16 11 16 -1 0 -8 -4 -19 -10 -26 -7
-9 -7 -9 2 -2 18 15 31 12 24 -6 -4 -12 -2 -15 9 -11 17 7 30 -9 15 -18 -5 -3
-10 -11 -10 -18 0 -8 3 -8 12 1 17 17 31 15 25 -2 -4 -10 -1 -13 9 -9 17 6 19
-8 2 -25 -9 -9 -9 -12 -1 -12 7 0 15 5 18 10 11 18 26 10 20 -10 -5 -15 -3
-18 9 -14 19 7 21 -7 4 -24 -7 -7 -8 -12 -2 -12 6 0 15 5 22 12 7 7 12 8 12 3
0 -12 -31 -45 -42 -45 -5 0 -76 68 -158 152 l-150 152 22 23 c12 13 24 23 27
23 3 0 0 -5 -7 -12z"/>
</g>
</svg>
