<?xml version="1.0" standalone="no"?>
<!DOCTYPE svg PUBLIC "-//W3C//DTD SVG 20010904//EN"
 "http://www.w3.org/TR/2001/REC-SVG-20010904/DTD/svg10.dtd">
<svg version="1.0" xmlns="http://www.w3.org/2000/svg"
 width="512.000000pt" height="512.000000pt" viewBox="0 0 512.000000 512.000000"
 preserveAspectRatio="xMidYMid meet">

<g transform="translate(0.000000,512.000000) scale(0.100000,-0.100000)"
fill="#000000" stroke="none">
<path d="M4556 5044 c-38 -7 -101 -29 -140 -47 -207 -99 -4150 -2176 -4203
-2213 -81 -58 -128 -113 -171 -204 -32 -65 -37 -86 -40 -167 -7 -154 39 -267
152 -371 74 -67 148 -103 473 -231 335 -132 366 -141 506 -148 59 -3 107 -7
107 -9 0 -2 -9 -18 -20 -36 -71 -116 -79 -331 -18 -493 39 -106 386 -878 409
-911 79 -116 223 -173 364 -144 144 30 204 95 457 496 143 229 193 324 207
397 5 26 10 50 12 52 4 3 916 -366 1014 -411 59 -27 205 -26 265 3 73 34 126
87 165 166 27 56 144 470 511 1817 261 960 484 1781 495 1825 22 95 25 237 5
311 -32 122 -119 230 -228 283 -105 51 -193 61 -322 35z m165 -354 c33 -18 52
-68 46 -124 -4 -38 -664 -2479 -948 -3508 l-32 -117 -36 15 c-154 65 -910 372
-1184 481 -186 73 -365 147 -397 163 -126 63 -166 173 -106 288 9 18 76 96
149 175 73 78 490 525 927 992 436 468 806 868 822 890 35 47 23 56 -32 23
-21 -12 -563 -437 -1204 -943 -1286 -1015 -1224 -972 -1412 -1004 -158 -26
-216 -14 -554 121 -157 62 -305 125 -331 140 -54 32 -85 82 -75 122 18 74 -15
56 2086 1157 1103 578 2045 1071 2094 1095 91 45 147 55 187 34z m-2911 -3306
c80 -42 202 -105 271 -141 192 -98 232 -139 208 -212 -22 -67 -359 -590 -386
-599 -6 -1 -15 7 -19 20 -4 13 -81 190 -172 393 -171 385 -202 464 -202 520 0
77 49 120 119 104 20 -4 101 -43 181 -85z"/>
</g>
</svg>
