<?xml version="1.0" standalone="no"?>
<!DOCTYPE svg PUBLIC "-//W3C//DTD SVG 20010904//EN"
 "http://www.w3.org/TR/2001/REC-SVG-20010904/DTD/svg10.dtd">
<svg version="1.0" xmlns="http://www.w3.org/2000/svg"
 width="40.000000pt" height="40.000000pt" viewBox="0 0 40.000000 40.000000"
 preserveAspectRatio="xMidYMid meet">
<metadata>
Created by potrace 1.15, written by Peter Selinger 2001-2017
</metadata>
<g transform="translate(0.000000,40.000000) scale(0.100000,-0.100000)"
fill="#000000" stroke="none">
<path d="M89 376 c-64 -44 -89 -87 -89 -155 0 -49 4 -65 25 -90 29 -34 26 -74
-6 -92 -11 -5 -19 -16 -19 -24 0 -24 98 -20 130 5 17 13 41 20 74 20 64 0 127
31 166 80 27 34 30 45 30 108 0 39 -5 74 -10 77 -6 4 -7 11 -4 17 4 6 2 8 -4
4 -6 -3 -14 0 -19 8 -4 8 -25 26 -46 40 -33 22 -49 26 -115 26 -65 0 -83 -4
-113 -24z m194 -20 c52 -22 79 -59 85 -116 9 -99 -48 -160 -156 -164 -38 -1
-67 -8 -79 -18 -23 -20 -84 -36 -66 -17 20 21 15 70 -9 97 -19 19 -23 35 -23
82 0 68 21 105 76 132 41 22 127 23 172 4z"/>
</g>
</svg>
