<?xml version="1.0" standalone="no"?>
<!DOCTYPE svg PUBLIC "-//W3C//DTD SVG 20010904//EN"
 "http://www.w3.org/TR/2001/REC-SVG-20010904/DTD/svg10.dtd">
<svg version="1.0" xmlns="http://www.w3.org/2000/svg"
 width="32.000000pt" height="32.000000pt" viewBox="0 0 32.000000 32.000000"
 preserveAspectRatio="xMidYMid meet">

<g transform="translate(0.000000,32.000000) scale(0.100000,-0.100000)"
fill="#000000" stroke="none">
<path d="M0 205 l0 -85 45 0 c43 0 45 -1 39 -25 -5 -22 -3 -25 21 -25 15 0 33
-6 39 -14 7 -9 41 -17 94 -21 l82 -7 0 67 c0 58 -3 68 -20 72 -11 3 -20 14
-20 24 0 11 -4 19 -9 19 -6 0 -11 17 -13 38 l-3 37 -127 3 -128 3 0 -86z m240
36 c0 -28 -2 -30 -48 -33 -45 -3 -47 -4 -50 -35 l-3 -33 -60 0 -59 0 0 65 0
65 110 0 110 0 0 -29z m20 -56 c0 -8 -4 -15 -10 -15 -5 0 -10 -22 -10 -50 l0
-50 -40 0 -40 0 0 65 0 65 50 0 c38 0 50 -4 50 -15z m38 -32 c-10 -2 -26 -2
-35 0 -10 3 -2 5 17 5 19 0 27 -2 18 -5z m12 -58 c0 -43 -1 -45 -30 -45 -29 0
-30 2 -30 45 0 43 1 45 30 45 29 0 30 -2 30 -45z m-117 -42 c-7 -2 -19 -2 -25
0 -7 3 -2 5 12 5 14 0 19 -2 13 -5z"/>
</g>
</svg>
