<?xml version="1.0" standalone="no"?>
<!DOCTYPE svg PUBLIC "-//W3C//DTD SVG 20010904//EN"
 "http://www.w3.org/TR/2001/REC-SVG-20010904/DTD/svg10.dtd">
<svg version="1.0" xmlns="http://www.w3.org/2000/svg"
 width="455.000000pt" height="455.000000pt" viewBox="0 0 455.000000 455.000000"
 preserveAspectRatio="xMidYMid meet">
<metadata>
Created by potrace 1.15, written by Peter Selinger 2001-2017
</metadata>
<g transform="translate(0.000000,455.000000) scale(0.100000,-0.100000)"
fill="#000000" stroke="none">
<path d="M165 3343 c37 -49 74 -98 83 -110 9 -12 26 -34 37 -49 19 -27 216
-291 256 -344 11 -14 78 -104 150 -200 72 -96 139 -184 148 -195 9 -12 30 -41
48 -66 l31 -45 -119 -154 c-66 -85 -146 -188 -177 -228 -31 -41 -76 -99 -100
-130 -23 -32 -51 -66 -61 -78 -9 -11 -37 -47 -61 -80 -24 -32 -50 -65 -58 -73
-15 -16 -92 -115 -107 -140 -5 -8 -15 -20 -21 -26 -6 -5 -24 -28 -40 -50 -16
-22 -31 -42 -34 -45 -21 -19 -140 -181 -140 -189 0 -8 68 -11 213 -11 241 0
214 -9 292 100 47 65 49 68 78 100 12 15 33 43 47 63 14 20 28 37 33 37 4 0 7
7 7 15 0 8 4 15 8 15 5 0 24 21 42 48 19 26 37 49 40 52 3 3 31 39 63 80 31
41 62 81 69 89 7 8 29 36 48 62 19 26 73 95 119 155 l84 107 19 -24 c10 -13
22 -29 27 -34 4 -6 25 -35 46 -65 61 -87 219 -295 228 -298 4 -2 7 -8 7 -13 0
-8 130 -184 186 -252 8 -9 14 -19 14 -22 0 -3 7 -13 16 -22 8 -10 44 -57 80
-105 l65 -88 220 0 220 0 -23 32 c-12 18 -31 42 -41 53 -10 11 -32 41 -49 67
-16 27 -34 48 -39 48 -5 0 -9 5 -9 10 0 9 -123 176 -192 260 -11 14 -36 49
-55 78 -20 28 -40 52 -44 52 -5 0 -9 5 -9 10 0 9 -146 209 -185 253 -8 9 -15
19 -15 22 0 3 -7 13 -15 22 -8 10 -62 81 -120 157 -91 121 -104 142 -93 156
68 92 104 136 115 143 7 4 13 15 13 22 0 8 4 15 8 15 5 0 24 21 43 48 18 26
41 56 51 67 9 11 90 115 179 230 182 235 171 221 202 255 12 15 33 43 47 63
14 20 28 37 33 37 4 0 7 6 7 14 0 8 4 16 9 18 5 2 37 39 71 83 l62 80 -221 3
c-210 2 -222 1 -241 -18 -11 -11 -20 -24 -20 -30 0 -5 -4 -10 -8 -10 -5 0 -25
-24 -45 -53 -20 -29 -45 -61 -55 -72 -10 -11 -38 -47 -62 -80 -24 -33 -46 -62
-50 -65 -3 -3 -26 -32 -51 -65 -57 -78 -56 -76 -83 -106 -13 -15 -33 -43 -45
-63 -13 -20 -27 -36 -32 -36 -5 0 -9 -7 -9 -15 0 -8 -4 -15 -8 -15 -4 0 -28
-28 -52 -62 -24 -35 -49 -67 -57 -71 -7 -4 -13 -14 -13 -21 0 -16 -23 -27 -37
-18 -5 4 -40 50 -77 102 -37 52 -72 97 -77 98 -5 2 -9 7 -9 12 0 13 -83 130
-92 130 -4 0 -8 5 -8 11 0 6 -21 39 -47 73 -27 34 -66 87 -88 119 -65 92 -85
121 -103 143 -18 22 -32 42 -60 86 l-17 28 -228 0 -228 0 66 -87z"/>
<path d="M2237 3417 c40 -63 87 -127 94 -127 5 0 9 -6 9 -14 0 -8 3 -16 8 -18
4 -1 38 -46 77 -98 38 -52 82 -111 97 -130 15 -19 77 -102 138 -185 61 -82
119 -161 130 -173 11 -13 20 -26 20 -28 0 -3 5 -10 10 -17 23 -27 190 -248
190 -251 0 -3 9 -15 20 -28 10 -12 53 -69 95 -126 l75 -102 0 -495 0 -495 190
0 190 0 0 499 c0 275 3 501 8 503 4 2 39 46 77 98 38 52 73 97 77 98 5 2 8 7
8 12 0 5 9 19 20 32 10 12 69 91 130 173 61 83 120 161 130 173 11 13 20 26
20 28 0 2 6 12 14 21 36 44 186 243 186 247 0 2 9 15 20 28 10 12 68 88 127
168 59 80 111 147 116 148 4 2 7 10 7 17 0 7 7 15 15 19 8 3 15 12 15 21 0 13
-29 15 -222 15 l-223 -1 -110 -150 c-60 -82 -142 -191 -180 -242 -39 -51 -86
-114 -105 -142 -18 -27 -42 -59 -51 -70 -10 -11 -51 -65 -91 -120 -40 -55 -78
-106 -85 -113 -7 -7 -29 -38 -49 -68 -20 -29 -39 -54 -42 -54 -4 0 -20 19 -36
43 -30 44 -162 222 -280 380 -38 51 -92 123 -119 161 -27 38 -54 74 -59 80 -5
6 -41 54 -79 106 -38 52 -79 106 -89 118 -11 13 -20 26 -20 28 0 2 -8 13 -17
24 -17 19 -29 20 -241 20 -177 0 -221 -3 -215 -13z"/>
</g>
</svg>
